{
.appVersion = "1208";
copyright = "Copyright 2018 Google Inc. All Rights Reserved.";
customParameters = (
{
name = glyphOrder;
value = (
.notdef,
NULL,
CR,
space,
uni00A0,
uni200C,
uni200D,
uni25CC,
uni0AE6,
uni0AE7,
uni0AE8,
uni0AE9,
uni0AEA,
uni0AEB,
uni0AEC,
uni0AED,
uni0AEE,
uni0AEF,
uniA830,
uniA831,
uniA832,
uniA833,
uniA834,
uniA835,
uniA836,
uniA837,
uniA838,
uniA839,
Anusvara,
Nukta,
Shadda,
u11238,
u11239,
u1123A,
u1123B,
u1123C,
u1123D,
u1123E,
KA.alt,
II.alt,
KU,
GHU,
CU,
II.alt2,
I.alt,
U.alt,
GU,
I.alt2,
NGU,
CHU,
JU,
U.alt2,
DDU,
DDHU,
NNU,
TU,
THU,
DI,
DII,
DU,
I.alt3,
I.alt4,
II.alt3,
NU,
PU,
PHI,
PHII,
PHU,
BU,
BBU,
BHU,
MU,
YU,
RI,
RII,
RU,
LU,
VU,
SU,
HA.alt,
HU,
LLU,
U.alt3,
KSSA,
KSSA.alt,
GNA,
TRA,
TRU,
DDDRA,
DDDRU,
DDDU,
NYU,
GNA.alt,
RA.alt,
YA.alt,
YA.alt2,
YA.alt3,
Nukta.alt,
Anusvara.alt,
kj_A,
kj_AA,
kj_I,
kj_U,
kj_E,
kj_AI,
kj_O,
kj_AU,
kj_KA,
kj_KHA,
kj_GA,
kj_GGA,
kj_GHA,
kj_NGA,
kj_CA,
kj_CHA,
kj_JA,
kj_JJA,
kj_NYA,
kj_TTA,
kj_TTHA,
kj_DDA,
kj_DDHA,
kj_NNA,
kj_TA,
kj_THA,
kj_DA,
kj_DDDA,
kj_DHA,
kj_NA,
kj_PA,
kj_PHA,
kj_BA,
kj_BBA,
kj_BHA,
kj_MA,
kj_YA,
kj_RA,
kj_LA,
kj_VA,
kj_SA,
kj_HA,
kj_LLA,
kj_vs_AA,
kj_vs_I,
kj_vs_II,
kj_vs_U.ns,
kj_vs_E.ns,
kj_vs_AI.ns,
kj_vs_O,
kj_vs_AU,
virama,
DDII,
KHU,
JJU,
LLII,
BHRA,
KRA,
MRA,
SRA,
THA.alt,
PA.alt,
KHA.alt,
NA.alt,
SA.alt,
Ra_U,
II.alt4,
II.alt5,
DDDII,
DDDRII,
E_Shadda.ns,
AI_Shadda.ns,
Nukta_Shadda.ns,
Nukta_E.ns,
Nukta_AI.ns,
Nukta_Shadda_E.ns,
Nukta_Shadda_AI.ns,
NullMark
);
},
{
name = description;
value = "Designed by Monotype design team.";
},
{
name = license;
value = "This Font Software is licensed under the SIL Open Font License, Version 1.1. This Font Software is distributed on an \"AS IS\" BASIS, WITHOUT WARRANTIES OR CONDITIONS OF ANY KIND, either express or implied. See the SIL Open Font License for the specific language, permissions and limitations governing your use of this Font Software.";
},
{
name = licenseURL;
value = "http://scripts.sil.org/OFL";
},
{

glyphs = (
{
glyphname = .notdef;
lastChange = "2018-11-05 20:01:39 +0000";
layers = (
{
layerId = "0717401B-DDB5-4983-85F2-A81AFE530D5E";
paths = (
{
closed = 1;
nodes = (
"505 0 LINE",
"505 714 LINE",
"94 714 LINE",
"94 0 LINE"
);
},
{
closed = 1;
nodes = (
"145 663 LINE",
"454 663 LINE",
"454 51 LINE",
"145 51 LINE"
);
}
);
width = 600;
}
);
note = .notdef;
},
{
glyphname = uni25CC;
lastChange = "2018-11-05 20:04:36 +0000";
layers = (
{
layerId = "0717401B-DDB5-4983-85F2-A81AFE530D5E";
paths = (
{
closed = 1;
nodes = (
"283 540 OFFCURVE",
"271 528 OFFCURVE",
"271 514 CURVE SMOOTH",
"271 500 OFFCURVE",
"283 488 OFFCURVE",
"297 488 CURVE SMOOTH",
"311 488 OFFCURVE",
"323 500 OFFCURVE",
"323 514 CURVE SMOOTH",
"323 528 OFFCURVE",
"311 540 OFFCURVE",
"297 540 CURVE SMOOTH"
);
},
{
closed = 1;
nodes = (
"199 522 OFFCURVE",
"187 510 OFFCURVE",
"187 496 CURVE SMOOTH",
"187 482 OFFCURVE",
"199 470 OFFCURVE",
"213 470 CURVE SMOOTH",
"227 470 OFFCURVE",
"239 482 OFFCURVE",
"239 496 CURVE SMOOTH",
"239 510 OFFCURVE",
"227 522 OFFCURVE",
"213 522 CURVE SMOOTH"
);
},
{
closed = 1;
nodes = (
"367 522 OFFCURVE",
"355 510 OFFCURVE",
"355 496 CURVE SMOOTH",
"355 482 OFFCURVE",
"367 470 OFFCURVE",
"381 470 CURVE SMOOTH",
"395 470 OFFCURVE",
"407 482 OFFCURVE",
"407 496 CURVE SMOOTH",
"407 510 OFFCURVE",
"395 522 OFFCURVE",
"381 522 CURVE SMOOTH"
);
},
{
closed = 1;
nodes = (
"113 435 OFFCURVE",
"125 423 OFFCURVE",
"139 423 CURVE SMOOTH",
"153 423 OFFCURVE",
"165 435 OFFCURVE",
"165 449 CURVE SMOOTH",
"165 463 OFFCURVE",
"153 475 OFFCURVE",
"139 475 CURVE SMOOTH",
"125 475 OFFCURVE",
"113 463 OFFCURVE",
"113 449 CURVE SMOOTH"
);
},
{
closed = 1;
nodes = (
"429 435 OFFCURVE",
"441 423 OFFCURVE",
"455 423 CURVE SMOOTH",
"469 423 OFFCURVE",
"481 435 OFFCURVE",
"481 449 CURVE SMOOTH",
"481 463 OFFCURVE",
"469 475 OFFCURVE",
"455 475 CURVE SMOOTH",
"441 475 OFFCURVE",
"429 463 OFFCURVE",
"429 449 CURVE SMOOTH"
);
},
{
closed = 1;
nodes = (
"66 361 OFFCURVE",
"78 349 OFFCURVE",
"92 349 CURVE SMOOTH",
"106 349 OFFCURVE",
"118 361 OFFCURVE",
"118 375 CURVE SMOOTH",
"118 389 OFFCURVE",
"106 401 OFFCURVE",
"92 401 CURVE SMOOTH",
"78 401 OFFCURVE",
"66 389 OFFCURVE",
"66 375 CURVE SMOOTH"
);
},
{
closed = 1;
nodes = (
"476 361 OFFCURVE",
"488 349 OFFCURVE",
"502 349 CURVE SMOOTH",
"516 349 OFFCURVE",
"528 361 OFFCURVE",
"528 375 CURVE SMOOTH",
"528 389 OFFCURVE",
"516 401 OFFCURVE",
"502 401 CURVE SMOOTH",
"488 401 OFFCURVE",
"476 389 OFFCURVE",
"476 375 CURVE SMOOTH"
);
},
{
closed = 1;
nodes = (
"48 277 OFFCURVE",
"60 265 OFFCURVE",
"74 265 CURVE SMOOTH",
"88 265 OFFCURVE",
"100 277 OFFCURVE",
"100 291 CURVE SMOOTH",
"100 305 OFFCURVE",
"88 317 OFFCURVE",
"74 317 CURVE SMOOTH",
"60 317 OFFCURVE",
"48 305 OFFCURVE",
"48 291 CURVE SMOOTH"
);
},
{
closed = 1;
nodes = (
"494 277 OFFCURVE",
"506 265 OFFCURVE",
"520 265 CURVE SMOOTH",
"534 265 OFFCURVE",
"546 277 OFFCURVE",
"546 291 CURVE SMOOTH",
"546 305 OFFCURVE",
"534 317 OFFCURVE",
"520 317 CURVE SMOOTH",
"506 317 OFFCURVE",
"494 305 OFFCURVE",
"494 291 CURVE SMOOTH"
);
},
{
closed = 1;
nodes = (
"66 193 OFFCURVE",
"78 181 OFFCURVE",
"92 181 CURVE SMOOTH",
"106 181 OFFCURVE",
"118 193 OFFCURVE",
"118 207 CURVE SMOOTH",
"118 221 OFFCURVE",
"106 233 OFFCURVE",
"92 233 CURVE SMOOTH",
"78 233 OFFCURVE",
"66 221 OFFCURVE",
"66 207 CURVE SMOOTH"
);
},
{
closed = 1;
nodes = (
"476 193 OFFCURVE",
"488 181 OFFCURVE",
"502 181 CURVE SMOOTH",
"516 181 OFFCURVE",
"528 193 OFFCURVE",
"528 207 CURVE SMOOTH",
"528 221 OFFCURVE",
"516 233 OFFCURVE",
"502 233 CURVE SMOOTH",
"488 233 OFFCURVE",
"476 221 OFFCURVE",
"476 207 CURVE SMOOTH"
);
},
{
closed = 1;
nodes = (
"113 119 OFFCURVE",
"125 107 OFFCURVE",
"139 107 CURVE SMOOTH",
"153 107 OFFCURVE",
"165 119 OFFCURVE",
"165 133 CURVE SMOOTH",
"165 147 OFFCURVE",
"153 159 OFFCURVE",
"139 159 CURVE SMOOTH",
"125 159 OFFCURVE",
"113 147 OFFCURVE",
"113 133 CURVE SMOOTH"
);
},
{
closed = 1;
nodes = (
"429 119 OFFCURVE",
"441 107 OFFCURVE",
"455 107 CURVE SMOOTH",
"469 107 OFFCURVE",
"481 119 OFFCURVE",
"481 133 CURVE SMOOTH",
"481 147 OFFCURVE",
"469 159 OFFCURVE",
"455 159 CURVE SMOOTH",
"441 159 OFFCURVE",
"429 147 OFFCURVE",
"429 133 CURVE SMOOTH"
);
},
{
closed = 1;
nodes = (
"199 112 OFFCURVE",
"187 100 OFFCURVE",
"187 86 CURVE SMOOTH",
"187 72 OFFCURVE",
"199 60 OFFCURVE",
"213 60 CURVE SMOOTH",
"227 60 OFFCURVE",
"239 72 OFFCURVE",
"239 86 CURVE SMOOTH",
"239 100 OFFCURVE",
"227 112 OFFCURVE",
"213 112 CURVE SMOOTH"
);
},
{
closed = 1;
nodes = (
"367 112 OFFCURVE",
"355 100 OFFCURVE",
"355 86 CURVE SMOOTH",
"355 72 OFFCURVE",
"367 60 OFFCURVE",
"381 60 CURVE SMOOTH",
"395 60 OFFCURVE",
"407 72 OFFCURVE",
"407 86 CURVE SMOOTH",
"407 100 OFFCURVE",
"395 112 OFFCURVE",
"381 112 CURVE SMOOTH"
);
},
{
closed = 1;
nodes = (
"283 94 OFFCURVE",
"271 82 OFFCURVE",
"271 68 CURVE SMOOTH",
"271 54 OFFCURVE",
"283 42 OFFCURVE",
"297 42 CURVE SMOOTH",
"311 42 OFFCURVE",
"323 54 OFFCURVE",
"323 68 CURVE SMOOTH",
"323 82 OFFCURVE",
"311 94 OFFCURVE",
"297 94 CURVE SMOOTH"
);
}
);
width = 594;
}
);
note = uni25CC;
unicode = 25CC;
category = Letter;
},
{
glyphname = uni0AE6;
lastChange = "2018-11-05 20:02:30 +0000";
layers = (
{
layerId = "0717401B-DDB5-4983-85F2-A81AFE530D5E";
paths = (
{
closed = 1;
nodes = (
"403 179 OFFCURVE",
"350 122 OFFCURVE",
"273 122 CURVE SMOOTH",
"197 122 OFFCURVE",
"147 176 OFFCURVE",
"147 254 CURVE SMOOTH",
"147 332 OFFCURVE",
"201 388 OFFCURVE",
"277 388 CURVE SMOOTH",
"354 388 OFFCURVE",
"403 336 OFFCURVE",
"403 258 CURVE SMOOTH"
);
},
{
closed = 1;
nodes = (
"485 377 OFFCURVE",
"401 463 OFFCURVE",
"275 463 CURVE SMOOTH",
"152 463 OFFCURVE",
"65 375 OFFCURVE",
"65 256 CURVE SMOOTH",
"65 134 OFFCURVE",
"151 48 OFFCURVE",
"276 48 CURVE SMOOTH",
"395 48 OFFCURVE",
"485 133 OFFCURVE",
"485 255 CURVE SMOOTH"
);
}
);
width = 551;
}
);
note = uni0AE6;
unicode = 0AE6;
category = Letter;
},
{
glyphname = uni0AE7;
lastChange = "2018-11-05 20:02:30 +0000";
layers = (
{
layerId = "0717401B-DDB5-4983-85F2-A81AFE530D5E";
paths = (
{
closed = 1;
nodes = (
"390 1 OFFCURVE",
"427 -12 OFFCURVE",
"484 -12 CURVE SMOOTH",
"506 -12 OFFCURVE",
"513 6 OFFCURVE",
"513 24 CURVE SMOOTH",
"513 43 OFFCURVE",
"505 61 OFFCURVE",
"488 61 CURVE SMOOTH",
"461 61 OFFCURVE",
"442 61 OFFCURVE",
"428 80 CURVE SMOOTH",
"420 91 OFFCURVE",
"416 104 OFFCURVE",
"416 140 CURVE SMOOTH",
"416 350 LINE SMOOTH",
"416 463 OFFCURVE",
"368 540 OFFCURVE",
"253 540 CURVE SMOOTH",
"148 540 OFFCURVE",
"88 471 OFFCURVE",
"88 390 CURVE SMOOTH",
"88 296 OFFCURVE",
"162 233 OFFCURVE",
"259 233 CURVE SMOOTH",
"288 233 OFFCURVE",
"313 238 OFFCURVE",
"336 246 CURVE",
"336 136 LINE SMOOTH",
"336 77 OFFCURVE",
"345 48 OFFCURVE",
"367 25 CURVE SMOOTH"
);
},
{
closed = 1;
nodes = (
"206 306 OFFCURVE",
"169 337 OFFCURVE",
"169 388 CURVE SMOOTH",
"169 436 OFFCURVE",
"202 467 OFFCURVE",
"250 467 CURVE SMOOTH",
"323 467 OFFCURVE",
"336 396 OFFCURVE",
"336 339 CURVE SMOOTH",
"336 326 LINE",
"314 313 OFFCURVE",
"289 306 OFFCURVE",
"261 306 CURVE SMOOTH"
);
}
);
width = 551;
}
);
note = uni0AE7;
unicode = 0AE7;
category = Letter;
},
{
glyphname = uni0AE8;
lastChange = "2018-11-05 20:02:30 +0000";
layers = (
{
layerId = "0717401B-DDB5-4983-85F2-A81AFE530D5E";
paths = (
{
closed = 1;
nodes = (
"350 216 OFFCURVE",
"400 301 OFFCURVE",
"400 378 CURVE SMOOTH",
"400 495 OFFCURVE",
"325 558 OFFCURVE",
"193 558 CURVE SMOOTH",
"114 558 OFFCURVE",
"20 525 OFFCURVE",
"20 486 CURVE SMOOTH",
"20 468 OFFCURVE",
"39 439 OFFCURVE",
"61 439 CURVE SMOOTH",
"92 439 OFFCURVE",
"130 479 OFFCURVE",
"224 479 CURVE SMOOTH",
"290 479 OFFCURVE",
"324 444 OFFCURVE",
"324 391 CURVE SMOOTH",
"324 326 OFFCURVE",
"270 271 OFFCURVE",
"187 269 CURVE",
"155 280 OFFCURVE",
"141 281 OFFCURVE",
"120 281 CURVE SMOOTH",
"93 281 OFFCURVE",
"79 265 OFFCURVE",
"79 235 CURVE SMOOTH",
"79 194 OFFCURVE",
"120 180 OFFCURVE",
"168 180 CURVE SMOOTH",
"194 180 OFFCURVE",
"204 184 OFFCURVE",
"218 189 CURVE",
"173 204 LINE",
"207 180 OFFCURVE",
"215 157 OFFCURVE",
"226 86 CURVE SMOOTH",
"240 -6 OFFCURVE",
"282 -47 OFFCURVE",
"378 -47 CURVE SMOOTH",
"411 -47 OFFCURVE",
"445 -40 OFFCURVE",
"466 -29 CURVE SMOOTH",
"472 -26 OFFCURVE",
"474 -18 OFFCURVE",
"474 -9 CURVE SMOOTH",
"474 14 OFFCURVE",
"464 43 OFFCURVE",
"444 43 CURVE SMOOTH",
"435 43 OFFCURVE",
"411 34 OFFCURVE",
"381 34 CURVE SMOOTH",
"319 34 OFFCURVE",
"305 51 OFFCURVE",
"296 110 CURVE SMOOTH",
"289 154 OFFCURVE",
"279 187 OFFCURVE",
"257 223 CURVE",
"232 192 LINE"
);
}
);
width = 514;
}
);
note = uni0AE8;
unicode = 0AE8;
category = Letter;
},
{
glyphname = uni0AE9;
lastChange = "2018-11-05 20:02:30 +0000";
layers = (
{
layerId = "0717401B-DDB5-4983-85F2-A81AFE530D5E";
paths = (
{
closed = 1;
nodes = (
"438 505 OFFCURVE",
"359 558 OFFCURVE",
"252 558 CURVE SMOOTH",
"181 558 OFFCURVE",
"89 525 OFFCURVE",
"89 486 CURVE SMOOTH",
"89 468 OFFCURVE",
"107 438 OFFCURVE",
"129 438 CURVE SMOOTH",
"160 438 OFFCURVE",
"197 479 OFFCURVE",
"275 479 CURVE SMOOTH",
"335 479 OFFCURVE",
"365 451 OFFCURVE",
"365 407 CURVE SMOOTH",
"365 347 OFFCURVE",
"312 318 OFFCURVE",
"209 315 CURVE",
"195 312 OFFCURVE",
"189 298 OFFCURVE",
"189 283 CURVE SMOOTH",
"189 263 OFFCURVE",
"202 238 OFFCURVE",
"232 238 CURVE SMOOTH",
"276 238 OFFCURVE",
"330 251 OFFCURVE",
"351 266 CURVE",
"306 260 LINE",
"353 247 OFFCURVE",
"378 204 OFFCURVE",
"378 163 CURVE SMOOTH",
"378 101 OFFCURVE",
"335 77 OFFCURVE",
"271 77 CURVE SMOOTH",
"189 77 OFFCURVE",
"135 132 OFFCURVE",
"114 172 CURVE SMOOTH",
"101 197 OFFCURVE",
"96 217 OFFCURVE",
"77 217 CURVE SMOOTH",
"56 217 OFFCURVE",
"55 173 OFFCURVE",
"55 151 CURVE SMOOTH",
"55 95 OFFCURVE",
"145 -3 OFFCURVE",
"272 -3 CURVE SMOOTH",
"388 -3 OFFCURVE",
"458 55 OFFCURVE",
"458 151 CURVE SMOOTH",
"458 220 OFFCURVE",
"415 276 OFFCURVE",
"357 300 CURVE",
"376 281 LINE",
"418 306 OFFCURVE",
"438 357 OFFCURVE",
"438 400 CURVE SMOOTH"
);
}
);
width = 538;
}
);
note = uni0AE9;
unicode = 0AE9;
category = Letter;
},
{
glyphname = uni0AEA;
lastChange = "2018-11-05 20:02:30 +0000";
layers = (
{
layerId = "0717401B-DDB5-4983-85F2-A81AFE530D5E";
paths = (
{
closed = 1;
nodes = (
"486 529 OFFCURVE",
"465 545 OFFCURVE",
"446 545 CURVE SMOOTH",
"436 545 OFFCURVE",
"426 541 OFFCURVE",
"418 533 CURVE SMOOTH",
"356 475 OFFCURVE",
"317 431 OFFCURVE",
"274 382 CURVE",
"225 434 OFFCURVE",
"173 489 OFFCURVE",
"125 531 CURVE SMOOTH",
"119 537 OFFCURVE",
"104 545 OFFCURVE",
"88 545 CURVE SMOOTH",
"68 545 OFFCURVE",
"51 527 OFFCURVE",
"51 505 CURVE SMOOTH",
"51 497 OFFCURVE",
"54 487 OFFCURVE",
"64 479 CURVE SMOOTH",
"110 440 OFFCURVE",
"172 381 OFFCURVE",
"223 327 CURVE",
"219 323 OFFCURVE",
"216 320 OFFCURVE",
"213 317 CURVE SMOOTH",
"140 242 OFFCURVE",
"113 191 OFFCURVE",
"113 125 CURVE SMOOTH",
"113 64 OFFCURVE",
"160 -12 OFFCURVE",
"268 -12 CURVE SMOOTH",
"381 -12 OFFCURVE",
"421 62 OFFCURVE",
"421 123 CURVE SMOOTH",
"421 199 OFFCURVE",
"397 248 OFFCURVE",
"338 311 CURVE SMOOTH",
"324 326 LINE",
"377 382 OFFCURVE",
"450 456 OFFCURVE",
"462 468 CURVE SMOOTH",
"470 476 OFFCURVE",
"486 493 OFFCURVE",
"486 505 CURVE SMOOTH"
);
},
{
closed = 1;
nodes = (
"272 272 LINE",
"292 249 LINE SMOOTH",
"327 209 OFFCURVE",
"341 161 OFFCURVE",
"341 129 CURVE SMOOTH",
"341 91 OFFCURVE",
"317 60 OFFCURVE",
"267 60 CURVE SMOOTH",
"219 60 OFFCURVE",
"192 87 OFFCURVE",
"192 131 CURVE SMOOTH",
"192 173 OFFCURVE",
"209 209 OFFCURVE",
"259 259 CURVE SMOOTH"
);
}
);
width = 551;
}
);
note = uni0AEA;
unicode = 0AEA;
category = Letter;
},
{
glyphname = uni0AEB;
lastChange = "2018-11-05 20:02:30 +0000";
layers = (
{
layerId = "0717401B-DDB5-4983-85F2-A81AFE530D5E";
paths = (
{
closed = 1;
nodes = (
"65 467 OFFCURVE",
"96 466 OFFCURVE",
"96 387 CURVE SMOOTH",
"96 311 LINE SMOOTH",
"96 189 OFFCURVE",
"149 131 OFFCURVE",
"248 131 CURVE SMOOTH",
"298 131 OFFCURVE",
"335 144 OFFCURVE",
"367 165 CURVE",
"367 136 LINE SMOOTH",
"367 23 OFFCURVE",
"411 -12 OFFCURVE",
"515 -12 CURVE SMOOTH",
"537 -12 OFFCURVE",
"544 6 OFFCURVE",
"544 24 CURVE SMOOTH",
"544 40 OFFCURVE",
"540 49 OFFCURVE",
"534 54 CURVE SMOOTH",
"518 66 OFFCURVE",
"485 58 OFFCURVE",
"466 75 CURVE SMOOTH",
"454 85 OFFCURVE",
"447 104 OFFCURVE",
"447 140 CURVE SMOOTH",
"447 514 LINE SMOOTH",
"447 528 OFFCURVE",
"425 540 OFFCURVE",
"402 540 CURVE SMOOTH",
"386 540 OFFCURVE",
"367 532 OFFCURVE",
"367 514 CURVE SMOOTH",
"367 253 LINE",
"340 224 OFFCURVE",
"301 203 OFFCURVE",
"260 203 CURVE SMOOTH",
"209 203 OFFCURVE",
"176 215 OFFCURVE",
"176 315 CURVE SMOOTH",
"176 390 LINE SMOOTH",
"176 450 OFFCURVE",
"169 484 OFFCURVE",
"145 504 CURVE SMOOTH",
"103 539 OFFCURVE",
"65 540 OFFCURVE",
"34 540 CURVE SMOOTH",
"18 540 OFFCURVE",
"9 522 OFFCURVE",
"9 500 CURVE SMOOTH",
"9 482 OFFCURVE",
"14 467 OFFCURVE",
"24 467 CURVE SMOOTH"
);
}
);
width = 551;
}
);
note = uni0AEB;
unicode = 0AEB;
category = Letter;
},
{
glyphname = uni0AEC;
lastChange = "2018-11-05 20:02:30 +0000";
layers = (
{
layerId = "0717401B-DDB5-4983-85F2-A81AFE530D5E";
paths = (
{
closed = 1;
nodes = (
"388 -27 OFFCURVE",
"414 -36 OFFCURVE",
"414 -64 CURVE SMOOTH",
"414 -79 OFFCURVE",
"407 -94 OFFCURVE",
"398 -104 CURVE SMOOTH",
"394 -108 OFFCURVE",
"390 -114 OFFCURVE",
"390 -119 CURVE SMOOTH",
"390 -142 OFFCURVE",
"419 -159 OFFCURVE",
"441 -159 CURVE SMOOTH",
"448 -159 OFFCURVE",
"456 -156 OFFCURVE",
"461 -150 CURVE SMOOTH",
"482 -125 OFFCURVE",
"498 -102 OFFCURVE",
"498 -64 CURVE SMOOTH",
"498 -7 OFFCURVE",
"462 33 OFFCURVE",
"345 71 CURVE SMOOTH",
"245 103 OFFCURVE",
"224 139 OFFCURVE",
"224 188 CURVE SMOOTH",
"224 236 OFFCURVE",
"272 281 OFFCURVE",
"346 281 CURVE SMOOTH",
"377 281 OFFCURVE",
"394 277 OFFCURVE",
"412 277 CURVE SMOOTH",
"435 277 OFFCURVE",
"447 297 OFFCURVE",
"447 317 CURVE SMOOTH",
"447 332 OFFCURVE",
"440 345 OFFCURVE",
"424 348 CURVE SMOOTH",
"403 352 OFFCURVE",
"392 354 OFFCURVE",
"351 354 CURVE SMOOTH",
"305 354 OFFCURVE",
"267 343 OFFCURVE",
"236 327 CURVE",
"220 345 OFFCURVE",
"214 366 OFFCURVE",
"214 388 CURVE SMOOTH",
"214 431 OFFCURVE",
"243 466 OFFCURVE",
"332 466 CURVE SMOOTH",
"370 466 OFFCURVE",
"386 463 OFFCURVE",
"411 457 CURVE",
"433 458 OFFCURVE",
"444 479 OFFCURVE",
"444 498 CURVE SMOOTH",
"444 512 OFFCURVE",
"438 525 OFFCURVE",
"425 529 CURVE SMOOTH",
"397 537 OFFCURVE",
"372 540 OFFCURVE",
"328 540 CURVE SMOOTH",
"181 540 OFFCURVE",
"132 469 OFFCURVE",
"132 394 CURVE SMOOTH",
"132 348 OFFCURVE",
"150 311 OFFCURVE",
"177 281 CURVE",
"154 252 OFFCURVE",
"142 220 OFFCURVE",
"142 191 CURVE SMOOTH",
"142 103 OFFCURVE",
"178 46 OFFCURVE",
"310 0 CURVE SMOOTH"
);
}
);
width = 551;
}
);
note = uni0AEC;
unicode = 0AEC;
category = Letter;
},
{
glyphname = uni0AED;
lastChange = "2018-11-05 20:23:21 +0000";
layers = (
{
layerId = "0717401B-DDB5-4983-85F2-A81AFE530D5E";
paths = (
{
closed = 1;
nodes = (
"420 143 OFFCURVE",
"385 62 OFFCURVE",
"292 62 CURVE SMOOTH",
"204 62 OFFCURVE",
"142 117 OFFCURVE",
"114 221 CURVE SMOOTH",
"110 236 OFFCURVE",
"94 238 OFFCURVE",
"84 238 CURVE SMOOTH",
"64 238 OFFCURVE",
"40 231 OFFCURVE",
"40 208 CURVE SMOOTH",
"40 205 OFFCURVE",
"40 202 OFFCURVE",
"41 199 CURVE SMOOTH",
"69 74 OFFCURVE",
"170 -11 OFFCURVE",
"295 -11 CURVE SMOOTH",
"425 -11 OFFCURVE",
"511 84 OFFCURVE",
"511 254 CURVE SMOOTH",
"511 434 OFFCURVE",
"418 540 OFFCURVE",
"292 540 CURVE SMOOTH",
"178 540 OFFCURVE",
"124 482 OFFCURVE",
"124 401 CURVE SMOOTH",
"124 286 OFFCURVE",
"212 223 OFFCURVE",
"394 223 CURVE SMOOTH",
"404 223 OFFCURVE",
"415 223 OFFCURVE",
"426 224 CURVE"
);
},
{
closed = 1;
nodes = (
"412 295 LINE SMOOTH",
"278 295 OFFCURVE",
"207 317 OFFCURVE",
"207 398 CURVE SMOOTH",
"207 446 OFFCURVE",
"238 467 OFFCURVE",
"290 467 CURVE SMOOTH",
"370 467 OFFCURVE",
"413 382 OFFCURVE",
"424 295 CURVE"
);
}
);
width = 551;
}
);
note = uni0AED;
unicode = 0AED;
category = Letter;
},
{
glyphname = uni0AEE;
lastChange = "2018-11-05 20:02:30 +0000";
layers = (
{
layerId = "0717401B-DDB5-4983-85F2-A81AFE530D5E";
paths = (
{
closed = 1;
nodes = (
"476 41 OFFCURVE",
"481 50 OFFCURVE",
"481 61 CURVE SMOOTH",
"481 84 OFFCURVE",
"466 108 OFFCURVE",
"443 108 CURVE SMOOTH",
"437 108 OFFCURVE",
"430 106 OFFCURVE",
"423 102 CURVE SMOOTH",
"388 83 OFFCURVE",
"345 61 OFFCURVE",
"272 61 CURVE SMOOTH",
"205 61 OFFCURVE",
"154 96 OFFCURVE",
"154 160 CURVE SMOOTH",
"154 212 OFFCURVE",
"180 251 OFFCURVE",
"269 337 CURVE SMOOTH",
"396 461 LINE SMOOTH",
"408 472 OFFCURVE",
"416 484 OFFCURVE",
"416 496 CURVE SMOOTH",
"416 520 OFFCURVE",
"395 540 OFFCURVE",
"371 540 CURVE SMOOTH",
"359 540 OFFCURVE",
"347 532 OFFCURVE",
"334 518 CURVE SMOOTH",
"179 362 LINE SMOOTH",
"93 275 OFFCURVE",
"72 228 OFFCURVE",
"72 162 CURVE SMOOTH",
"72 51 OFFCURVE",
"165 -12 OFFCURVE",
"268 -12 CURVE SMOOTH",
"358 -12 OFFCURVE",
"412 4 OFFCURVE",
"466 35 CURVE SMOOTH"
);
}
);
width = 551;
}
);
note = uni0AEE;
unicode = 0AEE;
category = Letter;
},
{
glyphname = uni0AEF;
lastChange = "2018-11-05 20:02:30 +0000";
layers = (
{
layerId = "0717401B-DDB5-4983-85F2-A81AFE530D5E";
paths = (
{
closed = 1;
nodes = (
"447 72 OFFCURVE",
"393 63 OFFCURVE",
"343 63 CURVE SMOOTH",
"225 63 OFFCURVE",
"132 117 OFFCURVE",
"132 234 CURVE SMOOTH",
"132 344 OFFCURVE",
"185 406 OFFCURVE",
"341 461 CURVE SMOOTH",
"363 469 OFFCURVE",
"372 485 OFFCURVE",
"372 500 CURVE SMOOTH",
"372 520 OFFCURVE",
"357 540 OFFCURVE",
"339 540 CURVE SMOOTH",
"334 540 OFFCURVE",
"308 533 OFFCURVE",
"302 531 CURVE SMOOTH",
"154 480 OFFCURVE",
"48 390 OFFCURVE",
"48 243 CURVE SMOOTH",
"48 96 OFFCURVE",
"157 -12 OFFCURVE",
"346 -12 CURVE SMOOTH",
"409 -12 OFFCURVE",
"461 0 OFFCURVE",
"494 9 CURVE SMOOTH",
"507 13 OFFCURVE",
"517 23 OFFCURVE",
"517 43 CURVE SMOOTH",
"517 65 OFFCURVE",
"506 85 OFFCURVE",
"487 85 CURVE SMOOTH",
"482 85 OFFCURVE",
"472 84 OFFCURVE",
"466 81 CURVE SMOOTH"
);
},
{
closed = 1;
nodes = (
"219 273 LINE SMOOTH",
"206 270 OFFCURVE",
"199 255 OFFCURVE",
"199 240 CURVE SMOOTH",
"199 220 OFFCURVE",
"211 197 OFFCURVE",
"233 197 CURVE SMOOTH",
"236 197 OFFCURVE",
"239 197 OFFCURVE",
"242 198 CURVE SMOOTH",
"419 240 LINE SMOOTH",
"438 244 OFFCURVE",
"440 261 OFFCURVE",
"440 278 CURVE SMOOTH",
"440 296 OFFCURVE",
"430 314 OFFCURVE",
"411 314 CURVE SMOOTH",
"403 314 OFFCURVE",
"392 312 OFFCURVE",
"378 309 CURVE SMOOTH"
);
}
);
width = 551;
}
);
note = uni0AEF;
unicode = 0AEF;
category = Letter;
},
{
glyphname = uniA830;
lastChange = "2018-11-05 20:02:30 +0000";
layers = (
{
layerId = "0717401B-DDB5-4983-85F2-A81AFE530D5E";
paths = (
{
closed = 1;
nodes = (
"159 577 LINE SMOOTH",
"159 594 OFFCURVE",
"138 605 OFFCURVE",
"118 605 CURVE SMOOTH",
"98 605 OFFCURVE",
"78 594 OFFCURVE",
"78 577 CURVE SMOOTH",
"78 18 LINE SMOOTH",
"78 1 OFFCURVE",
"98 -10 OFFCURVE",
"118 -10 CURVE SMOOTH",
"138 -10 OFFCURVE",
"159 1 OFFCURVE",
"159 18 CURVE SMOOTH"
);
}
);
width = 237;
}
);
note = uniA830;
unicode = A830;
category = Letter;
},
{
glyphname = uniA831;
lastChange = "2018-11-05 20:02:30 +0000";
layers = (
{
layerId = "0717401B-DDB5-4983-85F2-A81AFE530D5E";
paths = (
{
closed = 1;
nodes = (
"159 577 LINE SMOOTH",
"159 594 OFFCURVE",
"138 605 OFFCURVE",
"118 605 CURVE SMOOTH",
"98 605 OFFCURVE",
"78 594 OFFCURVE",
"78 577 CURVE SMOOTH",
"78 18 LINE SMOOTH",
"78 1 OFFCURVE",
"98 -10 OFFCURVE",
"118 -10 CURVE SMOOTH",
"138 -10 OFFCURVE",
"159 1 OFFCURVE",
"159 18 CURVE SMOOTH"
);
},
{
closed = 1;
nodes = (
"359 577 LINE SMOOTH",
"359 594 OFFCURVE",
"338 605 OFFCURVE",
"318 605 CURVE SMOOTH",
"298 605 OFFCURVE",
"278 594 OFFCURVE",
"278 577 CURVE SMOOTH",
"278 18 LINE SMOOTH",
"278 1 OFFCURVE",
"298 -10 OFFCURVE",
"318 -10 CURVE SMOOTH",
"338 -10 OFFCURVE",
"359 1 OFFCURVE",
"359 18 CURVE SMOOTH"
);
}
);
width = 437;
}
);
note = uniA831;
unicode = A831;
category = Letter;
},
{
glyphname = uniA832;
lastChange = "2018-11-05 20:02:30 +0000";
layers = (
{
layerId = "0717401B-DDB5-4983-85F2-A81AFE530D5E";
paths = (
{
closed = 1;
nodes = (
"159 577 LINE SMOOTH",
"159 594 OFFCURVE",
"138 605 OFFCURVE",
"118 605 CURVE SMOOTH",
"98 605 OFFCURVE",
"78 594 OFFCURVE",
"78 577 CURVE SMOOTH",
"78 18 LINE SMOOTH",
"78 1 OFFCURVE",
"98 -10 OFFCURVE",
"118 -10 CURVE SMOOTH",
"138 -10 OFFCURVE",
"159 1 OFFCURVE",
"159 18 CURVE SMOOTH"
);
},
{
closed = 1;
nodes = (
"359 577 LINE SMOOTH",
"359 594 OFFCURVE",
"338 605 OFFCURVE",
"318 605 CURVE SMOOTH",
"298 605 OFFCURVE",
"278 594 OFFCURVE",
"278 577 CURVE SMOOTH",
"278 18 LINE SMOOTH",
"278 1 OFFCURVE",
"298 -10 OFFCURVE",
"318 -10 CURVE SMOOTH",
"338 -10 OFFCURVE",
"359 1 OFFCURVE",
"359 18 CURVE SMOOTH"
);
},
{
closed = 1;
nodes = (
"559 577 LINE SMOOTH",
"559 594 OFFCURVE",
"538 605 OFFCURVE",
"518 605 CURVE SMOOTH",
"498 605 OFFCURVE",
"478 594 OFFCURVE",
"478 577 CURVE SMOOTH",
"478 18 LINE SMOOTH",
"478 1 OFFCURVE",
"498 -10 OFFCURVE",
"518 -10 CURVE SMOOTH",
"538 -10 OFFCURVE",
"559 1 OFFCURVE",
"559 18 CURVE SMOOTH"
);
}
);
width = 637;
}
);
note = uniA832;
unicode = A832;
category = Letter;
},
{
glyphname = uniA833;
lastChange = "2018-11-05 20:02:30 +0000";
layers = (
{
layerId = "0717401B-DDB5-4983-85F2-A81AFE530D5E";
paths = (
{
closed = 1;
nodes = (
"565 523 LINE SMOOTH",
"578 526 OFFCURVE",
"584 544 OFFCURVE",
"584 559 CURVE SMOOTH",
"584 580 OFFCURVE",
"569 605 OFFCURVE",
"550 605 CURVE SMOOTH",
"548 605 OFFCURVE",
"544 604 OFFCURVE",
"540 603 CURVE SMOOTH",
"57 480 LINE SMOOTH",
"45 477 OFFCURVE",
"38 463 OFFCURVE",
"38 448 CURVE SMOOTH",
"38 427 OFFCURVE",
"53 398 OFFCURVE",
"72 398 CURVE SMOOTH",
"74 398 OFFCURVE",
"78 399 OFFCURVE",
"82 400 CURVE SMOOTH"
);
}
);
width = 622;
}
);
note = uniA833;
unicode = A833;
category = Letter;
},
{
glyphname = uniA834;
lastChange = "2018-11-05 20:02:30 +0000";
layers = (
{
layerId = "0717401B-DDB5-4983-85F2-A81AFE530D5E";
paths = (
{
closed = 1;
nodes = (
"565 523 LINE SMOOTH",
"578 526 OFFCURVE",
"584 544 OFFCURVE",
"584 559 CURVE SMOOTH",
"584 580 OFFCURVE",
"569 605 OFFCURVE",
"550 605 CURVE SMOOTH",
"548 605 OFFCURVE",
"544 604 OFFCURVE",
"540 603 CURVE SMOOTH",
"57 480 LINE SMOOTH",
"45 477 OFFCURVE",
"38 463 OFFCURVE",
"38 448 CURVE SMOOTH",
"38 427 OFFCURVE",
"53 398 OFFCURVE",
"72 398 CURVE SMOOTH",
"74 398 OFFCURVE",
"78 399 OFFCURVE",
"82 400 CURVE SMOOTH"
);
},
{
closed = 1;
nodes = (
"565 333 LINE SMOOTH",
"578 336 OFFCURVE",
"584 354 OFFCURVE",
"584 369 CURVE SMOOTH",
"584 390 OFFCURVE",
"569 415 OFFCURVE",
"550 415 CURVE SMOOTH",
"548 415 OFFCURVE",
"544 414 OFFCURVE",
"540 413 CURVE SMOOTH",
"57 290 LINE SMOOTH",
"45 287 OFFCURVE",
"38 273 OFFCURVE",
"38 258 CURVE SMOOTH",
"38 237 OFFCURVE",
"53 208 OFFCURVE",
"72 208 CURVE SMOOTH",
"74 208 OFFCURVE",
"78 209 OFFCURVE",
"82 210 CURVE SMOOTH"
);
}
);
width = 622;
}
);
note = uniA834;
unicode = A834;
category = Letter;
},
{
glyphname = uniA835;
lastChange = "2018-11-05 20:02:30 +0000";
layers = (
{
layerId = "0717401B-DDB5-4983-85F2-A81AFE530D5E";
paths = (
{
closed = 1;
nodes = (
"565 523 LINE SMOOTH",
"578 526 OFFCURVE",
"584 544 OFFCURVE",
"584 559 CURVE SMOOTH",
"584 580 OFFCURVE",
"569 605 OFFCURVE",
"550 605 CURVE SMOOTH",
"548 605 OFFCURVE",
"544 604 OFFCURVE",
"540 603 CURVE SMOOTH",
"57 480 LINE SMOOTH",
"45 477 OFFCURVE",
"38 463 OFFCURVE",
"38 448 CURVE SMOOTH",
"38 427 OFFCURVE",
"53 398 OFFCURVE",
"72 398 CURVE SMOOTH",
"74 398 OFFCURVE",
"78 399 OFFCURVE",
"82 400 CURVE SMOOTH"
);
},
{
closed = 1;
nodes = (
"565 123 LINE SMOOTH",
"578 126 OFFCURVE",
"584 144 OFFCURVE",
"584 159 CURVE SMOOTH",
"584 180 OFFCURVE",
"569 205 OFFCURVE",
"550 205 CURVE SMOOTH",
"548 205 OFFCURVE",
"544 204 OFFCURVE",
"540 203 CURVE SMOOTH",
"57 80 LINE SMOOTH",
"45 77 OFFCURVE",
"38 63 OFFCURVE",
"38 48 CURVE SMOOTH",
"38 27 OFFCURVE",
"53 -2 OFFCURVE",
"72 -2 CURVE SMOOTH",
"74 -2 OFFCURVE",
"78 -1 OFFCURVE",
"82 0 CURVE SMOOTH"
);
},
{
closed = 1;
nodes = (
"565 323 LINE SMOOTH",
"578 326 OFFCURVE",
"584 344 OFFCURVE",
"584 359 CURVE SMOOTH",
"584 380 OFFCURVE",
"569 405 OFFCURVE",
"550 405 CURVE SMOOTH",
"548 405 OFFCURVE",
"544 404 OFFCURVE",
"540 403 CURVE SMOOTH",
"57 280 LINE SMOOTH",
"45 277 OFFCURVE",
"38 263 OFFCURVE",
"38 248 CURVE SMOOTH",
"38 227 OFFCURVE",
"53 198 OFFCURVE",
"72 198 CURVE SMOOTH",
"74 198 OFFCURVE",
"78 199 OFFCURVE",
"82 200 CURVE SMOOTH"
);
}
);
width = 622;
}
);
note = uniA835;
unicode = A835;
category = Letter;
},
{
glyphname = uniA836;
lastChange = "2018-11-05 20:02:30 +0000";
layers = (
{
layerId = "0717401B-DDB5-4983-85F2-A81AFE530D5E";
paths = (
{
closed = 1;
nodes = (
"327 167 OFFCURVE",
"393 232 OFFCURVE",
"393 321 CURVE SMOOTH",
"393 408 OFFCURVE",
"328 473 OFFCURVE",
"230 473 CURVE SMOOTH",
"133 473 OFFCURVE",
"67 406 OFFCURVE",
"67 321 CURVE SMOOTH",
"67 229 OFFCURVE",
"135 167 OFFCURVE",
"230 167 CURVE SMOOTH"
);
},
{
closed = 1;
nodes = (
"282 404 OFFCURVE",
"317 369 OFFCURVE",
"317 321 CURVE SMOOTH",
"317 269 OFFCURVE",
"283 237 OFFCURVE",
"230 237 CURVE SMOOTH",
"177 237 OFFCURVE",
"143 269 OFFCURVE",
"143 321 CURVE SMOOTH",
"143 369 OFFCURVE",
"175 404 OFFCURVE",
"230 404 CURVE SMOOTH"
);
}
);
width = 460;
}
);
note = uniA836;
unicode = A836;
category = Letter;
},
{
glyphname = uniA837;
lastChange = "2018-11-05 20:02:30 +0000";
layers = (
{
layerId = "0717401B-DDB5-4983-85F2-A81AFE530D5E";
paths = (
{
closed = 1;
nodes = (
"317 424 OFFCURVE",
"391 480 OFFCURVE",
"433 513 CURVE SMOOTH",
"468 541 LINE SMOOTH",
"476 547 OFFCURVE",
"480 556 OFFCURVE",
"480 564 CURVE SMOOTH",
"480 584 OFFCURVE",
"460 605 OFFCURVE",
"439 605 CURVE SMOOTH",
"433 605 OFFCURVE",
"427 603 OFFCURVE",
"420 598 CURVE SMOOTH",
"158 395 LINE SMOOTH",
"86 339 OFFCURVE",
"57 301 OFFCURVE",
"57 240 CURVE SMOOTH",
"57 151 OFFCURVE",
"124 86 OFFCURVE",
"221 86 CURVE SMOOTH",
"317 86 OFFCURVE",
"383 152 OFFCURVE",
"383 240 CURVE SMOOTH",
"383 315 OFFCURVE",
"338 371 OFFCURVE",
"262 387 CURVE"
);
},
{
closed = 1;
nodes = (
"272 323 OFFCURVE",
"307 288 OFFCURVE",
"307 240 CURVE SMOOTH",
"307 189 OFFCURVE",
"273 156 OFFCURVE",
"220 156 CURVE SMOOTH",
"167 156 OFFCURVE",
"133 189 OFFCURVE",
"133 240 CURVE SMOOTH",
"133 289 OFFCURVE",
"167 323 OFFCURVE",
"220 323 CURVE SMOOTH"
);
}
);
width = 509;
}
);
note = uniA837;
unicode = A837;
category = Letter;
},
{
glyphname = uniA838;
lastChange = "2018-11-05 20:02:30 +0000";
layers = (
{
layerId = "0717401B-DDB5-4983-85F2-A81AFE530D5E";
paths = (
{
closed = 1;
nodes = (
"-110 -186 OFFCURVE",
"-84 -188 OFFCURVE",
"-61 -188 CURVE SMOOTH",
"147 -188 OFFCURVE",
"246 -91 OFFCURVE",
"246 177 CURVE SMOOTH",
"246 242 OFFCURVE",
"240 317 OFFCURVE",
"229 400 CURVE SMOOTH",
"221 461 OFFCURVE",
"211 518 OFFCURVE",
"195 572 CURVE SMOOTH",
"188 597 OFFCURVE",
"174 605 OFFCURVE",
"152 605 CURVE SMOOTH",
"127 605 OFFCURVE",
"113 591 OFFCURVE",
"113 572 CURVE SMOOTH",
"113 566 OFFCURVE",
"115 557 OFFCURVE",
"117 551 CURVE SMOOTH",
"143 463 OFFCURVE",
"164 289 OFFCURVE",
"164 180 CURVE SMOOTH",
"164 -38 OFFCURVE",
"98 -115 OFFCURVE",
"-63 -115 CURVE SMOOTH",
"-92 -115 OFFCURVE",
"-128 -106 OFFCURVE",
"-139 -106 CURVE SMOOTH",
"-153 -106 OFFCURVE",
"-162 -126 OFFCURVE",
"-162 -145 CURVE SMOOTH",
"-162 -162 OFFCURVE",
"-155 -178 OFFCURVE",
"-137 -181 CURVE SMOOTH"
);
}
);
width = 307;
}
);
note = uniA838;
unicode = A838;
category = Letter;
},
{
glyphname = uniA839;
lastChange = "2018-11-05 20:02:30 +0000";
layers = (
{
layerId = "0717401B-DDB5-4983-85F2-A81AFE530D5E";
paths = (
{
closed = 1;
nodes = (
"-124 -240 OFFCURVE",
"-112 -240 OFFCURVE",
"-100 -240 CURVE SMOOTH",
"136 -240 OFFCURVE",
"255 -143 OFFCURVE",
"255 28 CURVE SMOOTH",
"255 100 OFFCURVE",
"234 170 OFFCURVE",
"200 245 CURVE SMOOTH",
"175 301 OFFCURVE",
"146 367 OFFCURVE",
"146 418 CURVE SMOOTH",
"146 474 OFFCURVE",
"185 512 OFFCURVE",
"252 533 CURVE SMOOTH",
"263 537 OFFCURVE",
"268 547 OFFCURVE",
"268 557 CURVE SMOOTH",
"268 578 OFFCURVE",
"249 605 OFFCURVE",
"231 605 CURVE SMOOTH",
"223 605 OFFCURVE",
"212 601 OFFCURVE",
"200 595 CURVE SMOOTH",
"125 558 OFFCURVE",
"65 509 OFFCURVE",
"65 418 CURVE SMOOTH",
"65 359 OFFCURVE",
"83 305 OFFCURVE",
"119 225 CURVE SMOOTH",
"152 152 OFFCURVE",
"174 91 OFFCURVE",
"174 27 CURVE SMOOTH",
"174 -101 OFFCURVE",
"80 -165 OFFCURVE",
"-104 -165 CURVE SMOOTH",
"-115 -165 OFFCURVE",
"-128 -164 OFFCURVE",
"-133 -164 CURVE SMOOTH",
"-150 -164 OFFCURVE",
"-159 -181 OFFCURVE",
"-159 -201 CURVE SMOOTH",
"-159 -221 OFFCURVE",
"-151 -238 OFFCURVE",
"-136 -239 CURVE SMOOTH"
);
}
);
width = 337;
}
);
note = uniA839;
unicode = A839;
category = Letter;
},
{
glyphname = Anusvara;
lastChange = "2018-11-05 20:04:51 +0000";
layers = (
{
layerId = "0717401B-DDB5-4983-85F2-A81AFE530D5E";
paths = (
{
closed = 1;
nodes = (
"-259 651 OFFCURVE",
"-223 620 OFFCURVE",
"-178 620 CURVE SMOOTH",
"-133 620 OFFCURVE",
"-96 651 OFFCURVE",
"-96 690 CURVE SMOOTH",
"-96 729 OFFCURVE",
"-133 761 OFFCURVE",
"-178 761 CURVE SMOOTH",
"-223 761 OFFCURVE",
"-259 729 OFFCURVE",
"-259 690 CURVE SMOOTH"
);
}
);
width = 0;
}
);
note = u11234;
unicode = 11234;
category = Mark;
},
{
glyphname = Nukta;
lastChange = "2018-11-05 20:04:51 +0000";
layers = (
{
layerId = "0717401B-DDB5-4983-85F2-A81AFE530D5E";
paths = (
{
closed = 1;
nodes = (
"-145 648 OFFCURVE",
"-113 620 OFFCURVE",
"-73 620 CURVE SMOOTH",
"-33 620 OFFCURVE",
"0 648 OFFCURVE",
"0 682 CURVE SMOOTH",
"0 717 OFFCURVE",
"-33 745 OFFCURVE",
"-73 745 CURVE SMOOTH",
"-113 745 OFFCURVE",
"-145 717 OFFCURVE",
"-145 682 CURVE SMOOTH"
);
},
{
closed = 1;
nodes = (
"-345 648 OFFCURVE",
"-313 620 OFFCURVE",
"-273 620 CURVE SMOOTH",
"-233 620 OFFCURVE",
"-200 648 OFFCURVE",
"-200 682 CURVE SMOOTH",
"-200 717 OFFCURVE",
"-233 745 OFFCURVE",
"-273 745 CURVE SMOOTH",
"-313 745 OFFCURVE",
"-345 717 OFFCURVE",
"-345 682 CURVE SMOOTH"
);
},
{
closed = 1;
nodes = (
"-245 787 OFFCURVE",
"-213 759 OFFCURVE",
"-173 759 CURVE SMOOTH",
"-133 759 OFFCURVE",
"-100 787 OFFCURVE",
"-100 821 CURVE SMOOTH",
"-100 856 OFFCURVE",
"-133 884 OFFCURVE",
"-173 884 CURVE SMOOTH",
"-213 884 OFFCURVE",
"-245 856 OFFCURVE",
"-245 821 CURVE SMOOTH"
);
}
);
width = 0;
}
);
note = u11236;
unicode = 11236;
category = Mark;
},
{
glyphname = Shadda;
lastChange = "2018-11-05 20:04:51 +0000";
layers = (
{
layerId = "0717401B-DDB5-4983-85F2-A81AFE530D5E";
paths = (
{
closed = 1;
nodes = (
"-50 782 LINE SMOOTH",
"-50 796 OFFCURVE",
"-68 808 OFFCURVE",
"-86 808 CURVE SMOOTH",
"-105 808 OFFCURVE",
"-120 796 OFFCURVE",
"-120 782 CURVE SMOOTH",
"-120 737 LINE SMOOTH",
"-120 706 OFFCURVE",
"-131 685 OFFCURVE",
"-153 685 CURVE SMOOTH",
"-175 685 OFFCURVE",
"-188 706 OFFCURVE",
"-188 734 CURVE SMOOTH",
"-188 782 LINE SMOOTH",
"-188 795 OFFCURVE",
"-203 808 OFFCURVE",
"-222 808 CURVE SMOOTH",
"-239 808 OFFCURVE",
"-258 799 OFFCURVE",
"-258 782 CURVE SMOOTH",
"-258 737 LINE SMOOTH",
"-258 704 OFFCURVE",
"-269 685 OFFCURVE",
"-289 685 CURVE SMOOTH",
"-314 685 OFFCURVE",
"-326 707 OFFCURVE",
"-326 737 CURVE SMOOTH",
"-326 782 LINE SMOOTH",
"-326 796 OFFCURVE",
"-341 808 OFFCURVE",
"-360 808 CURVE SMOOTH",
"-378 808 OFFCURVE",
"-396 796 OFFCURVE",
"-396 782 CURVE SMOOTH",
"-396 744 LINE SMOOTH",
"-396 667 OFFCURVE",
"-364 620 OFFCURVE",
"-298 620 CURVE SMOOTH",
"-263 620 OFFCURVE",
"-239 632 OFFCURVE",
"-223 652 CURVE",
"-206 632 OFFCURVE",
"-182 620 OFFCURVE",
"-147 620 CURVE SMOOTH",
"-79 620 OFFCURVE",
"-50 674 OFFCURVE",
"-50 744 CURVE SMOOTH"
);
}
);
width = 0;
}
);
note = u11237;
unicode = 11237;
category = Mark;
},
{
glyphname = u11238;
lastChange = "2018-11-05 20:02:30 +0000";
layers = (
{
layerId = "0717401B-DDB5-4983-85F2-A81AFE530D5E";
paths = (
{
closed = 1;
nodes = (
"306 83 OFFCURVE",
"286 78 OFFCURVE",
"268 78 CURVE SMOOTH",
"233 78 OFFCURVE",
"214 101 OFFCURVE",
"214 168 CURVE SMOOTH",
"214 233 OFFCURVE",
"224 280 OFFCURVE",
"235 329 CURVE SMOOTH",
"245 372 OFFCURVE",
"254 413 OFFCURVE",
"254 463 CURVE SMOOTH",
"254 557 OFFCURVE",
"215 624 OFFCURVE",
"121 624 CURVE SMOOTH",
"98 624 OFFCURVE",
"69 622 OFFCURVE",
"48 611 CURVE SMOOTH",
"42 608 OFFCURVE",
"40 600 OFFCURVE",
"40 591 CURVE SMOOTH",
"40 568 OFFCURVE",
"50 539 OFFCURVE",
"70 539 CURVE SMOOTH",
"79 539 OFFCURVE",
"99 544 OFFCURVE",
"117 544 CURVE SMOOTH",
"152 544 OFFCURVE",
"171 521 OFFCURVE",
"171 454 CURVE SMOOTH",
"171 404 OFFCURVE",
"162 363 OFFCURVE",
"152 320 CURVE SMOOTH",
"141 272 OFFCURVE",
"131 224 OFFCURVE",
"131 159 CURVE SMOOTH",
"131 65 OFFCURVE",
"170 -2 OFFCURVE",
"264 -2 CURVE SMOOTH",
"287 -2 OFFCURVE",
"316 0 OFFCURVE",
"337 11 CURVE SMOOTH",
"343 14 OFFCURVE",
"345 22 OFFCURVE",
"345 31 CURVE SMOOTH",
"345 54 OFFCURVE",
"335 83 OFFCURVE",
"315 83 CURVE SMOOTH"
);
}
);
width = 385;
}
);
note = u11238;
unicode = 11238;
},
{
glyphname = u1123A;
lastChange = "2018-11-05 20:02:30 +0000";
layers = (
{
layerId = "0717401B-DDB5-4983-85F2-A81AFE530D5E";
paths = (
{
closed = 1;
nodes = (
"48 384 OFFCURVE",
"80 353 OFFCURVE",
"121 353 CURVE SMOOTH",
"162 353 OFFCURVE",
"195 384 OFFCURVE",
"195 422 CURVE SMOOTH",
"195 460 OFFCURVE",
"162 492 OFFCURVE",
"121 492 CURVE SMOOTH",
"80 492 OFFCURVE",
"48 460 OFFCURVE",
"48 422 CURVE SMOOTH"
);
},
{
closed = 1;
nodes = (
"48 88 OFFCURVE",
"80 57 OFFCURVE",
"121 57 CURVE SMOOTH",
"162 57 OFFCURVE",
"195 88 OFFCURVE",
"195 126 CURVE SMOOTH",
"195 164 OFFCURVE",
"162 196 OFFCURVE",
"121 196 CURVE SMOOTH",
"80 196 OFFCURVE",
"48 164 OFFCURVE",
"48 126 CURVE SMOOTH"
);
}
);
width = 246;
}
);
note = u1123A;
unicode = 1123A;
},
{
glyphname = u1123B;
lastChange = "2018-11-05 20:02:30 +0000";
layers = (
{
layerId = "0717401B-DDB5-4983-85F2-A81AFE530D5E";
paths = (
{
closed = 1;
nodes = (
"236 305 LINE SMOOTH",
"164 305 OFFCURVE",
"145 336 OFFCURVE",
"112 388 CURVE SMOOTH",
"109 393 OFFCURVE",
"104 400 OFFCURVE",
"87 400 CURVE SMOOTH",
"66 400 OFFCURVE",
"40 378 OFFCURVE",
"40 357 CURVE SMOOTH",
"40 350 OFFCURVE",
"42 347 OFFCURVE",
"44 344 CURVE SMOOTH",
"60 314 OFFCURVE",
"105 230 OFFCURVE",
"235 230 CURVE SMOOTH",
"898 230 LINE SMOOTH",
"922 230 OFFCURVE",
"934 257 OFFCURVE",
"934 277 CURVE SMOOTH",
"934 294 OFFCURVE",
"918 305 OFFCURVE",
"905 305 CURVE SMOOTH"
);
}
);
width = 974;
}
);
note = u1123B;
unicode = 1123B;
},
{
glyphname = u1123C;
lastChange = "2018-11-05 20:02:30 +0000";
layers = (
{
layerId = "0717401B-DDB5-4983-85F2-A81AFE530D5E";
paths = (
{
closed = 1;
nodes = (
"236 305 LINE SMOOTH",
"164 305 OFFCURVE",
"145 336 OFFCURVE",
"112 388 CURVE SMOOTH",
"109 393 OFFCURVE",
"104 400 OFFCURVE",
"87 400 CURVE SMOOTH",
"66 400 OFFCURVE",
"40 378 OFFCURVE",
"40 357 CURVE SMOOTH",
"40 350 OFFCURVE",
"42 347 OFFCURVE",
"44 344 CURVE SMOOTH",
"60 314 OFFCURVE",
"105 230 OFFCURVE",
"235 230 CURVE SMOOTH",
"898 230 LINE SMOOTH",
"922 230 OFFCURVE",
"934 257 OFFCURVE",
"934 277 CURVE SMOOTH",
"934 294 OFFCURVE",
"918 305 OFFCURVE",
"905 305 CURVE SMOOTH"
);
},
{
closed = 1;
nodes = (
"236 75 LINE SMOOTH",
"164 75 OFFCURVE",
"145 106 OFFCURVE",
"112 158 CURVE SMOOTH",
"109 163 OFFCURVE",
"104 170 OFFCURVE",
"87 170 CURVE SMOOTH",
"66 170 OFFCURVE",
"40 148 OFFCURVE",
"40 127 CURVE SMOOTH",
"40 120 OFFCURVE",
"42 117 OFFCURVE",
"44 114 CURVE SMOOTH",
"60 84 OFFCURVE",
"105 0 OFFCURVE",
"235 0 CURVE SMOOTH",
"898 0 LINE SMOOTH",
"922 0 OFFCURVE",
"934 27 OFFCURVE",
"934 47 CURVE SMOOTH",
"934 64 OFFCURVE",
"918 75 OFFCURVE",
"905 75 CURVE SMOOTH"
);
}
);
width = 974;
}
);
note = u1123C;
unicode = 1123C;
},
{
glyphname = u1123D;
lastChange = "2018-11-05 20:02:30 +0000";
layers = (
{
layerId = "0717401B-DDB5-4983-85F2-A81AFE530D5E";
paths = (
{
closed = 1;
nodes = (
"102 305 OFFCURVE",
"40 230 OFFCURVE",
"40 143 CURVE SMOOTH",
"40 50 OFFCURVE",
"106 -12 OFFCURVE",
"204 -12 CURVE SMOOTH",
"310 -12 OFFCURVE",
"376 61 OFFCURVE",
"376 150 CURVE SMOOTH",
"376 243 OFFCURVE",
"299 305 OFFCURVE",
"211 305 CURVE SMOOTH"
);
},
{
closed = 1;
nodes = (
"149 61 OFFCURVE",
"118 93 OFFCURVE",
"118 142 CURVE SMOOTH",
"118 190 OFFCURVE",
"152 232 OFFCURVE",
"211 232 CURVE SMOOTH",
"265 232 OFFCURVE",
"295 196 OFFCURVE",
"295 148 CURVE SMOOTH",
"295 94 OFFCURVE",
"247 61 OFFCURVE",
"204 61 CURVE SMOOTH"
);
}
);
width = 416;
}
);
note = u1123D;
unicode = 1123D;
},
{
glyphname = u1123E;
lastChange = "2018-11-05 20:04:51 +0000";
layers = (
{
layerId = "0717401B-DDB5-4983-85F2-A81AFE530D5E";
paths = (
{
closed = 1;
nodes = (
"-277 786 OFFCURVE",
"-252 809 OFFCURVE",
"-219 809 CURVE SMOOTH",
"-183 809 OFFCURVE",
"-157 783 OFFCURVE",
"-157 751 CURVE SMOOTH",
"-157 713 OFFCURVE",
"-181 691 OFFCURVE",
"-214 684 CURVE SMOOTH",
"-224 682 OFFCURVE",
"-228 672 OFFCURVE",
"-228 661 CURVE SMOOTH",
"-228 642 OFFCURVE",
"-216 620 OFFCURVE",
"-199 620 CURVE SMOOTH",
"-191 620 OFFCURVE",
"-179 624 OFFCURVE",
"-170 628 CURVE SMOOTH",
"-121 648 OFFCURVE",
"-87 693 OFFCURVE",
"-87 747 CURVE SMOOTH",
"-87 819 OFFCURVE",
"-142 877 OFFCURVE",
"-220 877 CURVE SMOOTH",
"-286 877 OFFCURVE",
"-339 828 OFFCURVE",
"-348 771 CURVE SMOOTH",
"-349 767 OFFCURVE",
"-350 762 OFFCURVE",
"-350 761 CURVE SMOOTH",
"-350 747 OFFCURVE",
"-329 740 OFFCURVE",
"-309 740 CURVE SMOOTH",
"-294 740 OFFCURVE",
"-281 743 OFFCURVE",
"-280 753 CURVE SMOOTH"
);
}
);
width = 0;
}
);
note = u1123E;
unicode = 1123E;
category = Mark;
},
{
glyphname = KA.alt;
lastChange = "2018-11-05 20:04:34 +0000";
layers = (
{
layerId = "0717401B-DDB5-4983-85F2-A81AFE530D5E";
paths = (
{
closed = 1;
nodes = (
"195 192 LINE SMOOTH",
"314 424 OFFCURVE",
"391 480 OFFCURVE",
"463 480 CURVE SMOOTH",
"512 480 OFFCURVE",
"520 440 OFFCURVE",
"520 417 CURVE SMOOTH",
"520 363 OFFCURVE",
"471 263 OFFCURVE",
"430 180 CURVE SMOOTH",
"357 31 LINE SMOOTH",
"355 27 OFFCURVE",
"354 24 OFFCURVE",
"354 20 CURVE SMOOTH",
"354 2 OFFCURVE",
"376 -12 OFFCURVE",
"398 -12 CURVE SMOOTH",
"413 -12 OFFCURVE",
"427 -6 OFFCURVE",
"435 10 CURVE SMOOTH",
"453 46 LINE SMOOTH",
"506 152 OFFCURVE",
"592 181 OFFCURVE",
"639 181 CURVE SMOOTH",
"667 181 OFFCURVE",
"695 178 OFFCURVE",
"725 173 CURVE",
"737 247 LINE",
"702 253 OFFCURVE",
"670 256 OFFCURVE",
"638 256 CURVE SMOOTH",
"607 256 OFFCURVE",
"576 250 OFFCURVE",
"545 238 CURVE",
"581 315 OFFCURVE",
"603 373 OFFCURVE",
"603 424 CURVE SMOOTH",
"603 499 OFFCURVE",
"571 560 OFFCURVE",
"473 560 CURVE SMOOTH",
"393 560 OFFCURVE",
"323 524 OFFCURVE",
"249 430 CURVE",
"225 529 OFFCURVE",
"118 560 OFFCURVE",
"52 560 CURVE SMOOTH",
"28 560 OFFCURVE",
"20 536 OFFCURVE",
"20 517 CURVE SMOOTH",
"20 505 OFFCURVE",
"22 492 OFFCURVE",
"33 487 CURVE",
"111 480 OFFCURVE",
"176 467 OFFCURVE",
"176 380 CURVE SMOOTH",
"176 328 OFFCURVE",
"158 292 OFFCURVE",
"128 232 CURVE SMOOTH",
"28 32 LINE SMOOTH",
"26 29 OFFCURVE",
"25 24 OFFCURVE",
"25 21 CURVE SMOOTH",
"25 4 OFFCURVE",
"46 -12 OFFCURVE",
"68 -12 CURVE SMOOTH",
"81 -12 OFFCURVE",
"95 -6 OFFCURVE",
"103 10 CURVE SMOOTH"
);
}
);
width = 637;
}
);
note = KA.alt;
category = Letter;
},
{
glyphname = II.alt;
lastChange = "2018-11-05 20:04:25 +0000";
layers = (
{
layerId = "0717401B-DDB5-4983-85F2-A81AFE530D5E";
paths = (
{
closed = 1;
nodes = (
"351 255 LINE SMOOTH",
"354 294 OFFCURVE",
"358 346 OFFCURVE",
"358 385 CURVE SMOOTH",
"358 478 OFFCURVE",
"340 560 OFFCURVE",
"226 560 CURVE SMOOTH",
"113 560 OFFCURVE",
"54 433 OFFCURVE",
"40 304 CURVE SMOOTH",
"15 67 LINE SMOOTH",
"13 52 OFFCURVE",
"10 26 OFFCURVE",
"10 21 CURVE SMOOTH",
"10 4 OFFCURVE",
"25 -12 OFFCURVE",
"47 -12 CURVE SMOOTH",
"64 -12 OFFCURVE",
"86 -7 OFFCURVE",
"88 10 CURVE SMOOTH",
"114 257 LINE SMOOTH",
"133 434 OFFCURVE",
"177 480 OFFCURVE",
"222 480 CURVE SMOOTH",
"272 480 OFFCURVE",
"276 436 OFFCURVE",
"276 374 CURVE SMOOTH",
"276 342 OFFCURVE",
"274 306 OFFCURVE",
"271 269 CURVE SMOOTH",
"252 48 LINE SMOOTH",
"251 33 OFFCURVE",
"250 18 OFFCURVE",
"250 -12 CURVE SMOOTH",
"250 -68 OFFCURVE",
"272 -112 OFFCURVE",
"314 -140 CURVE SMOOTH",
"323 -146 OFFCURVE",
"337 -152 OFFCURVE",
"346 -152 CURVE SMOOTH",
"369 -152 OFFCURVE",
"384 -125 OFFCURVE",
"384 -105 CURVE SMOOTH",
"384 -97 OFFCURVE",
"381 -90 OFFCURVE",
"373 -86 CURVE SMOOTH",
"341 -69 OFFCURVE",
"333 -44 OFFCURVE",
"333 -6 CURVE SMOOTH",
"333 11 OFFCURVE",
"334 30 OFFCURVE",
"336 52 CURVE SMOOTH"
);
}
);
width = 424;
}
);
note = II.alt;
category = Letter;
},
{
glyphname = KU;
lastChange = "2018-11-05 20:04:34 +0000";
layers = (
{
layerId = "0717401B-DDB5-4983-85F2-A81AFE530D5E";
paths = (
{
closed = 1;
nodes = (
"341 435 LINE",
"314 521 OFFCURVE",
"272 556 OFFCURVE",
"220 556 CURVE SMOOTH",
"211 556 OFFCURVE",
"199 556 OFFCURVE",
"185 556 CURVE SMOOTH",
"170 556 OFFCURVE",
"153 557 OFFCURVE",
"139 560 CURVE SMOOTH",
"110 566 OFFCURVE",
"105 584 OFFCURVE",
"101 601 CURVE SMOOTH",
"98 615 OFFCURVE",
"93 627 OFFCURVE",
"74 627 CURVE SMOOTH",
"54 627 OFFCURVE",
"30 609 OFFCURVE",
"30 580 CURVE SMOOTH",
"30 538 OFFCURVE",
"53 476 OFFCURVE",
"166 476 CURVE SMOOTH",
"247 476 OFFCURVE",
"260 462 OFFCURVE",
"297 402 CURVE"
);
},
{
closed = 1;
nodes = (
"505 203 OFFCURVE",
"631 333 OFFCURVE",
"631 422 CURVE SMOOTH",
"631 484 OFFCURVE",
"583 558 OFFCURVE",
"485 558 CURVE SMOOTH",
"425 558 OFFCURVE",
"357 524 OFFCURVE",
"281 461 CURVE SMOOTH",
"197 392 OFFCURVE",
"111 305 OFFCURVE",
"68 243 CURVE SMOOTH",
"65 239 OFFCURVE",
"64 235 OFFCURVE",
"64 227 CURVE SMOOTH",
"64 210 OFFCURVE",
"93 184 OFFCURVE",
"120 184 CURVE SMOOTH",
"133 184 OFFCURVE",
"144 189 OFFCURVE",
"158 206 CURVE SMOOTH",
"221 284 OFFCURVE",
"281 346 OFFCURVE",
"331 390 CURVE SMOOTH",
"407 457 OFFCURVE",
"467 481 OFFCURVE",
"506 481 CURVE SMOOTH",
"538 481 OFFCURVE",
"553 460 OFFCURVE",
"553 438 CURVE SMOOTH",
"553 370 OFFCURVE",
"429 246 OFFCURVE",
"305 141 CURVE SMOOTH",
"300 137 OFFCURVE",
"296 132 OFFCURVE",
"296 122 CURVE SMOOTH",
"296 104 OFFCURVE",
"321 79 OFFCURVE",
"353 79 CURVE SMOOTH",
"381 79 OFFCURVE",
"401 99 OFFCURVE",
"437 135 CURVE SMOOTH"
);
},
{
closed = 1;
nodes = (
"39 -40 OFFCURVE",
"181 -158 OFFCURVE",
"394 -158 CURVE SMOOTH",
"591 -158 OFFCURVE",
"716 -67 OFFCURVE",
"716 100 CURVE SMOOTH",
"716 208 OFFCURVE",
"649 283 OFFCURVE",
"556 283 CURVE SMOOTH",
"531 283 OFFCURVE",
"520 279 OFFCURVE",
"492 269 CURVE",
"471 206 LINE",
"482 211 OFFCURVE",
"511 213 OFFCURVE",
"524 213 CURVE SMOOTH",
"595 213 OFFCURVE",
"641 187 OFFCURVE",
"641 111 CURVE SMOOTH",
"641 -14 OFFCURVE",
"525 -76 OFFCURVE",
"385 -76 CURVE SMOOTH",
"246 -76 OFFCURVE",
"145 -18 OFFCURVE",
"106 53 CURVE SMOOTH",
"82 97 OFFCURVE",
"81 115 OFFCURVE",
"64 115 CURVE SMOOTH",
"46 115 OFFCURVE",
"39 83 OFFCURVE",
"39 54 CURVE SMOOTH"
);
}
);
width = 771;
}
);
note = KU;
category = Letter;
},
{
glyphname = GHU;
lastChange = "2018-11-05 20:04:34 +0000";
layers = (
{
layerId = "0717401B-DDB5-4983-85F2-A81AFE530D5E";
paths = (
{
closed = 1;
nodes = (
"622 459 OFFCURVE",
"632 407 OFFCURVE",
"632 328 CURVE SMOOTH",
"632 80 OFFCURVE",
"520 -86 OFFCURVE",
"300 -86 CURVE SMOOTH",
"176 -86 OFFCURVE",
"94 -38 OFFCURVE",
"63 0 CURVE SMOOTH",
"49 17 OFFCURVE",
"43 28 OFFCURVE",
"32 28 CURVE SMOOTH",
"14 28 OFFCURVE",
"10 -6 OFFCURVE",
"10 -29 CURVE SMOOTH",
"10 -96 OFFCURVE",
"146 -170 OFFCURVE",
"307 -170 CURVE SMOOTH",
"591 -170 OFFCURVE",
"717 33 OFFCURVE",
"717 322 CURVE SMOOTH",
"717 455 OFFCURVE",
"676 555 OFFCURVE",
"589 555 CURVE SMOOTH",
"520 555 OFFCURVE",
"478 481 OFFCURVE",
"438 330 CURVE SMOOTH",
"388 141 OFFCURVE",
"348 104 OFFCURVE",
"263 104 CURVE SMOOTH",
"220 104 OFFCURVE",
"176 129 OFFCURVE",
"176 191 CURVE SMOOTH",
"176 276 OFFCURVE",
"251 290 OFFCURVE",
"318 296 CURVE SMOOTH",
"332 297 OFFCURVE",
"337 313 OFFCURVE",
"337 328 CURVE SMOOTH",
"337 350 OFFCURVE",
"326 374 OFFCURVE",
"308 376 CURVE SMOOTH",
"283 379 OFFCURVE",
"248 365 OFFCURVE",
"215 365 CURVE SMOOTH",
"172 365 OFFCURVE",
"138 400 OFFCURVE",
"138 446 CURVE SMOOTH",
"138 502 OFFCURVE",
"172 526 OFFCURVE",
"218 546 CURVE",
"375 546 LINE SMOOTH",
"391 546 OFFCURVE",
"398 557 OFFCURVE",
"398 566 CURVE SMOOTH",
"398 591 OFFCURVE",
"377 621 OFFCURVE",
"350 621 CURVE SMOOTH",
"33 621 LINE SMOOTH",
"16 621 OFFCURVE",
"5 599 OFFCURVE",
"5 579 CURVE SMOOTH",
"5 562 OFFCURVE",
"13 546 OFFCURVE",
"31 546 CURVE SMOOTH",
"130 546 LINE",
"109 570 LINE",
"80 543 OFFCURVE",
"55 515 OFFCURVE",
"55 454 CURVE SMOOTH",
"55 387 OFFCURVE",
"100 328 OFFCURVE",
"171 307 CURVE",
"172 330 LINE",
"117 298 OFFCURVE",
"86 253 OFFCURVE",
"86 186 CURVE SMOOTH",
"86 83 OFFCURVE",
"175 19 OFFCURVE",
"279 19 CURVE SMOOTH",
"407 19 OFFCURVE",
"465 101 OFFCURVE",
"513 276 CURVE SMOOTH",
"553 421 OFFCURVE",
"576 473 OFFCURVE",
"619 482 CURVE",
"595 494 LINE"
);
}
);
width = 787;
}
);
note = GHU;
category = Letter;
},
{
glyphname = CU;
lastChange = "2018-11-05 20:04:34 +0000";
layers = (
{
layerId = "0717401B-DDB5-4983-85F2-A81AFE530D5E";
paths = (
{
closed = 1;
nodes = (
"264 357 LINE",
"528 357 LINE",
"528 432 LINE",
"170 432 LINE",
"162 430 OFFCURVE",
"147 412 OFFCURVE",
"147 393 CURVE SMOOTH",
"147 378 OFFCURVE",
"156 370 OFFCURVE",
"185 361 CURVE SMOOTH",
"240 344 OFFCURVE",
"306 303 OFFCURVE",
"306 233 CURVE SMOOTH",
"306 177 OFFCURVE",
"272 148 OFFCURVE",
"218 148 CURVE SMOOTH",
"148 148 OFFCURVE",
"102 201 OFFCURVE",
"81 239 CURVE SMOOTH",
"71 258 OFFCURVE",
"61 276 OFFCURVE",
"49 276 CURVE SMOOTH",
"28 276 OFFCURVE",
"20 231 OFFCURVE",
"20 209 CURVE SMOOTH",
"20 153 OFFCURVE",
"112 64 OFFCURVE",
"222 64 CURVE SMOOTH",
"331 64 OFFCURVE",
"390 118 OFFCURVE",
"390 212 CURVE SMOOTH",
"390 301 OFFCURVE",
"335 355 OFFCURVE",
"276 384 CURVE"
);
},
{
closed = 1;
nodes = (
"525 61 OFFCURVE",
"455 -66 OFFCURVE",
"265 -66 CURVE SMOOTH",
"171 -66 OFFCURVE",
"107 -18 OFFCURVE",
"78 20 CURVE SMOOTH",
"65 37 OFFCURVE",
"58 48 OFFCURVE",
"47 48 CURVE SMOOTH",
"29 48 OFFCURVE",
"25 14 OFFCURVE",
"25 -9 CURVE SMOOTH",
"25 -76 OFFCURVE",
"142 -150 OFFCURVE",
"273 -150 CURVE SMOOTH",
"527 -150 OFFCURVE",
"612 14 OFFCURVE",
"612 248 CURVE SMOOTH",
"612 352 OFFCURVE",
"598 435 OFFCURVE",
"578 496 CURVE SMOOTH",
"563 542 OFFCURVE",
"550 556 OFFCURVE",
"524 556 CURVE SMOOTH",
"502 556 OFFCURVE",
"475 539 OFFCURVE",
"475 510 CURVE SMOOTH",
"475 483 OFFCURVE",
"525 415 OFFCURVE",
"525 249 CURVE SMOOTH"
);
}
);
width = 682;
}
);
leftMetricsKey = kj_CA;
note = CU;
rightMetricsKey = kj_CA;
category = Letter;
},
{
glyphname = II.alt2;
lastChange = "2018-11-05 20:04:34 +0000";
layers = (
{
layerId = "0717401B-DDB5-4983-85F2-A81AFE530D5E";
paths = (
{
closed = 1;
nodes = (
"50 -86 OFFCURVE",
"111 -152 OFFCURVE",
"195 -152 CURVE SMOOTH",
"218 -152 OFFCURVE",
"240 -150 OFFCURVE",
"261 -139 CURVE SMOOTH",
"267 -136 OFFCURVE",
"269 -128 OFFCURVE",
"269 -119 CURVE SMOOTH",
"269 -96 OFFCURVE",
"259 -67 OFFCURVE",
"239 -67 CURVE SMOOTH",
"235 -67 OFFCURVE",
"228 -68 OFFCURVE",
"221 -69 CURVE SMOOTH",
"213 -71 OFFCURVE",
"204 -72 OFFCURVE",
"198 -72 CURVE SMOOTH",
"154 -72 OFFCURVE",
"127 -50 OFFCURVE",
"127 43 CURVE SMOOTH",
"127 93 OFFCURVE",
"137 141 OFFCURVE",
"148 188 CURVE SMOOTH",
"158 230 OFFCURVE",
"174 318 OFFCURVE",
"174 371 CURVE SMOOTH",
"174 471 OFFCURVE",
"136 551 OFFCURVE",
"41 551 CURVE SMOOTH",
"-71 551 OFFCURVE",
"-122 440 OFFCURVE",
"-151 335 CURVE",
"-86 301 LINE",
"-58 401 OFFCURVE",
"-8 470 OFFCURVE",
"43 470 CURVE SMOOTH",
"86 470 OFFCURVE",
"97 436 OFFCURVE",
"97 378 CURVE SMOOTH",
"97 328 OFFCURVE",
"89 280 OFFCURVE",
"77 230 CURVE SMOOTH",
"63 172 OFFCURVE",
"50 112 OFFCURVE",
"50 40 CURVE SMOOTH"
);
}
);
width = 249;
}
);
note = II.alt2;
category = Letter;
},
{
glyphname = I.alt;
lastChange = "2018-11-05 20:04:48 +0000";
layers = (
{
layerId = "0717401B-DDB5-4983-85F2-A81AFE530D5E";
paths = (
{
closed = 1;
nodes = (
"-139 144 LINE",
"-96 116 LINE",
"-74 237 LINE SMOOTH",
"-38 435 OFFCURVE",
"25 570 OFFCURVE",
"87 570 CURVE SMOOTH",
"109 570 OFFCURVE",
"135 561 OFFCURVE",
"150 546 CURVE SMOOTH",
"158 538 OFFCURVE",
"173 529 OFFCURVE",
"184 529 CURVE SMOOTH",
"206 529 OFFCURVE",
"221 546 OFFCURVE",
"221 565 CURVE SMOOTH",
"221 587 OFFCURVE",
"210 598 OFFCURVE",
"198 608 CURVE SMOOTH",
"162 638 OFFCURVE",
"129 650 OFFCURVE",
"92 650 CURVE SMOOTH",
"-58 650 OFFCURVE",
"-120 433 OFFCURVE",
"-132 250 CURVE SMOOTH"
);
}
);
width = 0;
}
);
note = I.alt;
category = Mark;
},
{
glyphname = U.alt;
lastChange = "2018-11-05 20:04:56 +0000";
layers = (
{
layerId = "0717401B-DDB5-4983-85F2-A81AFE530D5E";
paths = (
{
closed = 1;
nodes = (
"-150 -158 OFFCURVE",
"-312 -158 CURVE SMOOTH",
"-487 -158 OFFCURVE",
"-558 -95 OFFCURVE",
"-598 -59 CURVE SMOOTH",
"-613 -45 OFFCURVE",
"-624 -35 OFFCURVE",
"-634 -35 CURVE SMOOTH",
"-652 -35 OFFCURVE",
"-656 -69 OFFCURVE",
"-656 -92 CURVE SMOOTH",
"-656 -149 OFFCURVE",
"-514 -240 OFFCURVE",
"-307 -240 CURVE SMOOTH",
"-81 -240 OFFCURVE",
"118 -163 OFFCURVE",
"118 37 CURVE SMOOTH",
"118 163 OFFCURVE",
"32 221 OFFCURVE",
"-57 221 CURVE SMOOTH",
"-76 221 OFFCURVE",
"-95 218 OFFCURVE",
"-113 213 CURVE",
"-135 135 LINE",
"-114 141 OFFCURVE",
"-93 144 OFFCURVE",
"-73 144 CURVE SMOOTH",
"-13 144 OFFCURVE",
"35 114 OFFCURVE",
"35 37 CURVE SMOOTH",
"35 -111 OFFCURVE"
);
}
);
width = 0;
}
);
note = U.alt;
category = Mark;
},
{
glyphname = GU;
lastChange = "2018-11-05 20:04:34 +0000";
layers = (
{
layerId = "0717401B-DDB5-4983-85F2-A81AFE530D5E";
paths = (
{
closed = 1;
nodes = (
"475 398 OFFCURVE",
"392 449 OFFCURVE",
"298 449 CURVE SMOOTH",
"227 449 OFFCURVE",
"195 458 OFFCURVE",
"187 496 CURVE SMOOTH",
"183 516 OFFCURVE",
"181 537 OFFCURVE",
"158 537 CURVE SMOOTH",
"138 537 OFFCURVE",
"112 522 OFFCURVE",
"112 493 CURVE SMOOTH",
"112 408 OFFCURVE",
"179 366 OFFCURVE",
"282 366 CURVE SMOOTH",
"363 366 OFFCURVE",
"397 340 OFFCURVE",
"397 285 CURVE SMOOTH",
"397 213 OFFCURVE",
"344 183 OFFCURVE",
"290 183 CURVE SMOOTH",
"192 183 OFFCURVE",
"160 241 OFFCURVE",
"135 282 CURVE SMOOTH",
"123 302 OFFCURVE",
"115 320 OFFCURVE",
"103 320 CURVE SMOOTH",
"82 320 OFFCURVE",
"69 275 OFFCURVE",
"69 253 CURVE SMOOTH",
"69 197 OFFCURVE",
"159 97 OFFCURVE",
"294 97 CURVE SMOOTH",
"414 97 OFFCURVE",
"475 168 OFFCURVE",
"475 268 CURVE SMOOTH"
);
},
{
closed = 1;
nodes = (
"663 466 OFFCURVE",
"552 559 OFFCURVE",
"503 559 CURVE SMOOTH",
"472 559 OFFCURVE",
"448 537 OFFCURVE",
"448 510 CURVE SMOOTH",
"448 490 OFFCURVE",
"462 483 OFFCURVE",
"479 476 CURVE SMOOTH",
"546 448 OFFCURVE",
"576 383 OFFCURVE",
"576 267 CURVE SMOOTH",
"576 79 OFFCURVE",
"497 -66 OFFCURVE",
"327 -66 CURVE SMOOTH",
"213 -66 OFFCURVE",
"148 -18 OFFCURVE",
"120 20 CURVE SMOOTH",
"107 37 OFFCURVE",
"100 48 OFFCURVE",
"89 48 CURVE SMOOTH",
"71 48 OFFCURVE",
"67 14 OFFCURVE",
"67 -9 CURVE SMOOTH",
"67 -76 OFFCURVE",
"184 -150 OFFCURVE",
"335 -150 CURVE SMOOTH",
"569 -150 OFFCURVE",
"663 37 OFFCURVE",
"663 271 CURVE SMOOTH"
);
}
);
width = 733;
}
);
leftMetricsKey = kj_GA;
note = GU;
rightMetricsKey = kj_GA;
category = Letter;
},
{
glyphname = I.alt2;
lastChange = "2018-11-05 20:04:48 +0000";
layers = (
{
layerId = "0717401B-DDB5-4983-85F2-A81AFE530D5E";
paths = (
{
closed = 1;
nodes = (
"49 694 OFFCURVE",
"19 700 OFFCURVE",
"-10 700 CURVE SMOOTH",
"-135 700 OFFCURVE",
"-157 601 OFFCURVE",
"-177 461 CURVE",
"-100 431 LINE",
"-86 551 OFFCURVE",
"-76 620 OFFCURVE",
"-5 620 CURVE SMOOTH",
"20 620 OFFCURVE",
"45 598 OFFCURVE",
"59 598 CURVE SMOOTH",
"79 598 OFFCURVE",
"100 614 OFFCURVE",
"100 635 CURVE SMOOTH",
"100 646 OFFCURVE",
"94 658 OFFCURVE",
"79 670 CURVE SMOOTH"
);
}
);
width = 0;
}
);
note = I.alt2;
category = Mark;
},
{
glyphname = NGU;
lastChange = "2018-11-05 20:04:34 +0000";
layers = (
{
layerId = "0717401B-DDB5-4983-85F2-A81AFE530D5E";
paths = (
{
closed = 1;
nodes = (
"539 384 OFFCURVE",
"571 353 OFFCURVE",
"612 353 CURVE SMOOTH",
"653 353 OFFCURVE",
"686 384 OFFCURVE",
"686 422 CURVE SMOOTH",
"686 460 OFFCURVE",
"653 492 OFFCURVE",
"612 492 CURVE SMOOTH",
"571 492 OFFCURVE",
"539 460 OFFCURVE",
"539 422 CURVE SMOOTH"
);
},
{
closed = 1;
nodes = (
"627 106 LINE",
"637 94 OFFCURVE",
"645 74 OFFCURVE",
"645 51 CURVE SMOOTH",
"645 -49 OFFCURVE",
"535 -112 OFFCURVE",
"391 -112 CURVE SMOOTH",
"215 -112 OFFCURVE",
"122 -42 OFFCURVE",
"89 -9 CURVE SMOOTH",
"77 3 OFFCURVE",
"69 11 OFFCURVE",
"62 11 CURVE SMOOTH",
"44 11 OFFCURVE",
"41 -13 OFFCURVE",
"41 -41 CURVE SMOOTH",
"41 -96 OFFCURVE",
"193 -194 OFFCURVE",
"392 -194 CURVE SMOOTH",
"593 -194 OFFCURVE",
"714 -105 OFFCURVE",
"714 49 CURVE SMOOTH",
"714 132 OFFCURVE",
"679 196 OFFCURVE",
"612 196 CURVE SMOOTH",
"571 196 OFFCURVE",
"539 164 OFFCURVE",
"539 126 CURVE SMOOTH",
"539 88 OFFCURVE",
"571 57 OFFCURVE",
"612 57 CURVE SMOOTH",
"653 57 OFFCURVE",
"666 88 OFFCURVE",
"666 106 CURVE"
);
},
{
closed = 1;
nodes = (
"438 505 OFFCURVE",
"359 558 OFFCURVE",
"252 558 CURVE SMOOTH",
"183 558 OFFCURVE",
"89 526 OFFCURVE",
"89 486 CURVE SMOOTH",
"89 468 OFFCURVE",
"107 438 OFFCURVE",
"129 438 CURVE SMOOTH",
"160 438 OFFCURVE",
"197 479 OFFCURVE",
"275 479 CURVE SMOOTH",
"335 479 OFFCURVE",
"365 451 OFFCURVE",
"365 407 CURVE SMOOTH",
"365 357 OFFCURVE",
"312 328 OFFCURVE",
"209 325 CURVE",
"195 322 OFFCURVE",
"189 308 OFFCURVE",
"189 293 CURVE SMOOTH",
"189 273 OFFCURVE",
"202 248 OFFCURVE",
"232 248 CURVE SMOOTH",
"276 248 OFFCURVE",
"330 261 OFFCURVE",
"351 276 CURVE",
"306 270 LINE",
"353 257 OFFCURVE",
"378 224 OFFCURVE",
"378 183 CURVE SMOOTH",
"378 121 OFFCURVE",
"335 97 OFFCURVE",
"271 97 CURVE SMOOTH",
"189 97 OFFCURVE",
"135 152 OFFCURVE",
"114 192 CURVE SMOOTH",
"101 217 OFFCURVE",
"96 237 OFFCURVE",
"77 237 CURVE SMOOTH",
"56 237 OFFCURVE",
"55 193 OFFCURVE",
"55 171 CURVE SMOOTH",
"55 115 OFFCURVE",
"145 17 OFFCURVE",
"272 17 CURVE SMOOTH",
"388 17 OFFCURVE",
"458 75 OFFCURVE",
"458 171 CURVE SMOOTH",
"458 240 OFFCURVE",
"415 286 OFFCURVE",
"357 310 CURVE",
"376 291 LINE",
"418 316 OFFCURVE",
"438 357 OFFCURVE",
"438 400 CURVE SMOOTH"
);
}
);
width = 779;
}
);
note = NGU;
category = Letter;
},
{
glyphname = CHU;
lastChange = "2018-11-05 20:04:34 +0000";
layers = (
{
layerId = "0717401B-DDB5-4983-85F2-A81AFE530D5E";
paths = (
{
closed = 1;
nodes = (
"543 32 OFFCURVE",
"575 12 OFFCURVE",
"575 -27 CURVE SMOOTH",
"575 -74 OFFCURVE",
"523 -107 OFFCURVE",
"412 -107 CURVE SMOOTH",
"284 -107 OFFCURVE",
"192 -53 OFFCURVE",
"136 17 CURVE SMOOTH",
"105 56 OFFCURVE",
"102 79 OFFCURVE",
"85 79 CURVE SMOOTH",
"67 79 OFFCURVE",
"62 47 OFFCURVE",
"62 18 CURVE SMOOTH",
"62 -48 OFFCURVE",
"195 -189 OFFCURVE",
"421 -189 CURVE SMOOTH",
"582 -189 OFFCURVE",
"653 -121 OFFCURVE",
"653 -36 CURVE SMOOTH",
"653 19 OFFCURVE",
"620 65 OFFCURVE",
"572 85 CURVE",
"580 60 LINE",
"609 81 OFFCURVE",
"623 121 OFFCURVE",
"623 147 CURVE SMOOTH",
"623 214 OFFCURVE",
"594 243 OFFCURVE",
"564 273 CURVE SMOOTH",
"538 299 OFFCURVE",
"513 324 OFFCURVE",
"513 370 CURVE SMOOTH",
"513 412 OFFCURVE",
"539 437 OFFCURVE",
"573 437 CURVE SMOOTH",
"612 437 OFFCURVE",
"630 412 OFFCURVE",
"630 378 CURVE SMOOTH",
"630 310 OFFCURVE",
"586 257 OFFCURVE",
"459 257 CURVE SMOOTH",
"170 257 LINE",
"199 240 LINE",
"282 291 OFFCURVE",
"330 340 OFFCURVE",
"330 408 CURVE SMOOTH",
"330 516 OFFCURVE",
"259 558 OFFCURVE",
"163 558 CURVE SMOOTH",
"101 558 OFFCURVE",
"20 533 OFFCURVE",
"20 488 CURVE SMOOTH",
"20 465 OFFCURVE",
"36 437 OFFCURVE",
"58 437 CURVE SMOOTH",
"89 437 OFFCURVE",
"119 476 OFFCURVE",
"176 476 CURVE SMOOTH",
"219 476 OFFCURVE",
"250 464 OFFCURVE",
"250 416 CURVE SMOOTH",
"250 339 OFFCURVE",
"153 292 OFFCURVE",
"84 261 CURVE SMOOTH",
"75 257 OFFCURVE",
"72 250 OFFCURVE",
"72 240 CURVE SMOOTH",
"72 217 OFFCURVE",
"111 182 OFFCURVE",
"145 182 CURVE SMOOTH",
"466 182 LINE SMOOTH",
"649 182 OFFCURVE",
"705 279 OFFCURVE",
"705 365 CURVE SMOOTH",
"705 451 OFFCURVE",
"653 517 OFFCURVE",
"561 517 CURVE SMOOTH",
"486 517 OFFCURVE",
"429 468 OFFCURVE",
"429 382 CURVE SMOOTH",
"429 309 OFFCURVE",
"468 274 OFFCURVE",
"503 244 CURVE SMOOTH",
"532 219 OFFCURVE",
"555 198 OFFCURVE",
"555 162 CURVE SMOOTH",
"555 119 OFFCURVE",
"512 96 OFFCURVE",
"420 93 CURVE SMOOTH",
"407 93 OFFCURVE",
"399 76 OFFCURVE",
"399 61 CURVE SMOOTH",
"399 41 OFFCURVE",
"412 16 OFFCURVE",
"442 16 CURVE SMOOTH",
"486 16 OFFCURVE",
"520 25 OFFCURVE",
"551 38 CURVE",
"512 38 LINE"
);
}
);
width = 773;
}
);
note = CHU;
category = Letter;
},
{
glyphname = JU;
lastChange = "2018-11-05 20:04:34 +0000";
layers = (
{
layerId = "0717401B-DDB5-4983-85F2-A81AFE530D5E";
paths = (
{
closed = 1;
nodes = (
"411 420 LINE",
"389 522 OFFCURVE",
"336 555 OFFCURVE",
"278 555 CURVE SMOOTH",
"231 555 OFFCURVE",
"204 555 OFFCURVE",
"183 559 CURVE SMOOTH",
"154 565 OFFCURVE",
"149 583 OFFCURVE",
"145 600 CURVE SMOOTH",
"142 614 OFFCURVE",
"137 626 OFFCURVE",
"118 626 CURVE SMOOTH",
"98 626 OFFCURVE",
"74 608 OFFCURVE",
"74 579 CURVE SMOOTH",
"74 537 OFFCURVE",
"97 475 OFFCURVE",
"210 475 CURVE SMOOTH",
"312 475 OFFCURVE",
"333 471 OFFCURVE",
"382 388 CURVE"
);
},
{
closed = 1;
nodes = (
"623 83 OFFCURVE",
"570 -86 OFFCURVE",
"340 -86 CURVE SMOOTH",
"216 -86 OFFCURVE",
"134 -38 OFFCURVE",
"103 0 CURVE SMOOTH",
"89 17 OFFCURVE",
"83 28 OFFCURVE",
"72 28 CURVE SMOOTH",
"54 28 OFFCURVE",
"50 -6 OFFCURVE",
"50 -29 CURVE SMOOTH",
"50 -96 OFFCURVE",
"186 -170 OFFCURVE",
"347 -170 CURVE SMOOTH",
"631 -170 OFFCURVE",
"707 43 OFFCURVE",
"707 304 CURVE SMOOTH",
"707 437 OFFCURVE",
"676 555 OFFCURVE",
"554 555 CURVE SMOOTH",
"495 555 OFFCURVE",
"415 513 OFFCURVE",
"364 468 CURVE SMOOTH",
"301 412 OFFCURVE",
"256 368 OFFCURVE",
"238 331 CURVE SMOOTH",
"234 323 OFFCURVE",
"234 318 OFFCURVE",
"234 310 CURVE SMOOTH",
"234 298 OFFCURVE",
"239 281 OFFCURVE",
"252 273 CURVE",
"325 255 OFFCURVE",
"383 229 OFFCURVE",
"383 174 CURVE SMOOTH",
"383 123 OFFCURVE",
"340 100 OFFCURVE",
"286 100 CURVE SMOOTH",
"197 100 OFFCURVE",
"153 158 OFFCURVE",
"128 199 CURVE SMOOTH",
"116 219 OFFCURVE",
"108 237 OFFCURVE",
"96 237 CURVE SMOOTH",
"75 237 OFFCURVE",
"60 195 OFFCURVE",
"60 173 CURVE SMOOTH",
"60 117 OFFCURVE",
"159 17 OFFCURVE",
"290 17 CURVE SMOOTH",
"410 17 OFFCURVE",
"461 76 OFFCURVE",
"461 157 CURVE SMOOTH",
"461 241 OFFCURVE",
"392 294 OFFCURVE",
"321 326 CURVE",
"318 283 LINE",
"349 339 OFFCURVE",
"381 369 OFFCURVE",
"424 403 CURVE SMOOTH",
"482 449 OFFCURVE",
"529 469 OFFCURVE",
"564 469 CURVE SMOOTH",
"599 469 OFFCURVE",
"623 425 OFFCURVE",
"623 311 CURVE SMOOTH"
);
}
);
width = 777;
}
);
leftMetricsKey = kj_JA;
note = JU;
rightMetricsKey = kj_JA;
category = Letter;
},
{
glyphname = U.alt2;
lastChange = "2018-11-05 20:04:56 +0000";
layers = (
{
layerId = "0717401B-DDB5-4983-85F2-A81AFE530D5E";
paths = (
{
closed = 1;
nodes = (
"-38 -24 OFFCURVE",
"-58 59 OFFCURVE",
"-164 59 CURVE SMOOTH",
"-188 59 OFFCURVE",
"-210 54 OFFCURVE",
"-219 49 CURVE SMOOTH",
"-227 45 OFFCURVE",
"-232 36 OFFCURVE",
"-232 27 CURVE SMOOTH",
"-232 5 OFFCURVE",
"-218 -18 OFFCURVE",
"-199 -18 CURVE SMOOTH",
"-196 -18 OFFCURVE",
"-184 -13 OFFCURVE",
"-170 -13 CURVE SMOOTH",
"-136 -13 OFFCURVE",
"-117 -43 OFFCURVE",
"-117 -73 CURVE SMOOTH",
"-117 -127 OFFCURVE",
"-154 -158 OFFCURVE",
"-221 -158 CURVE SMOOTH",
"-268 -158 OFFCURVE",
"-342 -139 OFFCURVE",
"-402 -71 CURVE SMOOTH",
"-414 -57 OFFCURVE",
"-423 -53 OFFCURVE",
"-429 -53 CURVE SMOOTH",
"-448 -53 OFFCURVE",
"-472 -76 OFFCURVE",
"-472 -95 CURVE SMOOTH",
"-472 -109 OFFCURVE",
"-454 -129 OFFCURVE",
"-444 -139 CURVE SMOOTH",
"-369 -209 OFFCURVE",
"-292 -230 OFFCURVE",
"-221 -230 CURVE SMOOTH",
"-108 -230 OFFCURVE",
"-38 -164 OFFCURVE",
"-38 -74 CURVE SMOOTH"
);
}
);
width = 0;
}
);
note = U.alt2;
category = Mark;
},
{
glyphname = DDU;
lastChange = "2018-11-05 20:04:34 +0000";
layers = (
{
layerId = "0717401B-DDB5-4983-85F2-A81AFE530D5E";
paths = (
{
closed = 1;
nodes = (
"738 473 OFFCURVE",
"676 516 OFFCURVE",
"608 516 CURVE SMOOTH",
"556 516 OFFCURVE",
"510 497 OFFCURVE",
"469 459 CURVE",
"491 455 LINE",
"469 521 OFFCURVE",
"420 562 OFFCURVE",
"344 562 CURVE SMOOTH",
"269 562 OFFCURVE",
"198 510 OFFCURVE",
"155 417 CURVE",
"187 287 LINE",
"202 390 OFFCURVE",
"285 478 OFFCURVE",
"359 478 CURVE SMOOTH",
"406 478 OFFCURVE",
"426 446 OFFCURVE",
"433 419 CURVE",
"451 459 LINE",
"397 400 OFFCURVE",
"328 301 OFFCURVE",
"328 259 CURVE SMOOTH",
"328 233 OFFCURVE",
"357 223 OFFCURVE",
"384 223 CURVE SMOOTH",
"399 223 OFFCURVE",
"412 226 OFFCURVE",
"415 233 CURVE",
"479 391 OFFCURVE",
"556 435 OFFCURVE",
"609 435 CURVE SMOOTH",
"661 435 OFFCURVE",
"684 394 OFFCURVE",
"685 341 CURVE",
"744 373 LINE"
);
},
{
closed = 1;
nodes = (
"177 677 OFFCURVE",
"118 719 OFFCURVE",
"45 719 CURVE SMOOTH",
"22 719 OFFCURVE",
"10 691 OFFCURVE",
"10 668 CURVE SMOOTH",
"10 652 OFFCURVE",
"16 639 OFFCURVE",
"28 638 CURVE SMOOTH",
"89 633 OFFCURVE",
"93 602 OFFCURVE",
"93 573 CURVE SMOOTH",
"93 444 OFFCURVE",
"105 323 OFFCURVE",
"154 215 CURVE SMOOTH",
"212 87 OFFCURVE",
"338 19 OFFCURVE",
"446 19 CURVE SMOOTH",
"485 19 OFFCURVE",
"489 52 OFFCURVE",
"489 69 CURVE SMOOTH",
"489 88 OFFCURVE",
"476 98 OFFCURVE",
"459 99 CURVE SMOOTH",
"360 105 OFFCURVE",
"289 138 OFFCURVE",
"239 223 CURVE SMOOTH",
"191 304 OFFCURVE",
"176 409 OFFCURVE",
"176 537 CURVE SMOOTH",
"176 556 OFFCURVE",
"177 581 OFFCURVE",
"177 601 CURVE SMOOTH"
);
},
{
closed = 1;
nodes = (
"906 143 OFFCURVE",
"760 -74 OFFCURVE",
"450 -74 CURVE SMOOTH",
"281 -74 OFFCURVE",
"158 -23 OFFCURVE",
"106 53 CURVE SMOOTH",
"77 96 OFFCURVE",
"81 115 OFFCURVE",
"64 115 CURVE SMOOTH",
"46 115 OFFCURVE",
"39 83 OFFCURVE",
"39 54 CURVE SMOOTH",
"39 -40 OFFCURVE",
"186 -158 OFFCURVE",
"454 -158 CURVE SMOOTH",
"851 -158 OFFCURVE",
"988 107 OFFCURVE",
"988 292 CURVE SMOOTH",
"988 393 OFFCURVE",
"932 449 OFFCURVE",
"854 449 CURVE SMOOTH",
"793 449 OFFCURVE",
"751 427 OFFCURVE",
"689 373 CURVE SMOOTH",
"647 337 OFFCURVE",
"555 224 OFFCURVE",
"555 189 CURVE SMOOTH",
"555 165 OFFCURVE",
"587 147 OFFCURVE",
"616 147 CURVE SMOOTH",
"625 147 OFFCURVE",
"633 149 OFFCURVE",
"636 154 CURVE SMOOTH",
"717 278 OFFCURVE",
"785 367 OFFCURVE",
"856 367 CURVE SMOOTH",
"894 367 OFFCURVE",
"906 336 OFFCURVE",
"906 297 CURVE SMOOTH"
);
}
);
width = 1057;
}
);
leftMetricsKey = kj_RA;
note = DDU;
rightMetricsKey = kj_DHA;
category = Letter;
},
{
glyphname = DDHU;
lastChange = "2018-11-05 20:04:34 +0000";
layers = (
{
layerId = "0717401B-DDB5-4983-85F2-A81AFE530D5E";
paths = (
{
closed = 1;
nodes = (
"466 274 OFFCURVE",
"511 223 CURVE SMOOTH",
"552 177 OFFCURVE",
"591 133 OFFCURVE",
"591 71 CURVE SMOOTH",
"591 -24 OFFCURVE",
"492 -76 OFFCURVE",
"352 -76 CURVE SMOOTH",
"243 -76 OFFCURVE",
"152 -41 OFFCURVE",
"108 23 CURVE SMOOTH",
"80 64 OFFCURVE",
"81 85 OFFCURVE",
"64 85 CURVE SMOOTH",
"46 85 OFFCURVE",
"41 53 OFFCURVE",
"41 24 CURVE SMOOTH",
"41 -56 OFFCURVE",
"138 -158 OFFCURVE",
"359 -158 CURVE SMOOTH",
"558 -158 OFFCURVE",
"669 -77 OFFCURVE",
"669 60 CURVE SMOOTH",
"669 157 OFFCURVE",
"616 217 OFFCURVE",
"569 269 CURVE SMOOTH",
"532 310 OFFCURVE",
"501 346 OFFCURVE",
"501 392 CURVE SMOOTH",
"501 446 OFFCURVE",
"535 473 OFFCURVE",
"569 473 CURVE SMOOTH",
"610 473 OFFCURVE",
"634 442 OFFCURVE",
"634 389 CURVE SMOOTH",
"634 300 OFFCURVE",
"565 210 OFFCURVE",
"340 210 CURVE SMOOTH",
"170 210 LINE",
"199 193 LINE",
"282 236 OFFCURVE",
"330 301 OFFCURVE",
"330 389 CURVE SMOOTH",
"330 511 OFFCURVE",
"259 558 OFFCURVE",
"163 558 CURVE SMOOTH",
"101 558 OFFCURVE",
"20 533 OFFCURVE",
"20 488 CURVE SMOOTH",
"20 465 OFFCURVE",
"36 437 OFFCURVE",
"58 437 CURVE SMOOTH",
"89 437 OFFCURVE",
"119 476 OFFCURVE",
"176 476 CURVE SMOOTH",
"219 476 OFFCURVE",
"250 463 OFFCURVE",
"250 399 CURVE SMOOTH",
"250 302 OFFCURVE",
"160 250 OFFCURVE",
"84 216 CURVE SMOOTH",
"75 212 OFFCURVE",
"72 203 OFFCURVE",
"72 194 CURVE SMOOTH",
"72 170 OFFCURVE",
"111 135 OFFCURVE",
"145 135 CURVE SMOOTH",
"352 135 LINE SMOOTH",
"641 135 OFFCURVE",
"710 276 OFFCURVE",
"710 387 CURVE SMOOTH",
"710 485 OFFCURVE",
"654 556 OFFCURVE",
"558 556 CURVE SMOOTH",
"480 556 OFFCURVE",
"418 498 OFFCURVE",
"418 412 CURVE SMOOTH",
"418 328 OFFCURVE"
);
}
);
width = 778;
}
);
leftMetricsKey = kj_DDHA;
note = DDHU;
rightMetricsKey = kj_DDHA;
category = Letter;
},
{
glyphname = NNU;
lastChange = "2018-11-05 20:04:34 +0000";
layers = (
{
layerId = "0717401B-DDB5-4983-85F2-A81AFE530D5E";
paths = (
{
closed = 1;
nodes = (
"541 413 LINE",
"512 519 OFFCURVE",
"442 562 OFFCURVE",
"358 562 CURVE SMOOTH",
"286 562 OFFCURVE",
"202 517 OFFCURVE",
"154 418 CURVE",
"191 309 LINE",
"225 417 OFFCURVE",
"303 476 OFFCURVE",
"370 476 CURVE SMOOTH",
"431 476 OFFCURVE",
"468 442 OFFCURVE",
"483 377 CURVE"
);
},
{
closed = 1;
nodes = (
"514 491 OFFCURVE",
"394 302 OFFCURVE",
"394 249 CURVE SMOOTH",
"394 226 OFFCURVE",
"426 207 OFFCURVE",
"455 207 CURVE SMOOTH",
"464 207 OFFCURVE",
"473 209 OFFCURVE",
"476 214 CURVE SMOOTH",
"536 339 OFFCURVE",
"602 407 OFFCURVE",
"674 407 CURVE SMOOTH",
"721 407 OFFCURVE",
"746 358 OFFCURVE",
"746 289 CURVE SMOOTH",
"746 125 OFFCURVE",
"650 -74 OFFCURVE",
"400 -74 CURVE SMOOTH",
"281 -74 OFFCURVE",
"157 -23 OFFCURVE",
"106 53 CURVE SMOOTH",
"77 96 OFFCURVE",
"81 115 OFFCURVE",
"64 115 CURVE SMOOTH",
"46 115 OFFCURVE",
"39 83 OFFCURVE",
"39 54 CURVE SMOOTH",
"39 -40 OFFCURVE",
"186 -158 OFFCURVE",
"404 -158 CURVE SMOOTH",
"741 -158 OFFCURVE",
"827 111 OFFCURVE",
"827 281 CURVE SMOOTH",
"827 414 OFFCURVE",
"760 491 OFFCURVE",
"666 491 CURVE SMOOTH"
);
},
{
closed = 1;
nodes = (
"177 677 OFFCURVE",
"118 719 OFFCURVE",
"45 719 CURVE SMOOTH",
"22 719 OFFCURVE",
"10 691 OFFCURVE",
"10 668 CURVE SMOOTH",
"10 652 OFFCURVE",
"16 639 OFFCURVE",
"28 638 CURVE SMOOTH",
"89 633 OFFCURVE",
"93 602 OFFCURVE",
"93 573 CURVE SMOOTH",
"93 444 OFFCURVE",
"105 323 OFFCURVE",
"154 215 CURVE SMOOTH",
"212 87 OFFCURVE",
"338 19 OFFCURVE",
"446 19 CURVE SMOOTH",
"485 19 OFFCURVE",
"489 52 OFFCURVE",
"489 69 CURVE SMOOTH",
"489 88 OFFCURVE",
"476 98 OFFCURVE",
"459 99 CURVE SMOOTH",
"360 105 OFFCURVE",
"289 138 OFFCURVE",
"239 223 CURVE SMOOTH",
"191 304 OFFCURVE",
"176 408 OFFCURVE",
"176 535 CURVE SMOOTH",
"176 555 OFFCURVE",
"177 580 OFFCURVE",
"177 601 CURVE SMOOTH"
);
}
);
width = 896;
}
);
leftMetricsKey = kj_RA;
note = NNU;
rightMetricsKey = kj_DHA;
category = Letter;
},
{
glyphname = TU;
lastChange = "2018-11-05 20:04:34 +0000";
layers = (
{
layerId = "0717401B-DDB5-4983-85F2-A81AFE530D5E";
paths = (
{
closed = 1;
nodes = (
"619 447 OFFCURVE",
"577 555 OFFCURVE",
"456 555 CURVE SMOOTH",
"350 555 OFFCURVE",
"266 450 OFFCURVE",
"223 342 CURVE",
"237 336 LINE",
"245 413 OFFCURVE",
"234 473 OFFCURVE",
"207 507 CURVE SMOOTH",
"180 541 OFFCURVE",
"149 559 OFFCURVE",
"120 559 CURVE SMOOTH",
"99 559 OFFCURVE",
"75 539 OFFCURVE",
"75 510 CURVE SMOOTH",
"75 490 OFFCURVE",
"89 483 OFFCURVE",
"106 476 CURVE SMOOTH",
"155 456 OFFCURVE",
"177 405 OFFCURVE",
"177 339 CURVE SMOOTH",
"177 285 OFFCURVE",
"163 211 OFFCURVE",
"137 108 CURVE",
"138 88 OFFCURVE",
"165 70 OFFCURVE",
"194 70 CURVE SMOOTH",
"212 70 OFFCURVE",
"235 78 OFFCURVE",
"239 93 CURVE SMOOTH",
"241 101 OFFCURVE",
"243 112 OFFCURVE",
"245 124 CURVE SMOOTH",
"288 381 OFFCURVE",
"395 471 OFFCURVE",
"464 471 CURVE SMOOTH",
"517 471 OFFCURVE",
"534 429 OFFCURVE",
"534 335 CURVE SMOOTH",
"534 135 OFFCURVE",
"455 -66 OFFCURVE",
"251 -66 CURVE SMOOTH",
"169 -66 OFFCURVE",
"101 -20 OFFCURVE",
"65 22 CURVE SMOOTH",
"51 38 OFFCURVE",
"43 48 OFFCURVE",
"32 48 CURVE SMOOTH",
"14 48 OFFCURVE",
"10 14 OFFCURVE",
"10 -9 CURVE SMOOTH",
"10 -76 OFFCURVE",
"129 -150 OFFCURVE",
"260 -150 CURVE SMOOTH",
"518 -150 OFFCURVE",
"619 84 OFFCURVE",
"619 333 CURVE SMOOTH"
);
}
);
width = 689;
}
);
note = TU;
category = Letter;
},
{
glyphname = THU;
lastChange = "2018-11-05 20:04:34 +0000";
layers = (
{
layerId = "0717401B-DDB5-4983-85F2-A81AFE530D5E";
paths = (
{
closed = 1;
nodes = (
"407 221 OFFCURVE",
"446 367 OFFCURVE",
"446 526 CURVE SMOOTH",
"446 555 OFFCURVE",
"413 580 OFFCURVE",
"384 580 CURVE SMOOTH",
"366 580 OFFCURVE",
"358 567 OFFCURVE",
"357 544 CURVE SMOOTH",
"353 454 OFFCURVE",
"354 402 OFFCURVE",
"331 349 CURVE SMOOTH",
"318 320 OFFCURVE",
"293 302 OFFCURVE",
"257 302 CURVE SMOOTH",
"223 302 OFFCURVE",
"203 317 OFFCURVE",
"194 344 CURVE SMOOTH",
"185 370 OFFCURVE",
"184 407 OFFCURVE",
"184 450 CURVE SMOOTH",
"184 465 OFFCURVE",
"184 481 OFFCURVE",
"184 497 CURVE SMOOTH",
"184 577 OFFCURVE",
"128 620 OFFCURVE",
"55 620 CURVE SMOOTH",
"32 620 OFFCURVE",
"20 592 OFFCURVE",
"20 569 CURVE SMOOTH",
"20 553 OFFCURVE",
"26 540 OFFCURVE",
"38 539 CURVE SMOOTH",
"99 534 OFFCURVE",
"104 491 OFFCURVE",
"104 423 CURVE SMOOTH",
"104 294 OFFCURVE",
"153 221 OFFCURVE",
"263 221 CURVE SMOOTH"
);
},
{
closed = 1;
nodes = (
"580 272 OFFCURVE",
"631 291 OFFCURVE",
"682 359 CURVE",
"650 360 LINE",
"656 332 OFFCURVE",
"659 311 OFFCURVE",
"659 277 CURVE SMOOTH",
"659 98 OFFCURVE",
"546 -63 OFFCURVE",
"356 -63 CURVE SMOOTH",
"198 -63 OFFCURVE",
"121 22 OFFCURVE",
"92 60 CURVE SMOOTH",
"79 77 OFFCURVE",
"72 88 OFFCURVE",
"61 88 CURVE SMOOTH",
"43 88 OFFCURVE",
"39 54 OFFCURVE",
"39 31 CURVE SMOOTH",
"39 -36 OFFCURVE",
"158 -150 OFFCURVE",
"359 -150 CURVE SMOOTH",
"613 -150 OFFCURVE",
"741 30 OFFCURVE",
"741 274 CURVE SMOOTH",
"741 366 OFFCURVE",
"732 475 OFFCURVE",
"705 544 CURVE SMOOTH",
"694 572 OFFCURVE",
"669 589 OFFCURVE",
"646 589 CURVE SMOOTH",
"626 589 OFFCURVE",
"609 578 OFFCURVE",
"609 555 CURVE SMOOTH",
"609 530 OFFCURVE",
"632 497 OFFCURVE",
"632 452 CURVE SMOOTH",
"632 399 OFFCURVE",
"578 352 OFFCURVE",
"527 352 CURVE SMOOTH",
"478 352 OFFCURVE",
"439 375 OFFCURVE",
"425 457 CURVE",
"388 377 LINE",
"410 310 OFFCURVE",
"463 272 OFFCURVE",
"527 272 CURVE SMOOTH"
);
}
);
width = 811;
}
);
note = THU;
category = Letter;
},
{
glyphname = DI;
lastChange = "2018-11-05 20:04:34 +0000";
layers = (
{
layerId = "0717401B-DDB5-4983-85F2-A81AFE530D5E";
paths = (
{
closed = 1;
nodes = (
"775 560 OFFCURVE",
"791 640 OFFCURVE",
"879 640 CURVE SMOOTH",
"929 640 OFFCURVE",
"960 598 OFFCURVE",
"982 598 CURVE SMOOTH",
"995 598 OFFCURVE",
"1004 613 OFFCURVE",
"1004 627 CURVE SMOOTH",
"1004 650 OFFCURVE",
"992 667 OFFCURVE",
"979 680 CURVE SMOOTH",
"954 705 OFFCURVE",
"913 720 OFFCURVE",
"872 720 CURVE SMOOTH",
"744 720 OFFCURVE",
"702 624 OFFCURVE",
"683 420 CURVE SMOOTH",
"654 105 OFFCURVE",
"611 19 OFFCURVE",
"536 19 CURVE SMOOTH",
"519 19 OFFCURVE",
"505 29 OFFCURVE",
"505 48 CURVE SMOOTH",
"505 88 OFFCURVE",
"547 123 OFFCURVE",
"547 180 CURVE SMOOTH",
"547 234 OFFCURVE",
"507 265 OFFCURVE",
"492 274 CURVE",
"496 240 LINE",
"562 281 OFFCURVE",
"602 345 OFFCURVE",
"602 396 CURVE SMOOTH",
"602 502 OFFCURVE",
"513 560 OFFCURVE",
"379 560 CURVE SMOOTH",
"191 560 OFFCURVE",
"50 465 OFFCURVE",
"50 349 CURVE SMOOTH",
"50 281 OFFCURVE",
"103 229 OFFCURVE",
"179 229 CURVE SMOOTH",
"245 229 OFFCURVE",
"288 259 OFFCURVE",
"288 299 CURVE SMOOTH",
"288 324 OFFCURVE",
"266 342 OFFCURVE",
"247 342 CURVE SMOOTH",
"219 342 OFFCURVE",
"206 309 OFFCURVE",
"170 309 CURVE SMOOTH",
"151 309 OFFCURVE",
"137 323 OFFCURVE",
"137 343 CURVE SMOOTH",
"137 418 OFFCURVE",
"282 478 OFFCURVE",
"402 478 CURVE SMOOTH",
"494 478 OFFCURVE",
"519 447 OFFCURVE",
"519 412 CURVE SMOOTH",
"519 345 OFFCURVE",
"433 293 OFFCURVE",
"362 277 CURVE SMOOTH",
"349 274 OFFCURVE",
"346 261 OFFCURVE",
"346 250 CURVE SMOOTH",
"346 226 OFFCURVE",
"362 200 OFFCURVE",
"384 200 CURVE SMOOTH",
"424 200 OFFCURVE",
"451 219 OFFCURVE",
"476 230 CURVE",
"434 242 LINE",
"456 232 OFFCURVE",
"471 215 OFFCURVE",
"471 185 CURVE SMOOTH",
"471 140 OFFCURVE",
"425 108 OFFCURVE",
"425 46 CURVE SMOOTH",
"425 -15 OFFCURVE",
"482 -55 OFFCURVE",
"545 -55 CURVE SMOOTH",
"701 -55 OFFCURVE",
"740 160 OFFCURVE",
"758 368 CURVE SMOOTH"
);
}
);
width = 1010;
}
);
leftMetricsKey = kj_DA;
note = DI;
rightMetricsKey = kj_E;
category = Letter;
},
{
glyphname = DII;
lastChange = "2018-11-05 20:04:34 +0000";
layers = (
{
layerId = "0717401B-DDB5-4983-85F2-A81AFE530D5E";
paths = (
{
closed = 1;
nodes = (
"1001 -152 OFFCURVE",
"1023 -150 OFFCURVE",
"1044 -139 CURVE SMOOTH",
"1050 -136 OFFCURVE",
"1052 -128 OFFCURVE",
"1052 -119 CURVE SMOOTH",
"1052 -96 OFFCURVE",
"1042 -67 OFFCURVE",
"1022 -67 CURVE SMOOTH",
"1013 -67 OFFCURVE",
"993 -72 OFFCURVE",
"981 -72 CURVE SMOOTH",
"937 -72 OFFCURVE",
"910 -50 OFFCURVE",
"910 43 CURVE SMOOTH",
"910 99 OFFCURVE",
"920 150 OFFCURVE",
"932 205 CURVE SMOOTH",
"944 262 OFFCURVE",
"956 320 OFFCURVE",
"956 386 CURVE SMOOTH",
"956 483 OFFCURVE",
"920 551 OFFCURVE",
"838 551 CURVE SMOOTH",
"746 551 OFFCURVE",
"710 453 OFFCURVE",
"678 335 CURVE SMOOTH",
"634 175 OFFCURVE",
"604 19 OFFCURVE",
"536 19 CURVE SMOOTH",
"519 19 OFFCURVE",
"505 29 OFFCURVE",
"505 48 CURVE SMOOTH",
"505 88 OFFCURVE",
"547 123 OFFCURVE",
"547 180 CURVE SMOOTH",
"547 234 OFFCURVE",
"507 265 OFFCURVE",
"492 274 CURVE",
"496 240 LINE",
"562 281 OFFCURVE",
"602 345 OFFCURVE",
"602 396 CURVE SMOOTH",
"602 502 OFFCURVE",
"513 560 OFFCURVE",
"379 560 CURVE SMOOTH",
"191 560 OFFCURVE",
"50 465 OFFCURVE",
"50 349 CURVE SMOOTH",
"50 281 OFFCURVE",
"103 229 OFFCURVE",
"179 229 CURVE SMOOTH",
"245 229 OFFCURVE",
"288 259 OFFCURVE",
"288 299 CURVE SMOOTH",
"288 324 OFFCURVE",
"266 342 OFFCURVE",
"247 342 CURVE SMOOTH",
"219 342 OFFCURVE",
"206 309 OFFCURVE",
"170 309 CURVE SMOOTH",
"151 309 OFFCURVE",
"137 323 OFFCURVE",
"137 343 CURVE SMOOTH",
"137 418 OFFCURVE",
"282 478 OFFCURVE",
"402 478 CURVE SMOOTH",
"494 478 OFFCURVE",
"519 447 OFFCURVE",
"519 412 CURVE SMOOTH",
"519 345 OFFCURVE",
"433 293 OFFCURVE",
"362 277 CURVE SMOOTH",
"349 274 OFFCURVE",
"346 261 OFFCURVE",
"346 250 CURVE SMOOTH",
"346 226 OFFCURVE",
"362 200 OFFCURVE",
"384 200 CURVE SMOOTH",
"424 200 OFFCURVE",
"451 219 OFFCURVE",
"476 230 CURVE",
"434 242 LINE",
"456 232 OFFCURVE",
"471 215 OFFCURVE",
"471 185 CURVE SMOOTH",
"471 140 OFFCURVE",
"425 108 OFFCURVE",
"425 46 CURVE SMOOTH",
"425 -15 OFFCURVE",
"482 -55 OFFCURVE",
"545 -55 CURVE SMOOTH",
"648 -55 OFFCURVE",
"687 57 OFFCURVE",
"737 239 CURVE SMOOTH",
"781 400 OFFCURVE",
"802 470 OFFCURVE",
"846 470 CURVE SMOOTH",
"872 470 OFFCURVE",
"882 443 OFFCURVE",
"882 387 CURVE SMOOTH",
"882 336 OFFCURVE",
"873 290 OFFCURVE",
"860 234 CURVE SMOOTH",
"846 175 OFFCURVE",
"833 112 OFFCURVE",
"833 40 CURVE SMOOTH",
"833 -86 OFFCURVE",
"894 -152 OFFCURVE",
"978 -152 CURVE SMOOTH"
);
}
);
width = 1022;
}
);
leftMetricsKey = kj_DA;
note = DII;
category = Letter;
},
{
glyphname = DU;
lastChange = "2018-11-05 20:04:34 +0000";
layers = (
{
layerId = "0717401B-DDB5-4983-85F2-A81AFE530D5E";
paths = (
{
closed = 1;
nodes = (
"661 -3 LINE",
"610 -54 OFFCURVE",
"523 -76 OFFCURVE",
"442 -76 CURVE SMOOTH",
"310 -76 OFFCURVE",
"204 -18 OFFCURVE",
"165 53 CURVE SMOOTH",
"141 97 OFFCURVE",
"140 115 OFFCURVE",
"123 115 CURVE SMOOTH",
"105 115 OFFCURVE",
"98 83 OFFCURVE",
"98 54 CURVE SMOOTH",
"98 -40 OFFCURVE",
"228 -158 OFFCURVE",
"448 -158 CURVE SMOOTH",
"622 -158 OFFCURVE",
"745 -82 OFFCURVE",
"745 -1 CURVE SMOOTH",
"745 34 OFFCURVE",
"735 59 OFFCURVE",
"715 59 CURVE SMOOTH",
"706 59 OFFCURVE",
"694 54 OFFCURVE",
"673 54 CURVE SMOOTH",
"654 54 OFFCURVE",
"641 62 OFFCURVE",
"641 88 CURVE SMOOTH",
"641 102 OFFCURVE",
"644 116 OFFCURVE",
"647 129 CURVE SMOOTH",
"650 144 OFFCURVE",
"653 159 OFFCURVE",
"653 179 CURVE SMOOTH",
"653 234 OFFCURVE",
"606 263 OFFCURVE",
"591 272 CURVE",
"588 247 LINE",
"638 276 OFFCURVE",
"668 340 OFFCURVE",
"668 396 CURVE SMOOTH",
"668 502 OFFCURVE",
"579 560 OFFCURVE",
"445 560 CURVE SMOOTH",
"257 560 OFFCURVE",
"116 465 OFFCURVE",
"116 349 CURVE SMOOTH",
"116 281 OFFCURVE",
"169 229 OFFCURVE",
"245 229 CURVE SMOOTH",
"311 229 OFFCURVE",
"354 259 OFFCURVE",
"354 299 CURVE SMOOTH",
"354 324 OFFCURVE",
"332 342 OFFCURVE",
"313 342 CURVE SMOOTH",
"285 342 OFFCURVE",
"272 309 OFFCURVE",
"236 309 CURVE SMOOTH",
"217 309 OFFCURVE",
"203 323 OFFCURVE",
"203 343 CURVE SMOOTH",
"203 418 OFFCURVE",
"348 478 OFFCURVE",
"468 478 CURVE SMOOTH",
"560 478 OFFCURVE",
"585 447 OFFCURVE",
"585 412 CURVE SMOOTH",
"585 340 OFFCURVE",
"509 288 OFFCURVE",
"438 272 CURVE SMOOTH",
"425 269 OFFCURVE",
"422 256 OFFCURVE",
"422 243 CURVE SMOOTH",
"422 222 OFFCURVE",
"438 195 OFFCURVE",
"460 195 CURVE SMOOTH",
"500 195 OFFCURVE",
"527 214 OFFCURVE",
"568 237 CURVE",
"535 231 LINE",
"559 227 OFFCURVE",
"577 207 OFFCURVE",
"577 172 CURVE SMOOTH",
"577 154 OFFCURVE",
"573 139 OFFCURVE",
"569 125 CURVE SMOOTH",
"564 107 OFFCURVE",
"561 95 OFFCURVE",
"561 74 CURVE SMOOTH",
"561 13 OFFCURVE",
"611 -13 OFFCURVE",
"661 -13 CURVE"
);
}
);
width = 800;
}
);
note = DU;
rightMetricsKey = kj_DA;
category = Letter;
},
{
glyphname = I.alt3;
lastChange = "2018-11-05 20:04:48 +0000";
layers = (
{
layerId = "0717401B-DDB5-4983-85F2-A81AFE530D5E";
paths = (
{
closed = 1;
nodes = (
"-181 355 LINE",
"-159 522 OFFCURVE",
"-111 634 OFFCURVE",
"-56 639 CURVE SMOOTH",
"-35 641 OFFCURVE",
"-8 635 OFFCURVE",
"8 621 CURVE SMOOTH",
"17 613 OFFCURVE",
"33 606 OFFCURVE",
"44 607 CURVE SMOOTH",
"66 609 OFFCURVE",
"79 627 OFFCURVE",
"77 646 CURVE SMOOTH",
"75 668 OFFCURVE",
"64 678 OFFCURVE",
"51 687 CURVE SMOOTH",
"12 714 OFFCURVE",
"-22 723 OFFCURVE",
"-58 719 CURVE SMOOTH",
"-190 704 OFFCURVE",
"-240 533 OFFCURVE",
"-247 367 CURVE"
);
}
);
width = 0;
}
);
category = Mark;
},
{
glyphname = I.alt4;
lastChange = "2018-11-05 20:04:48 +0000";
layers = (
{
layerId = "0717401B-DDB5-4983-85F2-A81AFE530D5E";
paths = (
{
closed = 1;
nodes = (
"57 733 OFFCURVE",
"27 739 OFFCURVE",
"-2 740 CURVE SMOOTH",
"-124 744 OFFCURVE",
"-158 648 OFFCURVE",
"-171 486 CURVE",
"-94 454 LINE",
"-83 578 OFFCURVE",
"-75 660 OFFCURVE",
"3 660 CURVE SMOOTH",
"28 660 OFFCURVE",
"52 637 OFFCURVE",
"66 637 CURVE SMOOTH",
"86 637 OFFCURVE",
"106 653 OFFCURVE",
"108 674 CURVE SMOOTH",
"109 685 OFFCURVE",
"102 697 OFFCURVE",
"87 709 CURVE SMOOTH"
);
}
);
width = 0;
}
);
note = I.alt3;
category = Mark;
},
{
glyphname = II.alt3;
lastChange = "2018-11-05 20:04:25 +0000";
layers = (
{
layerId = "0717401B-DDB5-4983-85F2-A81AFE530D5E";
paths = (
{
closed = 1;
nodes = (
"169 553 OFFCURVE",
"109 620 OFFCURVE",
"2 620 CURVE SMOOTH",
"-83 620 OFFCURVE",
"-155 545 OFFCURVE",
"-155 475 CURVE SMOOTH",
"-155 459 OFFCURVE",
"-141 451 OFFCURVE",
"-119 451 CURVE SMOOTH",
"-98 451 OFFCURVE",
"-75 460 OFFCURVE",
"-72 470 CURVE SMOOTH",
"-58 515 OFFCURVE",
"-28 540 OFFCURVE",
"16 540 CURVE SMOOTH",
"58 540 OFFCURVE",
"90 525 OFFCURVE",
"90 417 CURVE SMOOTH",
"90 354 OFFCURVE",
"79 295 OFFCURVE",
"67 234 CURVE SMOOTH",
"55 171 OFFCURVE",
"43 108 OFFCURVE",
"43 39 CURVE SMOOTH",
"43 -88 OFFCURVE",
"104 -152 OFFCURVE",
"188 -152 CURVE SMOOTH",
"211 -152 OFFCURVE",
"233 -150 OFFCURVE",
"254 -139 CURVE SMOOTH",
"260 -136 OFFCURVE",
"262 -128 OFFCURVE",
"262 -119 CURVE SMOOTH",
"262 -96 OFFCURVE",
"252 -67 OFFCURVE",
"232 -67 CURVE SMOOTH",
"223 -67 OFFCURVE",
"203 -72 OFFCURVE",
"191 -72 CURVE SMOOTH",
"147 -72 OFFCURVE",
"120 -52 OFFCURVE",
"120 42 CURVE SMOOTH",
"120 92 OFFCURVE",
"131 151 OFFCURVE",
"143 211 CURVE SMOOTH",
"156 275 OFFCURVE",
"169 341 OFFCURVE",
"169 401 CURVE SMOOTH"
);
}
);
width = 242;
}
);
category = Letter;
},
{
glyphname = NU;
lastChange = "2018-11-05 20:04:34 +0000";
layers = (
{
layerId = "0717401B-DDB5-4983-85F2-A81AFE530D5E";
paths = (
{
closed = 1;
nodes = (
"342 143 OFFCURVE",
"389 211 OFFCURVE",
"389 307 CURVE SMOOTH",
"389 419 OFFCURVE",
"320 504 OFFCURVE",
"211 504 CURVE SMOOTH",
"118 504 OFFCURVE",
"58 438 OFFCURVE",
"58 340 CURVE SMOOTH",
"58 230 OFFCURVE",
"129 143 OFFCURVE",
"237 143 CURVE SMOOTH"
);
},
{
closed = 1;
nodes = (
"174 223 OFFCURVE",
"141 259 OFFCURVE",
"141 318 CURVE SMOOTH",
"141 378 OFFCURVE",
"175 422 OFFCURVE",
"230 422 CURVE SMOOTH",
"279 422 OFFCURVE",
"309 379 OFFCURVE",
"309 328 CURVE SMOOTH",
"309 271 OFFCURVE",
"279 223 OFFCURVE",
"222 223 CURVE SMOOTH"
);
},
{
closed = 1;
nodes = (
"507 367 LINE",
"513 338 OFFCURVE",
"517 293 OFFCURVE",
"517 260 CURVE SMOOTH",
"517 71 OFFCURVE",
"448 -66 OFFCURVE",
"298 -66 CURVE SMOOTH",
"204 -66 OFFCURVE",
"140 -18 OFFCURVE",
"111 20 CURVE SMOOTH",
"98 37 OFFCURVE",
"91 48 OFFCURVE",
"80 48 CURVE SMOOTH",
"62 48 OFFCURVE",
"58 14 OFFCURVE",
"58 -9 CURVE SMOOTH",
"58 -76 OFFCURVE",
"175 -150 OFFCURVE",
"306 -150 CURVE SMOOTH",
"520 -150 OFFCURVE",
"602 10 OFFCURVE",
"602 244 CURVE SMOOTH",
"602 346 OFFCURVE",
"590 430 OFFCURVE",
"568 499 CURVE SMOOTH",
"559 527 OFFCURVE",
"532 544 OFFCURVE",
"509 544 CURVE SMOOTH",
"489 544 OFFCURVE",
"473 534 OFFCURVE",
"473 511 CURVE SMOOTH",
"473 496 OFFCURVE",
"483 460 OFFCURVE",
"491 434 CURVE",
"467 404 OFFCURVE",
"425 386 OFFCURVE",
"362 383 CURVE",
"349 313 LINE",
"359 310 OFFCURVE",
"374 308 OFFCURVE",
"383 308 CURVE SMOOTH",
"449 308 OFFCURVE",
"505 325 OFFCURVE",
"545 355 CURVE"
);
}
);
width = 678;
}
);
note = NU;
category = Letter;
},
{
glyphname = PU;
lastChange = "2018-11-05 20:04:34 +0000";
layers = (
{
layerId = "0717401B-DDB5-4983-85F2-A81AFE530D5E";
paths = (
{
closed = 1;
nodes = (
"407 312 OFFCURVE",
"409 281 OFFCURVE",
"409 247 CURVE SMOOTH",
"409 58 OFFCURVE",
"370 -66 OFFCURVE",
"240 -66 CURVE SMOOTH",
"166 -66 OFFCURVE",
"112 -18 OFFCURVE",
"83 20 CURVE SMOOTH",
"70 37 OFFCURVE",
"63 48 OFFCURVE",
"52 48 CURVE SMOOTH",
"34 48 OFFCURVE",
"30 14 OFFCURVE",
"30 -9 CURVE SMOOTH",
"30 -76 OFFCURVE",
"137 -150 OFFCURVE",
"248 -150 CURVE SMOOTH",
"442 -150 OFFCURVE",
"494 10 OFFCURVE",
"494 244 CURVE SMOOTH",
"494 346 OFFCURVE",
"477 475 OFFCURVE",
"450 544 CURVE SMOOTH",
"439 572 OFFCURVE",
"414 589 OFFCURVE",
"391 589 CURVE SMOOTH",
"371 589 OFFCURVE",
"354 578 OFFCURVE",
"354 555 CURVE SMOOTH",
"354 527 OFFCURVE",
"392 482 OFFCURVE",
"392 402 CURVE SMOOTH",
"392 310 OFFCURVE",
"314 282 OFFCURVE",
"263 282 CURVE SMOOTH",
"219 282 OFFCURVE",
"201 303 OFFCURVE",
"199 339 CURVE SMOOTH",
"198 365 OFFCURVE",
"196 459 OFFCURVE",
"196 497 CURVE SMOOTH",
"196 577 OFFCURVE",
"140 620 OFFCURVE",
"67 620 CURVE SMOOTH",
"44 620 OFFCURVE",
"32 592 OFFCURVE",
"32 569 CURVE SMOOTH",
"32 553 OFFCURVE",
"38 540 OFFCURVE",
"50 539 CURVE SMOOTH",
"111 534 OFFCURVE",
"115 505 OFFCURVE",
"115 477 CURVE SMOOTH",
"115 457 OFFCURVE",
"114 409 OFFCURVE",
"114 370 CURVE SMOOTH",
"114 351 OFFCURVE",
"114 333 OFFCURVE",
"115 324 CURVE SMOOTH",
"122 254 OFFCURVE",
"187 202 OFFCURVE",
"268 202 CURVE SMOOTH",
"321 202 OFFCURVE",
"376 221 OFFCURVE",
"433 289 CURVE",
"403 340 LINE"
);
}
);
width = 564;
}
);
note = PU;
category = Letter;
},
{
glyphname = PHI;
lastChange = "2018-11-05 20:04:34 +0000";
layers = (
{
layerId = "0717401B-DDB5-4983-85F2-A81AFE530D5E";
paths = (
{
closed = 1;
nodes = (
"109 431 OFFCURVE",
"113 386 OFFCURVE",
"119 347 CURVE SMOOTH",
"131 268 OFFCURVE",
"183 221 OFFCURVE",
"277 221 CURVE SMOOTH",
"376 221 OFFCURVE",
"419 271 OFFCURVE",
"444 327 CURVE",
"433 341 LINE",
"391 191 OFFCURVE",
"324 93 OFFCURVE",
"208 81 CURVE SMOOTH",
"178 78 OFFCURVE",
"161 70 OFFCURVE",
"161 46 CURVE SMOOTH",
"161 23 OFFCURVE",
"181 -4 OFFCURVE",
"211 -4 CURVE SMOOTH",
"316 -4 OFFCURVE",
"415 78 OFFCURVE",
"466 208 CURVE SMOOTH",
"511 322 OFFCURVE",
"550 430 OFFCURVE",
"550 457 CURVE SMOOTH",
"550 490 OFFCURVE",
"525 520 OFFCURVE",
"492 520 CURVE SMOOTH",
"476 520 OFFCURVE",
"470 505 OFFCURVE",
"457 459 CURVE SMOOTH",
"438 393 OFFCURVE",
"387 306 OFFCURVE",
"278 306 CURVE SMOOTH",
"221 306 OFFCURVE",
"201 324 OFFCURVE",
"194 383 CURVE SMOOTH",
"188 434 OFFCURVE",
"174 473 OFFCURVE",
"145 506 CURVE SMOOTH",
"117 538 OFFCURVE",
"85 559 OFFCURVE",
"58 559 CURVE SMOOTH",
"37 559 OFFCURVE",
"10 540 OFFCURVE",
"10 513 CURVE SMOOTH",
"10 493 OFFCURVE",
"28 484 OFFCURVE",
"54 467 CURVE SMOOTH"
);
},
{
closed = 1;
nodes = (
"545 24 OFFCURVE",
"594 -5 OFFCURVE",
"657 -5 CURVE SMOOTH",
"773 -5 OFFCURVE",
"806 160 OFFCURVE",
"824 368 CURVE SMOOTH",
"841 560 OFFCURVE",
"857 640 OFFCURVE",
"945 640 CURVE SMOOTH",
"995 640 OFFCURVE",
"1026 598 OFFCURVE",
"1048 598 CURVE SMOOTH",
"1061 598 OFFCURVE",
"1070 613 OFFCURVE",
"1070 627 CURVE SMOOTH",
"1070 650 OFFCURVE",
"1058 667 OFFCURVE",
"1045 680 CURVE SMOOTH",
"1020 705 OFFCURVE",
"979 720 OFFCURVE",
"938 720 CURVE SMOOTH",
"810 720 OFFCURVE",
"768 624 OFFCURVE",
"749 420 CURVE SMOOTH",
"720 105 OFFCURVE",
"683 69 OFFCURVE",
"648 69 CURVE SMOOTH",
"631 69 OFFCURVE",
"621 79 OFFCURVE",
"621 96 CURVE SMOOTH",
"621 126 OFFCURVE",
"638 147 OFFCURVE",
"638 193 CURVE SMOOTH",
"638 238 OFFCURVE",
"607 286 OFFCURVE",
"543 286 CURVE SMOOTH",
"513 286 OFFCURVE",
"479 271 OFFCURVE",
"463 254 CURVE",
"444 184 LINE",
"455 199 OFFCURVE",
"487 217 OFFCURVE",
"519 217 CURVE SMOOTH",
"550 217 OFFCURVE",
"559 202 OFFCURVE",
"559 183 CURVE SMOOTH",
"559 153 OFFCURVE",
"545 118 OFFCURVE",
"545 85 CURVE SMOOTH"
);
}
);
width = 1076;
}
);
note = PHI;
rightMetricsKey = kj_E;
category = Letter;
},
{
glyphname = PHII;
lastChange = "2018-11-05 20:04:34 +0000";
layers = (
{
layerId = "0717401B-DDB5-4983-85F2-A81AFE530D5E";
paths = (
{
closed = 1;
nodes = (
"109 431 OFFCURVE",
"113 386 OFFCURVE",
"119 347 CURVE SMOOTH",
"131 268 OFFCURVE",
"183 221 OFFCURVE",
"277 221 CURVE SMOOTH",
"376 221 OFFCURVE",
"419 271 OFFCURVE",
"444 327 CURVE",
"433 341 LINE",
"391 191 OFFCURVE",
"324 93 OFFCURVE",
"208 81 CURVE SMOOTH",
"178 78 OFFCURVE",
"161 70 OFFCURVE",
"161 46 CURVE SMOOTH",
"161 23 OFFCURVE",
"181 -4 OFFCURVE",
"211 -4 CURVE SMOOTH",
"316 -4 OFFCURVE",
"415 78 OFFCURVE",
"466 208 CURVE SMOOTH",
"511 322 OFFCURVE",
"550 430 OFFCURVE",
"550 457 CURVE SMOOTH",
"550 490 OFFCURVE",
"525 520 OFFCURVE",
"492 520 CURVE SMOOTH",
"476 520 OFFCURVE",
"470 505 OFFCURVE",
"457 459 CURVE SMOOTH",
"438 393 OFFCURVE",
"387 306 OFFCURVE",
"278 306 CURVE SMOOTH",
"221 306 OFFCURVE",
"201 324 OFFCURVE",
"194 383 CURVE SMOOTH",
"188 434 OFFCURVE",
"174 473 OFFCURVE",
"145 506 CURVE SMOOTH",
"117 538 OFFCURVE",
"85 559 OFFCURVE",
"58 559 CURVE SMOOTH",
"37 559 OFFCURVE",
"10 540 OFFCURVE",
"10 513 CURVE SMOOTH",
"10 493 OFFCURVE",
"28 484 OFFCURVE",
"54 467 CURVE SMOOTH"
);
},
{
closed = 1;
nodes = (
"559 153 OFFCURVE",
"539 118 OFFCURVE",
"539 85 CURVE SMOOTH",
"539 31 OFFCURVE",
"581 -4 OFFCURVE",
"635 -4 CURVE SMOOTH",
"738 -4 OFFCURVE",
"758 130 OFFCURVE",
"790 254 CURVE SMOOTH",
"825 389 OFFCURVE",
"845 470 OFFCURVE",
"880 470 CURVE SMOOTH",
"907 470 OFFCURVE",
"915 443 OFFCURVE",
"915 387 CURVE SMOOTH",
"915 336 OFFCURVE",
"905 286 OFFCURVE",
"893 234 CURVE SMOOTH",
"879 172 OFFCURVE",
"867 112 OFFCURVE",
"867 40 CURVE SMOOTH",
"867 -86 OFFCURVE",
"928 -152 OFFCURVE",
"1012 -152 CURVE SMOOTH",
"1035 -152 OFFCURVE",
"1057 -150 OFFCURVE",
"1078 -139 CURVE SMOOTH",
"1084 -136 OFFCURVE",
"1086 -128 OFFCURVE",
"1086 -119 CURVE SMOOTH",
"1086 -96 OFFCURVE",
"1076 -67 OFFCURVE",
"1056 -67 CURVE SMOOTH",
"1047 -67 OFFCURVE",
"1027 -72 OFFCURVE",
"1015 -72 CURVE SMOOTH",
"971 -72 OFFCURVE",
"944 -50 OFFCURVE",
"944 43 CURVE SMOOTH",
"944 99 OFFCURVE",
"954 149 OFFCURVE",
"966 205 CURVE SMOOTH",
"978 262 OFFCURVE",
"990 320 OFFCURVE",
"990 386 CURVE SMOOTH",
"990 483 OFFCURVE",
"950 551 OFFCURVE",
"872 551 CURVE SMOOTH",
"788 551 OFFCURVE",
"755 455 OFFCURVE",
"718 291 CURVE SMOOTH",
"684 142 OFFCURVE",
"660 69 OFFCURVE",
"629 69 CURVE SMOOTH",
"621 69 OFFCURVE",
"614 73 OFFCURVE",
"614 88 CURVE SMOOTH",
"614 119 OFFCURVE",
"638 146 OFFCURVE",
"638 192 CURVE SMOOTH",
"638 237 OFFCURVE",
"607 286 OFFCURVE",
"543 286 CURVE SMOOTH",
"513 286 OFFCURVE",
"479 271 OFFCURVE",
"463 254 CURVE",
"444 184 LINE",
"455 199 OFFCURVE",
"487 217 OFFCURVE",
"519 217 CURVE SMOOTH",
"550 217 OFFCURVE",
"559 202 OFFCURVE",
"559 183 CURVE SMOOTH"
);
}
);
width = 1076;
}
);
leftMetricsKey = kj_PHA;
note = PHII;
category = Letter;
},
{
glyphname = PHU;
lastChange = "2018-11-05 20:04:34 +0000";
layers = (
{
layerId = "0717401B-DDB5-4983-85F2-A81AFE530D5E";
paths = (
{
closed = 1;
nodes = (
"124 431 OFFCURVE",
"128 386 OFFCURVE",
"134 347 CURVE SMOOTH",
"146 268 OFFCURVE",
"198 221 OFFCURVE",
"292 221 CURVE SMOOTH",
"391 221 OFFCURVE",
"434 271 OFFCURVE",
"459 327 CURVE",
"448 341 LINE",
"408 191 OFFCURVE",
"345 111 OFFCURVE",
"249 98 CURVE SMOOTH",
"219 94 OFFCURVE",
"202 87 OFFCURVE",
"202 63 CURVE SMOOTH",
"202 40 OFFCURVE",
"222 13 OFFCURVE",
"252 13 CURVE SMOOTH",
"327 13 OFFCURVE",
"428 79 OFFCURVE",
"481 208 CURVE SMOOTH",
"528 322 OFFCURVE",
"565 430 OFFCURVE",
"565 457 CURVE SMOOTH",
"565 490 OFFCURVE",
"540 520 OFFCURVE",
"507 520 CURVE SMOOTH",
"491 520 OFFCURVE",
"485 505 OFFCURVE",
"472 459 CURVE SMOOTH",
"453 393 OFFCURVE",
"402 306 OFFCURVE",
"293 306 CURVE SMOOTH",
"236 306 OFFCURVE",
"216 324 OFFCURVE",
"209 383 CURVE SMOOTH",
"203 434 OFFCURVE",
"189 473 OFFCURVE",
"160 506 CURVE SMOOTH",
"132 538 OFFCURVE",
"100 559 OFFCURVE",
"73 559 CURVE SMOOTH",
"52 559 OFFCURVE",
"25 540 OFFCURVE",
"25 513 CURVE SMOOTH",
"25 493 OFFCURVE",
"43 484 OFFCURVE",
"69 467 CURVE SMOOTH"
);
},
{
closed = 1;
nodes = (
"556 23 OFFCURVE",
"606 -3 OFFCURVE",
"656 -3 CURVE",
"656 7 LINE",
"605 -54 OFFCURVE",
"503 -83 OFFCURVE",
"402 -83 CURVE SMOOTH",
"240 -83 OFFCURVE",
"137 -18 OFFCURVE",
"98 53 CURVE SMOOTH",
"74 97 OFFCURVE",
"70 115 OFFCURVE",
"53 115 CURVE SMOOTH",
"35 115 OFFCURVE",
"28 83 OFFCURVE",
"28 54 CURVE SMOOTH",
"28 -40 OFFCURVE",
"164 -165 OFFCURVE",
"408 -165 CURVE SMOOTH",
"602 -165 OFFCURVE",
"740 -79 OFFCURVE",
"740 9 CURVE SMOOTH",
"740 44 OFFCURVE",
"730 69 OFFCURVE",
"710 69 CURVE SMOOTH",
"701 69 OFFCURVE",
"689 64 OFFCURVE",
"668 64 CURVE SMOOTH",
"649 64 OFFCURVE",
"636 72 OFFCURVE",
"636 98 CURVE SMOOTH",
"636 128 OFFCURVE",
"653 147 OFFCURVE",
"653 193 CURVE SMOOTH",
"653 238 OFFCURVE",
"622 286 OFFCURVE",
"558 286 CURVE SMOOTH",
"528 286 OFFCURVE",
"494 271 OFFCURVE",
"478 254 CURVE",
"459 184 LINE",
"470 199 OFFCURVE",
"502 217 OFFCURVE",
"534 217 CURVE SMOOTH",
"565 217 OFFCURVE",
"574 202 OFFCURVE",
"574 183 CURVE SMOOTH",
"574 153 OFFCURVE",
"556 117 OFFCURVE",
"556 84 CURVE SMOOTH"
);
}
);
width = 775;
}
);
note = PHU;
category = Letter;
},
{
glyphname = BU;
lastChange = "2018-11-05 20:04:34 +0000";
layers = (
{
layerId = "0717401B-DDB5-4983-85F2-A81AFE530D5E";
paths = (
{
closed = 1;
nodes = (
"536 468 OFFCURVE",
"567 454 OFFCURVE",
"567 410 CURVE SMOOTH",
"567 397 OFFCURVE",
"565 387 OFFCURVE",
"562 379 CURVE",
"626 423 LINE",
"623 503 OFFCURVE",
"576 555 OFFCURVE",
"491 555 CURVE SMOOTH",
"346 555 OFFCURVE",
"244 386 OFFCURVE",
"244 290 CURVE SMOOTH",
"244 267 OFFCURVE",
"268 244 OFFCURVE",
"301 244 CURVE SMOOTH",
"350 244 OFFCURVE",
"356 333 OFFCURVE",
"360 416 CURVE",
"335 365 LINE",
"333 312 LINE",
"360 406 OFFCURVE",
"428 468 OFFCURVE",
"494 468 CURVE SMOOTH"
);
},
{
closed = 1;
nodes = (
"328 528 OFFCURVE",
"286 556 OFFCURVE",
"230 556 CURVE SMOOTH",
"189 556 OFFCURVE",
"169 556 OFFCURVE",
"150 560 CURVE SMOOTH",
"121 566 OFFCURVE",
"116 584 OFFCURVE",
"112 601 CURVE SMOOTH",
"109 615 OFFCURVE",
"104 627 OFFCURVE",
"85 627 CURVE SMOOTH",
"65 627 OFFCURVE",
"41 609 OFFCURVE",
"41 580 CURVE SMOOTH",
"41 538 OFFCURVE",
"64 476 OFFCURVE",
"177 476 CURVE SMOOTH",
"241 476 OFFCURVE",
"285 474 OFFCURVE",
"296 419 CURVE",
"348 470 LINE"
);
},
{
closed = 1;
nodes = (
"892 455 OFFCURVE",
"863 553 OFFCURVE",
"745 553 CURVE SMOOTH",
"619 553 OFFCURVE",
"512 371 OFFCURVE",
"512 270 CURVE SMOOTH",
"512 248 OFFCURVE",
"540 224 OFFCURVE",
"569 224 CURVE SMOOTH",
"584 224 OFFCURVE",
"593 227 OFFCURVE",
"599 234 CURVE",
"617 339 OFFCURVE",
"684 466 OFFCURVE",
"748 466 CURVE SMOOTH",
"792 466 OFFCURVE",
"805 435 OFFCURVE",
"805 377 CURVE SMOOTH",
"805 205 OFFCURVE",
"683 66 OFFCURVE",
"441 66 CURVE SMOOTH",
"272 66 OFFCURVE",
"155 131 OFFCURVE",
"99 213 CURVE SMOOTH",
"70 256 OFFCURVE",
"72 275 OFFCURVE",
"55 275 CURVE SMOOTH",
"37 275 OFFCURVE",
"30 243 OFFCURVE",
"30 214 CURVE SMOOTH",
"30 120 OFFCURVE",
"175 -18 OFFCURVE",
"445 -18 CURVE SMOOTH",
"760 -18 OFFCURVE",
"892 170 OFFCURVE",
"892 365 CURVE SMOOTH"
);
}
);
width = 961;
}
);
leftMetricsKey = kj_BA;
note = BU;
rightMetricsKey = kj_BA;
category = Letter;
},
{
glyphname = BBU;
lastChange = "2018-11-05 20:04:34 +0000";
layers = (
{
layerId = "0717401B-DDB5-4983-85F2-A81AFE530D5E";
paths = (
{
closed = 1;
nodes = (
"241 219 OFFCURVE",
"177 124 OFFCURVE",
"177 103 CURVE SMOOTH",
"177 79 OFFCURVE",
"204 64 OFFCURVE",
"228 64 CURVE SMOOTH",
"244 64 OFFCURVE",
"262 67 OFFCURVE",
"270 87 CURVE SMOOTH",
"288 132 OFFCURVE",
"324 226 OFFCURVE",
"324 334 CURVE SMOOTH",
"324 489 OFFCURVE",
"248 553 OFFCURVE",
"158 553 CURVE SMOOTH",
"66 553 OFFCURVE",
"27 491 OFFCURVE",
"27 420 CURVE SMOOTH",
"27 324 OFFCURVE",
"109 245 OFFCURVE",
"251 245 CURVE SMOOTH",
"534 245 LINE",
"534 320 LINE",
"289 320 LINE SMOOTH",
"177 320 OFFCURVE",
"110 339 OFFCURVE",
"110 410 CURVE SMOOTH",
"110 444 OFFCURVE",
"128 472 OFFCURVE",
"176 472 CURVE SMOOTH",
"211 472 OFFCURVE",
"241 440 OFFCURVE",
"241 354 CURVE SMOOTH"
);
},
{
closed = 1;
nodes = (
"524 61 OFFCURVE",
"440 -66 OFFCURVE",
"280 -66 CURVE SMOOTH",
"176 -66 OFFCURVE",
"106 -18 OFFCURVE",
"77 20 CURVE SMOOTH",
"64 37 OFFCURVE",
"57 48 OFFCURVE",
"46 48 CURVE SMOOTH",
"28 48 OFFCURVE",
"24 14 OFFCURVE",
"24 -9 CURVE SMOOTH",
"24 -76 OFFCURVE",
"147 -150 OFFCURVE",
"288 -150 CURVE SMOOTH",
"512 -150 OFFCURVE",
"611 14 OFFCURVE",
"611 248 CURVE SMOOTH",
"611 352 OFFCURVE",
"597 435 OFFCURVE",
"577 496 CURVE SMOOTH",
"562 542 OFFCURVE",
"549 556 OFFCURVE",
"523 556 CURVE SMOOTH",
"501 556 OFFCURVE",
"474 539 OFFCURVE",
"474 510 CURVE SMOOTH",
"474 483 OFFCURVE",
"524 415 OFFCURVE",
"524 249 CURVE SMOOTH"
);
}
);
width = 681;
}
);
leftMetricsKey = kj_BBA;
note = BBU;
rightMetricsKey = kj_vs_AA;
category = Letter;
},
{
glyphname = BHU;
lastChange = "2018-11-05 20:04:34 +0000";
layers = (
{
layerId = "0717401B-DDB5-4983-85F2-A81AFE530D5E";
paths = (
{
closed = 1;
nodes = (
"610 243 LINE",
"610 318 LINE",
"405 318 LINE",
"452 243 LINE"
);
},
{
closed = 1;
nodes = (
"472 412 OFFCURVE",
"365 449 OFFCURVE",
"291 449 CURVE SMOOTH",
"220 449 OFFCURVE",
"188 458 OFFCURVE",
"180 496 CURVE SMOOTH",
"176 516 OFFCURVE",
"174 537 OFFCURVE",
"151 537 CURVE SMOOTH",
"131 537 OFFCURVE",
"105 522 OFFCURVE",
"105 493 CURVE SMOOTH",
"105 407 OFFCURVE",
"172 365 OFFCURVE",
"275 365 CURVE SMOOTH",
"341 365 OFFCURVE",
"394 350 OFFCURVE",
"394 269 CURVE SMOOTH",
"394 195 OFFCURVE",
"344 163 OFFCURVE",
"283 163 CURVE SMOOTH",
"205 163 OFFCURVE",
"156 214 OFFCURVE",
"133 254 CURVE SMOOTH",
"122 273 OFFCURVE",
"113 291 OFFCURVE",
"101 291 CURVE SMOOTH",
"80 291 OFFCURVE",
"72 246 OFFCURVE",
"72 224 CURVE SMOOTH",
"72 168 OFFCURVE",
"164 79 OFFCURVE",
"284 79 CURVE SMOOTH",
"390 79 OFFCURVE",
"472 138 OFFCURVE",
"472 259 CURVE SMOOTH"
);
},
{
closed = 1;
nodes = (
"607 51 OFFCURVE",
"507 -66 OFFCURVE",
"335 -66 CURVE SMOOTH",
"223 -66 OFFCURVE",
"159 -19 OFFCURVE",
"122 22 CURVE SMOOTH",
"108 38 OFFCURVE",
"100 48 OFFCURVE",
"89 48 CURVE SMOOTH",
"71 48 OFFCURVE",
"67 14 OFFCURVE",
"67 -9 CURVE SMOOTH",
"67 -76 OFFCURVE",
"183 -150 OFFCURVE",
"344 -150 CURVE SMOOTH",
"592 -150 OFFCURVE",
"694 14 OFFCURVE",
"694 248 CURVE SMOOTH",
"694 352 OFFCURVE",
"680 435 OFFCURVE",
"660 496 CURVE SMOOTH",
"645 542 OFFCURVE",
"632 556 OFFCURVE",
"606 556 CURVE SMOOTH",
"584 556 OFFCURVE",
"557 539 OFFCURVE",
"557 510 CURVE SMOOTH",
"557 483 OFFCURVE",
"607 415 OFFCURVE",
"607 249 CURVE SMOOTH"
);
}
);
width = 764;
}
);
leftMetricsKey = kj_BHA;
note = BHU;
rightMetricsKey = kj_vs_AA;
category = Letter;
},
{
glyphname = MU;
lastChange = "2018-11-05 20:04:34 +0000";
layers = (
{
layerId = "0717401B-DDB5-4983-85F2-A81AFE530D5E";
paths = (
{
closed = 1;
nodes = (
"542 -66 OFFCURVE",
"328 -66 CURVE SMOOTH",
"216 -66 OFFCURVE",
"148 -18 OFFCURVE",
"115 22 CURVE SMOOTH",
"101 39 OFFCURVE",
"93 48 OFFCURVE",
"82 48 CURVE SMOOTH",
"64 48 OFFCURVE",
"60 14 OFFCURVE",
"60 -9 CURVE SMOOTH",
"60 -76 OFFCURVE",
"176 -150 OFFCURVE",
"337 -150 CURVE SMOOTH",
"605 -150 OFFCURVE",
"698 74 OFFCURVE",
"698 333 CURVE SMOOTH",
"698 449 OFFCURVE",
"672 555 OFFCURVE",
"557 555 CURVE SMOOTH",
"480 555 OFFCURVE",
"405 513 OFFCURVE",
"312 437 CURVE SMOOTH",
"209 353 OFFCURVE",
"140 278 OFFCURVE",
"140 196 CURVE SMOOTH",
"140 129 OFFCURVE",
"189 61 OFFCURVE",
"285 61 CURVE SMOOTH",
"380 61 OFFCURVE",
"416 130 OFFCURVE",
"416 220 CURVE SMOOTH",
"416 294 OFFCURVE",
"400 367 OFFCURVE",
"388 407 CURVE SMOOTH",
"355 514 OFFCURVE",
"315 556 OFFCURVE",
"239 556 CURVE SMOOTH",
"198 556 OFFCURVE",
"177 556 OFFCURVE",
"159 560 CURVE SMOOTH",
"130 566 OFFCURVE",
"125 584 OFFCURVE",
"121 601 CURVE SMOOTH",
"118 615 OFFCURVE",
"113 627 OFFCURVE",
"94 627 CURVE SMOOTH",
"74 627 OFFCURVE",
"50 609 OFFCURVE",
"50 580 CURVE SMOOTH",
"50 538 OFFCURVE",
"73 476 OFFCURVE",
"186 476 CURVE SMOOTH",
"277 476 OFFCURVE",
"301 456 OFFCURVE",
"318 396 CURVE SMOOTH",
"330 354 OFFCURVE",
"342 304 OFFCURVE",
"342 257 CURVE SMOOTH",
"342 196 OFFCURVE",
"317 146 OFFCURVE",
"271 146 CURVE SMOOTH",
"243 146 OFFCURVE",
"225 159 OFFCURVE",
"225 188 CURVE SMOOTH",
"225 226 OFFCURVE",
"277 294 OFFCURVE",
"360 362 CURVE SMOOTH",
"458 443 OFFCURVE",
"515 470 OFFCURVE",
"568 470 CURVE SMOOTH",
"602 470 OFFCURVE",
"614 437 OFFCURVE",
"614 345 CURVE SMOOTH",
"614 145 OFFCURVE"
);
}
);
width = 768;
}
);
leftMetricsKey = kj_MA;
note = MU;
rightMetricsKey = kj_MA;
category = Letter;
},
{
glyphname = YU;
lastChange = "2018-11-05 20:04:34 +0000";
layers = (
{
layerId = "0717401B-DDB5-4983-85F2-A81AFE530D5E";
paths = (
{
closed = 1;
nodes = (
"787 127 OFFCURVE",
"852 188 OFFCURVE",
"852 282 CURVE SMOOTH",
"852 381 OFFCURVE",
"778 451 OFFCURVE",
"678 451 CURVE SMOOTH",
"580 451 OFFCURVE",
"514 391 OFFCURVE",
"514 296 CURVE SMOOTH",
"514 200 OFFCURVE",
"584 127 OFFCURVE",
"688 127 CURVE SMOOTH"
);
},
{
closed = 1;
nodes = (
"387 127 OFFCURVE",
"452 188 OFFCURVE",
"452 282 CURVE SMOOTH",
"452 381 OFFCURVE",
"378 451 OFFCURVE",
"278 451 CURVE SMOOTH",
"180 451 OFFCURVE",
"114 391 OFFCURVE",
"114 296 CURVE SMOOTH",
"114 200 OFFCURVE",
"184 127 OFFCURVE",
"288 127 CURVE SMOOTH"
);
},
{
closed = 1;
nodes = (
"231 211 OFFCURVE",
"195 239 OFFCURVE",
"195 288 CURVE SMOOTH",
"195 334 OFFCURVE",
"231 367 OFFCURVE",
"286 367 CURVE SMOOTH",
"336 367 OFFCURVE",
"373 338 OFFCURVE",
"373 290 CURVE SMOOTH",
"373 244 OFFCURVE",
"336 211 OFFCURVE",
"282 211 CURVE SMOOTH"
);
},
{
closed = 1;
nodes = (
"631 211 OFFCURVE",
"595 239 OFFCURVE",
"595 288 CURVE SMOOTH",
"595 334 OFFCURVE",
"631 367 OFFCURVE",
"686 367 CURVE SMOOTH",
"736 367 OFFCURVE",
"773 338 OFFCURVE",
"773 290 CURVE SMOOTH",
"773 244 OFFCURVE",
"736 211 OFFCURVE",
"682 211 CURVE SMOOTH"
);
},
{
closed = 1;
nodes = (
"1071 466 OFFCURVE",
"960 559 OFFCURVE",
"911 559 CURVE SMOOTH",
"880 559 OFFCURVE",
"856 537 OFFCURVE",
"856 510 CURVE SMOOTH",
"856 490 OFFCURVE",
"870 483 OFFCURVE",
"887 476 CURVE SMOOTH",
"954 448 OFFCURVE",
"984 383 OFFCURVE",
"984 267 CURVE SMOOTH",
"984 59 OFFCURVE",
"825 -61 OFFCURVE",
"535 -61 CURVE SMOOTH",
"251 -61 OFFCURVE",
"128 63 OFFCURVE",
"103 100 CURVE SMOOTH",
"90 119 OFFCURVE",
"83 128 OFFCURVE",
"72 128 CURVE SMOOTH",
"54 128 OFFCURVE",
"50 94 OFFCURVE",
"50 71 CURVE SMOOTH",
"50 4 OFFCURVE",
"213 -150 OFFCURVE",
"544 -150 CURVE SMOOTH",
"910 -150 OFFCURVE",
"1071 22 OFFCURVE",
"1071 271 CURVE SMOOTH"
);
}
);
width = 1141;
}
);
leftMetricsKey = kj_YA;
note = YU;
rightMetricsKey = kj_YA;
category = Letter;
},
{
glyphname = RI;
lastChange = "2018-11-05 20:04:34 +0000";
layers = (
{
layerId = "0717401B-DDB5-4983-85F2-A81AFE530D5E";
paths = (
{
closed = 1;
nodes = (
"406 297 LINE",
"439 375 OFFCURVE",
"446 428 OFFCURVE",
"446 475 CURVE SMOOTH",
"446 535 OFFCURVE",
"428 584 OFFCURVE",
"418 600 CURVE SMOOTH",
"408 616 OFFCURVE",
"399 625 OFFCURVE",
"380 625 CURVE SMOOTH",
"362 625 OFFCURVE",
"328 609 OFFCURVE",
"328 586 CURVE SMOOTH",
"328 557 OFFCURVE",
"360 526 OFFCURVE",
"360 443 CURVE SMOOTH",
"360 336 OFFCURVE",
"306 292 OFFCURVE",
"306 266 CURVE SMOOTH",
"306 240 OFFCURVE",
"338 224 OFFCURVE",
"368 224 CURVE SMOOTH",
"454 224 OFFCURVE",
"517 294 OFFCURVE",
"596 454 CURVE SMOOTH",
"676 616 OFFCURVE",
"720 638 OFFCURVE",
"783 638 CURVE SMOOTH",
"852 638 OFFCURVE",
"872 596 OFFCURVE",
"894 596 CURVE SMOOTH",
"907 596 OFFCURVE",
"916 611 OFFCURVE",
"916 625 CURVE SMOOTH",
"916 648 OFFCURVE",
"904 665 OFFCURVE",
"891 678 CURVE SMOOTH",
"865 704 OFFCURVE",
"821 718 OFFCURVE",
"775 718 CURVE SMOOTH",
"671 718 OFFCURVE",
"603 654 OFFCURVE",
"539 518 CURVE SMOOTH",
"494 422 OFFCURVE",
"461 354 OFFCURVE",
"396 305 CURVE"
);
},
{
closed = 1;
nodes = (
"177 677 OFFCURVE",
"118 719 OFFCURVE",
"45 719 CURVE SMOOTH",
"22 719 OFFCURVE",
"10 691 OFFCURVE",
"10 668 CURVE SMOOTH",
"10 652 OFFCURVE",
"16 639 OFFCURVE",
"28 638 CURVE SMOOTH",
"89 633 OFFCURVE",
"93 602 OFFCURVE",
"93 573 CURVE SMOOTH",
"93 454 OFFCURVE",
"117 275 OFFCURVE",
"180 168 CURVE SMOOTH",
"254 42 OFFCURVE",
"412 -46 OFFCURVE",
"600 -46 CURVE SMOOTH",
"639 -46 OFFCURVE",
"643 -13 OFFCURVE",
"643 4 CURVE SMOOTH",
"643 23 OFFCURVE",
"630 33 OFFCURVE",
"613 34 CURVE SMOOTH",
"434 45 OFFCURVE",
"327 103 OFFCURVE",
"263 191 CURVE SMOOTH",
"203 274 OFFCURVE",
"176 420 OFFCURVE",
"176 555 CURVE SMOOTH",
"176 569 OFFCURVE",
"177 588 OFFCURVE",
"177 601 CURVE SMOOTH"
);
}
);
width = 922;
}
);
leftMetricsKey = kj_RA;
note = RI;
rightMetricsKey = kj_E;
category = Letter;
},
{
glyphname = RII;
lastChange = "2018-11-05 20:04:34 +0000";
layers = (
{
layerId = "0717401B-DDB5-4983-85F2-A81AFE530D5E";
paths = (
{
closed = 1;
nodes = (
"177 676 OFFCURVE",
"118 719 OFFCURVE",
"45 719 CURVE SMOOTH",
"22 719 OFFCURVE",
"10 691 OFFCURVE",
"10 668 CURVE SMOOTH",
"10 652 OFFCURVE",
"16 639 OFFCURVE",
"28 638 CURVE SMOOTH",
"89 633 OFFCURVE",
"93 602 OFFCURVE",
"93 573 CURVE SMOOTH",
"93 454 OFFCURVE",
"124 277 OFFCURVE",
"180 168 CURVE SMOOTH",
"250 32 OFFCURVE",
"392 -46 OFFCURVE",
"490 -46 CURVE SMOOTH",
"529 -46 OFFCURVE",
"533 -13 OFFCURVE",
"533 4 CURVE SMOOTH",
"533 23 OFFCURVE",
"520 32 OFFCURVE",
"503 34 CURVE SMOOTH",
"414 42 OFFCURVE",
"323 93 OFFCURVE",
"263 191 CURVE SMOOTH",
"210 278 OFFCURVE",
"176 427 OFFCURVE",
"176 563 CURVE SMOOTH",
"176 574 OFFCURVE",
"177 591 OFFCURVE",
"177 602 CURVE SMOOTH"
);
},
{
closed = 1;
nodes = (
"446 535 OFFCURVE",
"428 584 OFFCURVE",
"418 600 CURVE SMOOTH",
"408 616 OFFCURVE",
"399 625 OFFCURVE",
"380 625 CURVE SMOOTH",
"362 625 OFFCURVE",
"328 609 OFFCURVE",
"328 586 CURVE SMOOTH",
"328 557 OFFCURVE",
"360 526 OFFCURVE",
"360 443 CURVE SMOOTH",
"360 336 OFFCURVE",
"306 292 OFFCURVE",
"306 266 CURVE SMOOTH",
"306 240 OFFCURVE",
"338 224 OFFCURVE",
"368 224 CURVE SMOOTH",
"442 224 OFFCURVE",
"524 300 OFFCURVE",
"576 382 CURVE SMOOTH",
"600 420 OFFCURVE",
"620 452 OFFCURVE",
"635 477 CURVE SMOOTH",
"661 520 OFFCURVE",
"680 544 OFFCURVE",
"698 544 CURVE SMOOTH",
"713 544 OFFCURVE",
"719 530 OFFCURVE",
"719 503 CURVE SMOOTH",
"719 461 OFFCURVE",
"710 417 OFFCURVE",
"697 358 CURVE SMOOTH",
"684 300 OFFCURVE",
"671 239 OFFCURVE",
"671 182 CURVE SMOOTH",
"671 55 OFFCURVE",
"732 -9 OFFCURVE",
"816 -9 CURVE SMOOTH",
"839 -9 OFFCURVE",
"861 -7 OFFCURVE",
"882 4 CURVE SMOOTH",
"888 7 OFFCURVE",
"890 15 OFFCURVE",
"890 24 CURVE SMOOTH",
"890 47 OFFCURVE",
"880 76 OFFCURVE",
"860 76 CURVE SMOOTH",
"851 76 OFFCURVE",
"831 71 OFFCURVE",
"819 71 CURVE SMOOTH",
"775 71 OFFCURVE",
"748 91 OFFCURVE",
"748 185 CURVE SMOOTH",
"748 234 OFFCURVE",
"757 273 OFFCURVE",
"770 325 CURVE SMOOTH",
"783 375 OFFCURVE",
"795 426 OFFCURVE",
"795 487 CURVE SMOOTH",
"795 573 OFFCURVE",
"759 628 OFFCURVE",
"693 628 CURVE SMOOTH",
"632 628 OFFCURVE",
"594 581 OFFCURVE",
"541 487 CURVE SMOOTH",
"489 395 OFFCURVE",
"458 351 OFFCURVE",
"384 311 CURVE",
"406 297 LINE",
"439 375 OFFCURVE",
"446 428 OFFCURVE",
"446 475 CURVE SMOOTH"
);
}
);
width = 900;
}
);
leftMetricsKey = kj_RA;
note = RII;
category = Letter;
},
{
glyphname = RU;
lastChange = "2018-11-05 20:04:34 +0000";
layers = (
{
layerId = "0717401B-DDB5-4983-85F2-A81AFE530D5E";
paths = (
{
closed = 1;
nodes = (
"656 -46 OFFCURVE",
"660 -13 OFFCURVE",
"660 4 CURVE SMOOTH",
"660 23 OFFCURVE",
"647 33 OFFCURVE",
"630 34 CURVE SMOOTH",
"471 43 OFFCURVE",
"384 115 OFFCURVE",
"330 203 CURVE SMOOTH",
"285 276 OFFCURVE",
"276 374 OFFCURVE",
"276 485 CURVE SMOOTH",
"276 521 OFFCURVE",
"278 563 OFFCURVE",
"278 601 CURVE SMOOTH",
"278 677 OFFCURVE",
"219 719 OFFCURVE",
"146 719 CURVE SMOOTH",
"123 719 OFFCURVE",
"111 691 OFFCURVE",
"111 668 CURVE SMOOTH",
"111 652 OFFCURVE",
"117 639 OFFCURVE",
"129 638 CURVE SMOOTH",
"190 633 OFFCURVE",
"194 602 OFFCURVE",
"194 573 CURVE SMOOTH",
"194 444 OFFCURVE",
"192 291 OFFCURVE",
"247 180 CURVE SMOOTH",
"310 54 OFFCURVE",
"449 -46 OFFCURVE",
"617 -46 CURVE SMOOTH"
);
},
{
closed = 1;
nodes = (
"392 76 OFFCURVE",
"551 267 OFFCURVE",
"551 483 CURVE SMOOTH",
"551 510 OFFCURVE",
"523 530 OFFCURVE",
"503 530 CURVE SMOOTH",
"488 530 OFFCURVE",
"466 523 OFFCURVE",
"466 492 CURVE SMOOTH",
"466 299 OFFCURVE",
"334 154 OFFCURVE",
"147 154 CURVE SMOOTH",
"83 154 OFFCURVE",
"51 173 OFFCURVE",
"28 173 CURVE SMOOTH",
"20 173 OFFCURVE",
"14 166 OFFCURVE",
"14 157 CURVE SMOOTH",
"14 114 OFFCURVE",
"72 76 OFFCURVE",
"141 76 CURVE SMOOTH"
);
}
);
width = 650;
}
);
note = RU;
rightMetricsKey = kj_RA;
category = Letter;
},
{
glyphname = LU;
lastChange = "2018-11-05 20:04:34 +0000";
layers = (
{
layerId = "0717401B-DDB5-4983-85F2-A81AFE530D5E";
paths = (
{
closed = 1;
nodes = (
"170 243 LINE",
"199 226 LINE",
"282 273 OFFCURVE",
"330 334 OFFCURVE",
"330 406 CURVE SMOOTH",
"330 512 OFFCURVE",
"259 558 OFFCURVE",
"163 558 CURVE SMOOTH",
"101 558 OFFCURVE",
"20 533 OFFCURVE",
"20 488 CURVE SMOOTH",
"20 465 OFFCURVE",
"36 437 OFFCURVE",
"58 437 CURVE SMOOTH",
"89 437 OFFCURVE",
"119 476 OFFCURVE",
"176 476 CURVE SMOOTH",
"219 476 OFFCURVE",
"250 458 OFFCURVE",
"250 414 CURVE SMOOTH",
"250 337 OFFCURVE",
"153 278 OFFCURVE",
"84 247 CURVE SMOOTH",
"75 243 OFFCURVE",
"72 236 OFFCURVE",
"72 226 CURVE SMOOTH",
"72 203 OFFCURVE",
"111 168 OFFCURVE",
"145 168 CURVE SMOOTH",
"500 168 LINE",
"509 243 LINE"
);
},
{
closed = 1;
nodes = (
"495 61 OFFCURVE",
"425 -66 OFFCURVE",
"275 -66 CURVE SMOOTH",
"181 -66 OFFCURVE",
"117 -18 OFFCURVE",
"88 20 CURVE SMOOTH",
"75 37 OFFCURVE",
"68 48 OFFCURVE",
"57 48 CURVE SMOOTH",
"39 48 OFFCURVE",
"35 14 OFFCURVE",
"35 -9 CURVE SMOOTH",
"35 -76 OFFCURVE",
"152 -150 OFFCURVE",
"283 -150 CURVE SMOOTH",
"497 -150 OFFCURVE",
"582 14 OFFCURVE",
"582 248 CURVE SMOOTH",
"582 352 OFFCURVE",
"568 435 OFFCURVE",
"548 496 CURVE SMOOTH",
"533 542 OFFCURVE",
"520 556 OFFCURVE",
"494 556 CURVE SMOOTH",
"472 556 OFFCURVE",
"445 539 OFFCURVE",
"445 510 CURVE SMOOTH",
"445 483 OFFCURVE",
"495 415 OFFCURVE",
"495 249 CURVE SMOOTH"
);
}
);
width = 652;
}
);
leftMetricsKey = kj_LA;
note = LU;
rightMetricsKey = kj_vs_AA;
category = Letter;
},
{
glyphname = VU;
lastChange = "2018-11-05 20:04:34 +0000";
layers = (
{
layerId = "0717401B-DDB5-4983-85F2-A81AFE530D5E";
paths = (
{
closed = 1;
nodes = (
"422 423 OFFCURVE",
"327 459 OFFCURVE",
"250 459 CURVE SMOOTH",
"154 459 OFFCURVE",
"86 410 OFFCURVE",
"86 311 CURVE SMOOTH",
"86 216 OFFCURVE",
"155 140 OFFCURVE",
"278 140 CURVE SMOOTH",
"357 140 OFFCURVE",
"432 171 OFFCURVE",
"463 203 CURVE",
"463 305 LINE",
"414 251 OFFCURVE",
"340 221 OFFCURVE",
"264 221 CURVE SMOOTH",
"210 221 OFFCURVE",
"171 246 OFFCURVE",
"171 294 CURVE SMOOTH",
"171 334 OFFCURVE",
"203 372 OFFCURVE",
"275 372 CURVE SMOOTH",
"331 372 OFFCURVE",
"412 339 OFFCURVE",
"463 264 CURVE",
"474 329 LINE"
);
},
{
closed = 1;
nodes = (
"457 61 OFFCURVE",
"390 -66 OFFCURVE",
"240 -66 CURVE SMOOTH",
"146 -66 OFFCURVE",
"82 -18 OFFCURVE",
"53 20 CURVE SMOOTH",
"40 37 OFFCURVE",
"33 48 OFFCURVE",
"22 48 CURVE SMOOTH",
"4 48 OFFCURVE",
"0 14 OFFCURVE",
"0 -9 CURVE SMOOTH",
"0 -76 OFFCURVE",
"117 -150 OFFCURVE",
"248 -150 CURVE SMOOTH",
"462 -150 OFFCURVE",
"544 14 OFFCURVE",
"544 248 CURVE SMOOTH",
"544 352 OFFCURVE",
"533 435 OFFCURVE",
"513 496 CURVE SMOOTH",
"498 542 OFFCURVE",
"485 556 OFFCURVE",
"459 556 CURVE SMOOTH",
"437 556 OFFCURVE",
"410 539 OFFCURVE",
"410 510 CURVE SMOOTH",
"410 483 OFFCURVE",
"457 415 OFFCURVE",
"457 249 CURVE SMOOTH"
);
}
);
width = 614;
}
);
note = VU;
rightMetricsKey = kj_vs_AA;
category = Letter;
},
{
glyphname = SU;
lastChange = "2018-11-05 20:04:34 +0000";
layers = (
{
layerId = "0717401B-DDB5-4983-85F2-A81AFE530D5E";
paths = (
{
closed = 1;
nodes = (
"107 437 OFFCURVE",
"119 364 OFFCURVE",
"132 286 CURVE SMOOTH",
"151 173 OFFCURVE",
"185 86 OFFCURVE",
"304 43 CURVE SMOOTH",
"340 30 OFFCURVE",
"369 30 OFFCURVE",
"401 30 CURVE SMOOTH",
"421 30 OFFCURVE",
"431 48 OFFCURVE",
"431 67 CURVE SMOOTH",
"431 87 OFFCURVE",
"422 111 OFFCURVE",
"408 111 CURVE SMOOTH",
"371 111 OFFCURVE",
"333 113 OFFCURVE",
"292 144 CURVE SMOOTH",
"243 181 OFFCURVE",
"217 230 OFFCURVE",
"205 314 CURVE SMOOTH",
"193 399 OFFCURVE",
"179 470 OFFCURVE",
"154 506 CURVE SMOOTH",
"129 542 OFFCURVE",
"100 559 OFFCURVE",
"73 559 CURVE SMOOTH",
"52 559 OFFCURVE",
"25 540 OFFCURVE",
"25 513 CURVE SMOOTH",
"25 493 OFFCURVE",
"42 487 OFFCURVE",
"68 467 CURVE SMOOTH"
);
},
{
closed = 1;
nodes = (
"604 312 OFFCURVE",
"606 281 OFFCURVE",
"606 247 CURVE SMOOTH",
"606 68 OFFCURVE",
"516 -66 OFFCURVE",
"336 -66 CURVE SMOOTH",
"188 -66 OFFCURVE",
"121 22 OFFCURVE",
"92 60 CURVE SMOOTH",
"79 77 OFFCURVE",
"72 88 OFFCURVE",
"61 88 CURVE SMOOTH",
"43 88 OFFCURVE",
"39 54 OFFCURVE",
"39 31 CURVE SMOOTH",
"39 -36 OFFCURVE",
"148 -150 OFFCURVE",
"339 -150 CURVE SMOOTH",
"583 -150 OFFCURVE",
"691 30 OFFCURVE",
"691 254 CURVE SMOOTH",
"691 346 OFFCURVE",
"674 475 OFFCURVE",
"647 544 CURVE SMOOTH",
"636 572 OFFCURVE",
"611 589 OFFCURVE",
"588 589 CURVE SMOOTH",
"568 589 OFFCURVE",
"551 578 OFFCURVE",
"551 555 CURVE SMOOTH",
"551 527 OFFCURVE",
"589 482 OFFCURVE",
"589 402 CURVE SMOOTH",
"589 310 OFFCURVE",
"511 282 OFFCURVE",
"460 282 CURVE SMOOTH",
"416 282 OFFCURVE",
"398 302 OFFCURVE",
"396 338 CURVE SMOOTH",
"395 364 OFFCURVE",
"393 459 OFFCURVE",
"393 497 CURVE SMOOTH",
"393 577 OFFCURVE",
"337 620 OFFCURVE",
"264 620 CURVE SMOOTH",
"241 620 OFFCURVE",
"229 592 OFFCURVE",
"229 569 CURVE SMOOTH",
"229 553 OFFCURVE",
"235 540 OFFCURVE",
"247 539 CURVE SMOOTH",
"308 534 OFFCURVE",
"312 505 OFFCURVE",
"312 477 CURVE SMOOTH",
"312 457 OFFCURVE",
"311 409 OFFCURVE",
"311 370 CURVE SMOOTH",
"311 350 OFFCURVE",
"311 333 OFFCURVE",
"312 324 CURVE SMOOTH",
"319 254 OFFCURVE",
"384 202 OFFCURVE",
"465 202 CURVE SMOOTH",
"518 202 OFFCURVE",
"573 221 OFFCURVE",
"630 289 CURVE",
"600 340 LINE"
);
}
);
width = 761;
}
);
note = SU;
rightMetricsKey = PU;
category = Letter;
},
{
glyphname = HA.alt;
lastChange = "2018-11-05 20:04:34 +0000";
layers = (
{
layerId = "0717401B-DDB5-4983-85F2-A81AFE530D5E";
paths = (
{
closed = 1;
nodes = (
"275 245 LINE",
"238 259 OFFCURVE",
"196 288 OFFCURVE",
"196 312 CURVE SMOOTH",
"196 332 OFFCURVE",
"230 347 OFFCURVE",
"272 364 CURVE SMOOTH",
"360 399 OFFCURVE",
"423 424 OFFCURVE",
"423 494 CURVE SMOOTH",
"423 563 OFFCURVE",
"362 621 OFFCURVE",
"265 621 CURVE SMOOTH",
"43 621 LINE SMOOTH",
"26 621 OFFCURVE",
"15 599 OFFCURVE",
"15 579 CURVE SMOOTH",
"15 562 OFFCURVE",
"23 546 OFFCURVE",
"41 546 CURVE SMOOTH",
"275 546 LINE SMOOTH",
"310 546 OFFCURVE",
"336 538 OFFCURVE",
"336 513 CURVE SMOOTH",
"336 481 OFFCURVE",
"285 462 OFFCURVE",
"232 442 CURVE SMOOTH",
"167 418 OFFCURVE",
"95 391 OFFCURVE",
"95 335 CURVE SMOOTH",
"95 285 OFFCURVE",
"155 242 OFFCURVE",
"227 199 CURVE"
);
},
{
closed = 1;
nodes = (
"263 192 OFFCURVE",
"311 219 OFFCURVE",
"412 219 CURVE SMOOTH",
"456 219 OFFCURVE",
"506 205 OFFCURVE",
"534 189 CURVE",
"550 262 LINE",
"516 279 OFFCURVE",
"460 295 OFFCURVE",
"389 295 CURVE SMOOTH",
"236 295 OFFCURVE",
"120 190 OFFCURVE",
"120 111 CURVE SMOOTH",
"120 90 OFFCURVE",
"143 72 OFFCURVE",
"177 72 CURVE SMOOTH",
"196 72 OFFCURVE",
"208 77 OFFCURVE",
"219 100 CURVE SMOOTH"
);
}
);
width = 450;
}
);
leftMetricsKey = kj_HA;
note = HA.alt;
category = Letter;
},
{
glyphname = HU;
lastChange = "2018-11-05 20:04:34 +0000";
layers = (
{
layerId = "0717401B-DDB5-4983-85F2-A81AFE530D5E";
paths = (
{
closed = 1;
nodes = (
"328 245 LINE",
"291 259 OFFCURVE",
"249 288 OFFCURVE",
"249 312 CURVE SMOOTH",
"249 332 OFFCURVE",
"283 347 OFFCURVE",
"325 364 CURVE SMOOTH",
"413 399 OFFCURVE",
"476 424 OFFCURVE",
"476 494 CURVE SMOOTH",
"476 563 OFFCURVE",
"415 621 OFFCURVE",
"318 621 CURVE SMOOTH",
"96 621 LINE SMOOTH",
"79 621 OFFCURVE",
"68 599 OFFCURVE",
"68 579 CURVE SMOOTH",
"68 562 OFFCURVE",
"76 546 OFFCURVE",
"94 546 CURVE SMOOTH",
"328 546 LINE SMOOTH",
"363 546 OFFCURVE",
"389 538 OFFCURVE",
"389 513 CURVE SMOOTH",
"389 481 OFFCURVE",
"339 462 OFFCURVE",
"285 442 CURVE SMOOTH",
"220 418 OFFCURVE",
"148 391 OFFCURVE",
"148 335 CURVE SMOOTH",
"148 285 OFFCURVE",
"208 242 OFFCURVE",
"280 199 CURVE"
);
},
{
closed = 1;
nodes = (
"356 2 OFFCURVE",
"385 2 CURVE SMOOTH",
"454 2 OFFCURVE",
"536 68 OFFCURVE",
"536 156 CURVE SMOOTH",
"536 243 OFFCURVE",
"469 290 OFFCURVE",
"373 290 CURVE SMOOTH",
"257 290 OFFCURVE",
"150 190 OFFCURVE",
"150 123 CURVE SMOOTH",
"150 102 OFFCURVE",
"173 84 OFFCURVE",
"207 84 CURVE SMOOTH",
"226 84 OFFCURVE",
"238 89 OFFCURVE",
"249 112 CURVE SMOOTH",
"277 170 OFFCURVE",
"316 212 OFFCURVE",
"394 212 CURVE SMOOTH",
"434 212 OFFCURVE",
"456 192 OFFCURVE",
"456 157 CURVE SMOOTH",
"456 111 OFFCURVE",
"413 94 OFFCURVE",
"379 82 CURVE SMOOTH",
"357 74 OFFCURVE",
"337 66 OFFCURVE",
"337 51 CURVE SMOOTH",
"337 27 OFFCURVE"
);
},
{
closed = 1;
nodes = (
"486 32 OFFCURVE",
"518 12 OFFCURVE",
"518 -27 CURVE SMOOTH",
"518 -74 OFFCURVE",
"463 -107 OFFCURVE",
"362 -107 CURVE SMOOTH",
"244 -107 OFFCURVE",
"175 -53 OFFCURVE",
"119 17 CURVE SMOOTH",
"88 56 OFFCURVE",
"85 79 OFFCURVE",
"68 79 CURVE SMOOTH",
"50 79 OFFCURVE",
"45 47 OFFCURVE",
"45 18 CURVE SMOOTH",
"45 -48 OFFCURVE",
"158 -189 OFFCURVE",
"364 -189 CURVE SMOOTH",
"525 -189 OFFCURVE",
"596 -121 OFFCURVE",
"596 -36 CURVE SMOOTH",
"596 19 OFFCURVE",
"563 65 OFFCURVE",
"494 99 CURVE",
"455 38 LINE"
);
}
);
width = 666;
}
);
note = HU;
category = Letter;
},
{
glyphname = LLU;
lastChange = "2018-11-05 20:04:34 +0000";
layers = (
{
layerId = "0717401B-DDB5-4983-85F2-A81AFE530D5E";
paths = (
{
closed = 1;
nodes = (
"578 4 OFFCURVE",
"594 -19 OFFCURVE",
"594 -46 CURVE SMOOTH",
"594 -127 OFFCURVE",
"498 -153 OFFCURVE",
"352 -153 CURVE SMOOTH",
"245 -153 OFFCURVE",
"166 -125 OFFCURVE",
"136 -110 CURVE SMOOTH",
"122 -103 OFFCURVE",
"114 -99 OFFCURVE",
"103 -99 CURVE SMOOTH",
"84 -99 OFFCURVE",
"80 -125 OFFCURVE",
"80 -143 CURVE SMOOTH",
"80 -193 OFFCURVE",
"179 -233 OFFCURVE",
"354 -233 CURVE SMOOTH",
"554 -233 OFFCURVE",
"674 -181 OFFCURVE",
"674 -47 CURVE SMOOTH",
"674 -7 OFFCURVE",
"656 35 OFFCURVE",
"616 69 CURVE",
"546 27 LINE"
);
},
{
closed = 1;
nodes = (
"159 87 OFFCURVE",
"127 119 OFFCURVE",
"127 174 CURVE SMOOTH",
"127 241 OFFCURVE",
"174 295 OFFCURVE",
"239 295 CURVE SMOOTH",
"290 295 OFFCURVE",
"326 266 OFFCURVE",
"326 210 CURVE SMOOTH",
"326 140 OFFCURVE",
"268 87 OFFCURVE",
"208 87 CURVE SMOOTH"
);
},
{
closed = 1;
nodes = (
"450 88 OFFCURVE",
"412 135 OFFCURVE",
"399 201 CURVE",
"386 169 LINE",
"402 143 LINE",
"434 235 OFFCURVE",
"492 290 OFFCURVE",
"548 290 CURVE SMOOTH",
"590 290 OFFCURVE",
"617 259 OFFCURVE",
"617 203 CURVE SMOOTH",
"617 143 OFFCURVE",
"569 88 OFFCURVE",
"504 88 CURVE SMOOTH"
);
},
{
closed = 1;
nodes = (
"475 330 LINE",
"495 361 OFFCURVE",
"500 387 OFFCURVE",
"500 430 CURVE SMOOTH",
"500 510 OFFCURVE",
"444 560 OFFCURVE",
"371 560 CURVE SMOOTH",
"348 560 OFFCURVE",
"336 532 OFFCURVE",
"336 509 CURVE SMOOTH",
"336 493 OFFCURVE",
"342 480 OFFCURVE",
"354 479 CURVE SMOOTH",
"415 474 OFFCURVE",
"419 441 OFFCURVE",
"419 413 CURVE SMOOTH",
"419 376 OFFCURVE",
"405 317 OFFCURVE",
"362 272 CURVE",
"380 277 LINE",
"358 337 OFFCURVE",
"300 380 OFFCURVE",
"222 380 CURVE SMOOTH",
"114 380 OFFCURVE",
"45 297 OFFCURVE",
"45 187 CURVE SMOOTH",
"45 84 OFFCURVE",
"107 4 OFFCURVE",
"217 4 CURVE SMOOTH",
"294 4 OFFCURVE",
"340 43 OFFCURVE",
"380 104 CURVE",
"355 122 LINE",
"384 50 OFFCURVE",
"443 4 OFFCURVE",
"529 4 CURVE SMOOTH",
"623 4 OFFCURVE",
"697 81 OFFCURVE",
"697 191 CURVE SMOOTH",
"697 295 OFFCURVE",
"643 377 OFFCURVE",
"548 377 CURVE SMOOTH",
"515 377 OFFCURVE",
"485 367 OFFCURVE",
"470 354 CURVE"
);
}
);
width = 752;
}
);
category = Letter;
},
{
glyphname = U.alt3;
lastChange = "2018-11-05 20:04:56 +0000";
layers = (
{
layerId = "0717401B-DDB5-4983-85F2-A81AFE530D5E";
paths = (
{
closed = 1;
nodes = (
"-13 -198 OFFCURVE",
"-13 -64 CURVE SMOOTH",
"-13 -6 OFFCURVE",
"-47 62 OFFCURVE",
"-145 62 CURVE SMOOTH",
"-186 62 OFFCURVE",
"-212 56 OFFCURVE",
"-238 41 CURVE SMOOTH",
"-246 37 OFFCURVE",
"-249 28 OFFCURVE",
"-249 19 CURVE SMOOTH",
"-249 -3 OFFCURVE",
"-235 -26 OFFCURVE",
"-216 -26 CURVE SMOOTH",
"-214 -26 OFFCURVE",
"-211 -25 OFFCURVE",
"-208 -24 CURVE SMOOTH",
"-187 -14 OFFCURVE",
"-166 -13 OFFCURVE",
"-146 -13 CURVE SMOOTH",
"-109 -13 OFFCURVE",
"-93 -42 OFFCURVE",
"-93 -63 CURVE SMOOTH",
"-93 -144 OFFCURVE",
"-189 -170 OFFCURVE",
"-304 -170 CURVE SMOOTH",
"-442 -170 OFFCURVE",
"-522 -111 OFFCURVE",
"-551 -73 CURVE SMOOTH",
"-564 -56 OFFCURVE",
"-571 -45 OFFCURVE",
"-582 -45 CURVE SMOOTH",
"-600 -45 OFFCURVE",
"-604 -79 OFFCURVE",
"-604 -102 CURVE SMOOTH",
"-604 -169 OFFCURVE",
"-477 -250 OFFCURVE",
"-304 -250 CURVE SMOOTH",
"-133 -250 OFFCURVE"
);
}
);
width = 0;
}
);
note = U.alt3;
category = Mark;
},
{
glyphname = KSSA;
lastChange = "2018-11-05 20:04:39 +0000";
layers = (
{
layerId = "0717401B-DDB5-4983-85F2-A81AFE530D5E";
paths = (
{
closed = 1;
nodes = (
"326 44 OFFCURVE",
"389 75 OFFCURVE",
"389 118 CURVE SMOOTH",
"389 145 OFFCURVE",
"371 169 OFFCURVE",
"342 169 CURVE SMOOTH",
"307 169 OFFCURVE",
"273 142 OFFCURVE",
"250 109 CURVE",
"282 132 LINE",
"258 121 OFFCURVE",
"241 118 OFFCURVE",
"216 118 CURVE SMOOTH",
"174 118 OFFCURVE",
"138 134 OFFCURVE",
"138 183 CURVE SMOOTH",
"138 230 OFFCURVE",
"179 261 OFFCURVE",
"226 295 CURVE SMOOTH",
"286 338 OFFCURVE",
"354 388 OFFCURVE",
"354 483 CURVE SMOOTH",
"354 563 OFFCURVE",
"300 628 OFFCURVE",
"213 628 CURVE SMOOTH",
"119 628 OFFCURVE",
"76 562 OFFCURVE",
"76 491 CURVE SMOOTH",
"76 370 OFFCURVE",
"224 285 OFFCURVE",
"377 285 CURVE SMOOTH",
"460 285 OFFCURVE",
"516 300 OFFCURVE",
"557 334 CURVE",
"536 430 LINE",
"486 376 OFFCURVE",
"430 362 OFFCURVE",
"364 362 CURVE SMOOTH",
"264 362 OFFCURVE",
"161 399 OFFCURVE",
"161 482 CURVE SMOOTH",
"161 522 OFFCURVE",
"183 552 OFFCURVE",
"222 552 CURVE SMOOTH",
"252 552 OFFCURVE",
"274 527 OFFCURVE",
"274 484 CURVE SMOOTH",
"274 420 OFFCURVE",
"222 384 OFFCURVE",
"170 348 CURVE SMOOTH",
"113 309 OFFCURVE",
"55 268 OFFCURVE",
"55 191 CURVE SMOOTH",
"55 96 OFFCURVE",
"127 44 OFFCURVE",
"227 44 CURVE SMOOTH"
);
},
{
closed = 1;
nodes = (
"240 62 LINE",
"238 50 OFFCURVE",
"237 36 OFFCURVE",
"237 28 CURVE SMOOTH",
"237 -30 OFFCURVE",
"266 -63 OFFCURVE",
"300 -86 CURVE SMOOTH",
"319 -99 OFFCURVE",
"341 -106 OFFCURVE",
"357 -106 CURVE SMOOTH",
"383 -106 OFFCURVE",
"399 -80 OFFCURVE",
"399 -57 CURVE SMOOTH",
"399 -44 OFFCURVE",
"384 -37 OFFCURVE",
"366 -31 CURVE SMOOTH",
"338 -21 OFFCURVE",
"306 -9 OFFCURVE",
"306 36 CURVE SMOOTH",
"306 45 OFFCURVE",
"307 60 OFFCURVE",
"310 73 CURVE"
);
},
{
closed = 1;
nodes = (
"538 -46 OFFCURVE",
"556 -43 OFFCURVE",
"564 -23 CURVE SMOOTH",
"593 50 OFFCURVE",
"606 195 OFFCURVE",
"606 291 CURVE SMOOTH",
"606 420 OFFCURVE",
"580 515 OFFCURVE",
"553 584 CURVE SMOOTH",
"542 612 OFFCURVE",
"533 626 OFFCURVE",
"507 626 CURVE SMOOTH",
"485 626 OFFCURVE",
"458 609 OFFCURVE",
"458 580 CURVE SMOOTH",
"458 533 OFFCURVE",
"521 477 OFFCURVE",
"521 273 CURVE SMOOTH",
"521 97 OFFCURVE",
"471 19 OFFCURVE",
"471 -7 CURVE SMOOTH",
"471 -31 OFFCURVE",
"498 -46 OFFCURVE",
"522 -46 CURVE SMOOTH"
);
}
);
width = 676;
}
);
note = KSSA;
category = Letter;
},
{
glyphname = KSSA.alt;
lastChange = "2018-11-05 20:04:34 +0000";
layers = (
{
layerId = "0717401B-DDB5-4983-85F2-A81AFE530D5E";
paths = (
{
closed = 1;
nodes = (
"326 44 OFFCURVE",
"389 75 OFFCURVE",
"389 118 CURVE SMOOTH",
"389 145 OFFCURVE",
"371 169 OFFCURVE",
"342 169 CURVE SMOOTH",
"307 169 OFFCURVE",
"273 142 OFFCURVE",
"250 109 CURVE",
"282 132 LINE",
"258 121 OFFCURVE",
"241 118 OFFCURVE",
"216 118 CURVE SMOOTH",
"174 118 OFFCURVE",
"138 134 OFFCURVE",
"138 183 CURVE SMOOTH",
"138 230 OFFCURVE",
"180 262 OFFCURVE",
"227 296 CURVE SMOOTH",
"287 339 OFFCURVE",
"354 388 OFFCURVE",
"354 483 CURVE SMOOTH",
"354 563 OFFCURVE",
"300 628 OFFCURVE",
"213 628 CURVE SMOOTH",
"119 628 OFFCURVE",
"76 562 OFFCURVE",
"76 491 CURVE SMOOTH",
"76 370 OFFCURVE",
"224 285 OFFCURVE",
"377 285 CURVE SMOOTH",
"460 285 OFFCURVE",
"516 300 OFFCURVE",
"557 334 CURVE",
"536 430 LINE",
"486 376 OFFCURVE",
"430 362 OFFCURVE",
"364 362 CURVE SMOOTH",
"264 362 OFFCURVE",
"161 399 OFFCURVE",
"161 482 CURVE SMOOTH",
"161 522 OFFCURVE",
"183 552 OFFCURVE",
"222 552 CURVE SMOOTH",
"252 552 OFFCURVE",
"274 527 OFFCURVE",
"274 484 CURVE SMOOTH",
"274 420 OFFCURVE",
"222 383 OFFCURVE",
"169 347 CURVE SMOOTH",
"113 309 OFFCURVE",
"55 268 OFFCURVE",
"55 191 CURVE SMOOTH",
"55 96 OFFCURVE",
"127 44 OFFCURVE",
"227 44 CURVE SMOOTH"
);
},
{
closed = 1;
nodes = (
"240 62 LINE",
"238 50 OFFCURVE",
"237 36 OFFCURVE",
"237 28 CURVE SMOOTH",
"237 -30 OFFCURVE",
"266 -63 OFFCURVE",
"300 -86 CURVE SMOOTH",
"319 -99 OFFCURVE",
"341 -106 OFFCURVE",
"357 -106 CURVE SMOOTH",
"383 -106 OFFCURVE",
"399 -80 OFFCURVE",
"399 -57 CURVE SMOOTH",
"399 -44 OFFCURVE",
"383 -37 OFFCURVE",
"366 -31 CURVE SMOOTH",
"336 -20 OFFCURVE",
"306 -9 OFFCURVE",
"306 36 CURVE SMOOTH",
"306 45 OFFCURVE",
"307 60 OFFCURVE",
"310 73 CURVE"
);
}
);
width = 457;
}
);
leftMetricsKey = KSSA;
note = KSSA.alt;
category = Letter;
},
{
glyphname = GNA;
lastChange = "2018-11-05 20:04:39 +0000";
layers = (
{
layerId = "0717401B-DDB5-4983-85F2-A81AFE530D5E";
paths = (
{
closed = 1;
nodes = (
"339 -47 OFFCURVE",
"384 5 OFFCURVE",
"384 89 CURVE SMOOTH",
"384 147 OFFCURVE",
"355 194 OFFCURVE",
"314 223 CURVE",
"249 210 LINE",
"266 197 OFFCURVE",
"304 162 OFFCURVE",
"304 111 CURVE SMOOTH",
"304 62 OFFCURVE",
"275 30 OFFCURVE",
"218 30 CURVE SMOOTH",
"173 30 OFFCURVE",
"139 49 OFFCURVE",
"139 98 CURVE SMOOTH",
"139 154 OFFCURVE",
"189 175 OFFCURVE",
"284 189 CURVE SMOOTH",
"394 205 OFFCURVE",
"501 235 OFFCURVE",
"537 293 CURVE",
"521 412 LINE",
"494 304 OFFCURVE",
"343 272 OFFCURVE",
"211 255 CURVE SMOOTH",
"114 243 OFFCURVE",
"55 202 OFFCURVE",
"55 116 CURVE SMOOTH",
"55 20 OFFCURVE",
"126 -47 OFFCURVE",
"237 -47 CURVE SMOOTH"
);
},
{
closed = 1;
nodes = (
"333 306 OFFCURVE",
"387 353 OFFCURVE",
"387 429 CURVE SMOOTH",
"387 513 OFFCURVE",
"334 561 OFFCURVE",
"246 561 CURVE SMOOTH",
"175 561 OFFCURVE",
"156 561 OFFCURVE",
"140 586 CURVE SMOOTH",
"127 606 OFFCURVE",
"132 627 OFFCURVE",
"109 627 CURVE SMOOTH",
"89 627 OFFCURVE",
"63 612 OFFCURVE",
"63 583 CURVE SMOOTH",
"63 503 OFFCURVE",
"129 478 OFFCURVE",
"232 478 CURVE SMOOTH",
"290 478 OFFCURVE",
"311 465 OFFCURVE",
"311 438 CURVE SMOOTH",
"311 409 OFFCURVE",
"285 388 OFFCURVE",
"230 388 CURVE SMOOTH",
"185 388 OFFCURVE",
"145 400 OFFCURVE",
"116 429 CURVE SMOOTH",
"103 442 OFFCURVE",
"100 458 OFFCURVE",
"91 458 CURVE SMOOTH",
"75 458 OFFCURVE",
"63 413 OFFCURVE",
"63 396 CURVE SMOOTH",
"63 360 OFFCURVE",
"130 306 OFFCURVE",
"228 306 CURVE SMOOTH"
);
},
{
closed = 1;
nodes = (
"516 -46 OFFCURVE",
"534 -43 OFFCURVE",
"542 -23 CURVE SMOOTH",
"571 50 OFFCURVE",
"584 195 OFFCURVE",
"584 291 CURVE SMOOTH",
"584 420 OFFCURVE",
"558 515 OFFCURVE",
"531 584 CURVE SMOOTH",
"520 612 OFFCURVE",
"511 626 OFFCURVE",
"485 626 CURVE SMOOTH",
"463 626 OFFCURVE",
"436 609 OFFCURVE",
"436 580 CURVE SMOOTH",
"436 533 OFFCURVE",
"499 477 OFFCURVE",
"499 273 CURVE SMOOTH",
"499 97 OFFCURVE",
"449 19 OFFCURVE",
"449 -7 CURVE SMOOTH",
"449 -31 OFFCURVE",
"476 -46 OFFCURVE",
"500 -46 CURVE SMOOTH"
);
}
);
width = 654;
}
);
note = JNYA;
rightMetricsKey = kj_AA;
category = Letter;
},
{
glyphname = TRA;
lastChange = "2018-11-05 20:04:36 +0000";
layers = (
{
layerId = "0717401B-DDB5-4983-85F2-A81AFE530D5E";
paths = (
{
closed = 1;
nodes = (
"424 -6 OFFCURVE",
"442 -3 OFFCURVE",
"450 17 CURVE SMOOTH",
"483 99 OFFCURVE",
"497 205 OFFCURVE",
"497 326 CURVE SMOOTH",
"497 405 OFFCURVE",
"484 473 OFFCURVE",
"469 514 CURVE SMOOTH",
"459 542 OFFCURVE",
"449 556 OFFCURVE",
"423 556 CURVE SMOOTH",
"401 556 OFFCURVE",
"374 539 OFFCURVE",
"374 510 CURVE SMOOTH",
"374 483 OFFCURVE",
"410 425 OFFCURVE",
"410 321 CURVE SMOOTH",
"410 133 OFFCURVE",
"357 59 OFFCURVE",
"357 33 CURVE SMOOTH",
"357 9 OFFCURVE",
"384 -6 OFFCURVE",
"408 -6 CURVE SMOOTH"
);
},
{
closed = 1;
nodes = (
"327 245 OFFCURVE",
"216 205 OFFCURVE",
"89 189 CURVE SMOOTH",
"76 187 OFFCURVE",
"65 170 OFFCURVE",
"65 154 CURVE SMOOTH",
"65 131 OFFCURVE",
"80 107 OFFCURVE",
"110 107 CURVE SMOOTH",
"178 107 OFFCURVE",
"336 149 OFFCURVE",
"426 220 CURVE",
"430 294 LINE",
"413 300 LINE",
"348 447 OFFCURVE",
"206 480 OFFCURVE",
"118 480 CURVE SMOOTH",
"72 480 OFFCURVE",
"35 473 OFFCURVE",
"35 437 CURVE SMOOTH",
"35 415 OFFCURVE",
"48 394 OFFCURVE",
"74 394 CURVE SMOOTH",
"219 394 OFFCURVE",
"319 360 OFFCURVE",
"362 232 CURVE",
"378 286 LINE"
);
}
);
width = 567;
}
);
note = TRA;
rightMetricsKey = kj_vs_AA;
category = Letter;
},
{
glyphname = TRU;
lastChange = "2018-11-05 20:04:34 +0000";
layers = (
{
layerId = "0717401B-DDB5-4983-85F2-A81AFE530D5E";
paths = (
{
closed = 1;
nodes = (
"367 245 OFFCURVE",
"258 206 OFFCURVE",
"130 189 CURVE SMOOTH",
"115 187 OFFCURVE",
"105 170 OFFCURVE",
"105 154 CURVE SMOOTH",
"105 131 OFFCURVE",
"120 107 OFFCURVE",
"150 107 CURVE SMOOTH",
"218 107 OFFCURVE",
"375 149 OFFCURVE",
"465 220 CURVE",
"468 300 LINE",
"403 447 OFFCURVE",
"246 480 OFFCURVE",
"158 480 CURVE SMOOTH",
"112 480 OFFCURVE",
"75 473 OFFCURVE",
"75 437 CURVE SMOOTH",
"75 415 OFFCURVE",
"88 394 OFFCURVE",
"114 394 CURVE SMOOTH",
"259 394 OFFCURVE",
"374 360 OFFCURVE",
"420 232 CURVE",
"418 286 LINE"
);
},
{
closed = 1;
nodes = (
"460 61 OFFCURVE",
"390 -66 OFFCURVE",
"240 -66 CURVE SMOOTH",
"146 -66 OFFCURVE",
"81 -18 OFFCURVE",
"53 20 CURVE SMOOTH",
"41 37 OFFCURVE",
"33 48 OFFCURVE",
"22 48 CURVE SMOOTH",
"4 48 OFFCURVE",
"0 14 OFFCURVE",
"0 -9 CURVE SMOOTH",
"0 -76 OFFCURVE",
"117 -150 OFFCURVE",
"248 -150 CURVE SMOOTH",
"462 -150 OFFCURVE",
"547 14 OFFCURVE",
"547 248 CURVE SMOOTH",
"547 352 OFFCURVE",
"533 435 OFFCURVE",
"513 496 CURVE SMOOTH",
"498 542 OFFCURVE",
"485 556 OFFCURVE",
"459 556 CURVE SMOOTH",
"437 556 OFFCURVE",
"410 539 OFFCURVE",
"410 510 CURVE SMOOTH",
"410 483 OFFCURVE",
"460 415 OFFCURVE",
"460 249 CURVE SMOOTH"
);
}
);
width = 617;
}
);
note = TRU;
category = Letter;
},
{
glyphname = DDDRA;
lastChange = "2018-11-05 20:04:36 +0000";
layers = (
{
layerId = "0717401B-DDB5-4983-85F2-A81AFE530D5E";
paths = (
{
closed = 1;
nodes = (
"298 1 OFFCURVE",
"400 67 OFFCURVE",
"400 170 CURVE SMOOTH",
"400 231 OFFCURVE",
"369 275 OFFCURVE",
"299 300 CURVE",
"307 281 LINE",
"349 306 OFFCURVE",
"369 357 OFFCURVE",
"369 400 CURVE SMOOTH",
"369 505 OFFCURVE",
"290 558 OFFCURVE",
"183 558 CURVE SMOOTH",
"112 558 OFFCURVE",
"20 523 OFFCURVE",
"20 483 CURVE SMOOTH",
"20 463 OFFCURVE",
"38 438 OFFCURVE",
"60 438 CURVE SMOOTH",
"72 438 OFFCURVE",
"85 444 OFFCURVE",
"101 452 CURVE SMOOTH",
"126 464 OFFCURVE",
"158 479 OFFCURVE",
"206 479 CURVE SMOOTH",
"266 479 OFFCURVE",
"296 451 OFFCURVE",
"296 407 CURVE SMOOTH",
"296 347 OFFCURVE",
"243 318 OFFCURVE",
"140 315 CURVE",
"126 312 OFFCURVE",
"120 298 OFFCURVE",
"120 283 CURVE SMOOTH",
"120 263 OFFCURVE",
"133 238 OFFCURVE",
"163 238 CURVE SMOOTH",
"207 238 OFFCURVE",
"261 251 OFFCURVE",
"282 266 CURVE",
"248 260 LINE",
"302 250 OFFCURVE",
"321 216 OFFCURVE",
"321 182 CURVE SMOOTH",
"321 118 OFFCURVE",
"265 81 OFFCURVE",
"149 78 CURVE",
"196 74 LINE",
"148 95 OFFCURVE",
"130 100 OFFCURVE",
"103 100 CURVE SMOOTH",
"76 100 OFFCURVE",
"60 85 OFFCURVE",
"60 57 CURVE SMOOTH",
"60 16 OFFCURVE",
"107 1 OFFCURVE",
"158 1 CURVE SMOOTH"
);
},
{
closed = 1;
nodes = (
"443 -147 OFFCURVE",
"477 -140 OFFCURVE",
"498 -129 CURVE SMOOTH",
"504 -126 OFFCURVE",
"506 -118 OFFCURVE",
"506 -109 CURVE SMOOTH",
"506 -86 OFFCURVE",
"496 -57 OFFCURVE",
"476 -57 CURVE SMOOTH",
"467 -57 OFFCURVE",
"443 -66 OFFCURVE",
"413 -66 CURVE SMOOTH",
"346 -66 OFFCURVE",
"320 -37 OFFCURVE",
"293 -4 CURVE SMOOTH",
"274 19 OFFCURVE",
"249 47 OFFCURVE",
"205 63 CURVE",
"141 19 LINE",
"198 12 OFFCURVE",
"226 -22 OFFCURVE",
"257 -60 CURVE SMOOTH",
"291 -102 OFFCURVE",
"328 -147 OFFCURVE",
"410 -147 CURVE SMOOTH"
);
}
);
width = 476;
}
);
leftMetricsKey = kj_JJA;
note = DRA;
category = Letter;
},
{
glyphname = DDDRU;
lastChange = "2018-11-05 20:04:34 +0000";
layers = (
{
layerId = "0717401B-DDB5-4983-85F2-A81AFE530D5E";
paths = (
{
closed = 1;
nodes = (
"403 11 OFFCURVE",
"495 77 OFFCURVE",
"495 170 CURVE SMOOTH",
"495 231 OFFCURVE",
"464 275 OFFCURVE",
"394 300 CURVE",
"402 281 LINE",
"444 306 OFFCURVE",
"464 357 OFFCURVE",
"464 400 CURVE SMOOTH",
"464 505 OFFCURVE",
"385 558 OFFCURVE",
"278 558 CURVE SMOOTH",
"207 558 OFFCURVE",
"115 523 OFFCURVE",
"115 483 CURVE SMOOTH",
"115 463 OFFCURVE",
"133 438 OFFCURVE",
"155 438 CURVE SMOOTH",
"167 438 OFFCURVE",
"181 444 OFFCURVE",
"197 452 CURVE SMOOTH",
"222 464 OFFCURVE",
"254 479 OFFCURVE",
"301 479 CURVE SMOOTH",
"361 479 OFFCURVE",
"391 451 OFFCURVE",
"391 407 CURVE SMOOTH",
"391 347 OFFCURVE",
"338 318 OFFCURVE",
"235 315 CURVE",
"221 312 OFFCURVE",
"215 298 OFFCURVE",
"215 283 CURVE SMOOTH",
"215 263 OFFCURVE",
"228 238 OFFCURVE",
"258 238 CURVE SMOOTH",
"302 238 OFFCURVE",
"356 251 OFFCURVE",
"377 266 CURVE",
"343 260 LINE",
"397 250 OFFCURVE",
"416 216 OFFCURVE",
"416 182 CURVE SMOOTH",
"416 128 OFFCURVE",
"370 91 OFFCURVE",
"254 88 CURVE",
"301 84 LINE",
"253 105 OFFCURVE",
"235 110 OFFCURVE",
"208 110 CURVE SMOOTH",
"181 110 OFFCURVE",
"165 95 OFFCURVE",
"165 67 CURVE SMOOTH",
"165 26 OFFCURVE",
"212 11 OFFCURVE",
"263 11 CURVE SMOOTH"
);
},
{
closed = 1;
nodes = (
"462 -94 LINE",
"477 -123 OFFCURVE",
"511 -147 OFFCURVE",
"563 -147 CURVE SMOOTH",
"596 -147 OFFCURVE",
"628 -140 OFFCURVE",
"649 -129 CURVE SMOOTH",
"655 -126 OFFCURVE",
"657 -118 OFFCURVE",
"657 -109 CURVE SMOOTH",
"657 -86 OFFCURVE",
"647 -57 OFFCURVE",
"627 -57 CURVE SMOOTH",
"618 -57 OFFCURVE",
"594 -66 OFFCURVE",
"564 -66 CURVE SMOOTH",
"522 -66 OFFCURVE",
"502 -49 OFFCURVE",
"489 -9 CURVE SMOOTH",
"472 43 OFFCURVE",
"448 78 OFFCURVE",
"389 95 CURVE",
"350 48 LINE",
"381 42 OFFCURVE",
"416 22 OFFCURVE",
"416 -27 CURVE SMOOTH",
"416 -74 OFFCURVE",
"379 -107 OFFCURVE",
"278 -107 CURVE SMOOTH",
"190 -107 OFFCURVE",
"121 -73 OFFCURVE",
"73 9 CURVE SMOOTH",
"50 48 OFFCURVE",
"40 79 OFFCURVE",
"23 79 CURVE SMOOTH",
"5 79 OFFCURVE",
"0 47 OFFCURVE",
"0 18 CURVE SMOOTH",
"0 -48 OFFCURVE",
"93 -189 OFFCURVE",
"289 -189 CURVE SMOOTH",
"404 -189 OFFCURVE",
"461 -146 OFFCURVE",
"481 -90 CURVE"
);
}
);
width = 627;
}
);
note = DRU;
rightMetricsKey = DDDRA;
category = Letter;
},
{
glyphname = DDDU;
lastChange = "2018-11-05 20:04:34 +0000";
layers = (
{
layerId = "0717401B-DDB5-4983-85F2-A81AFE530D5E";
paths = (
{
closed = 1;
nodes = (
"215 427 OFFCURVE",
"270 471 OFFCURVE",
"370 523 CURVE SMOOTH",
"414 546 OFFCURVE",
"428 550 OFFCURVE",
"428 566 CURVE SMOOTH",
"428 591 OFFCURVE",
"407 621 OFFCURVE",
"380 621 CURVE SMOOTH",
"78 621 LINE SMOOTH",
"61 621 OFFCURVE",
"50 599 OFFCURVE",
"50 579 CURVE SMOOTH",
"50 562 OFFCURVE",
"58 546 OFFCURVE",
"76 546 CURVE SMOOTH",
"275 546 LINE",
"268 561 LINE",
"171 508 OFFCURVE",
"120 450 OFFCURVE",
"120 386 CURVE SMOOTH",
"120 297 OFFCURVE",
"195 260 OFFCURVE",
"260 245 CURVE",
"264 264 LINE",
"205 228 OFFCURVE",
"187 183 OFFCURVE",
"187 134 CURVE SMOOTH",
"187 39 OFFCURVE",
"261 -6 OFFCURVE",
"354 -6 CURVE SMOOTH",
"469 -6 OFFCURVE",
"575 65 OFFCURVE",
"575 117 CURVE SMOOTH",
"575 135 OFFCURVE",
"551 166 OFFCURVE",
"528 166 CURVE SMOOTH",
"518 166 OFFCURVE",
"506 156 OFFCURVE",
"490 141 CURVE SMOOTH",
"464 117 OFFCURVE",
"422 81 OFFCURVE",
"358 81 CURVE SMOOTH",
"312 81 OFFCURVE",
"282 99 OFFCURVE",
"282 138 CURVE SMOOTH",
"282 198 OFFCURVE",
"342 230 OFFCURVE",
"457 271 CURVE",
"465 276 OFFCURVE",
"468 284 OFFCURVE",
"468 294 CURVE SMOOTH",
"468 319 OFFCURVE",
"446 349 OFFCURVE",
"426 349 CURVE SMOOTH",
"395 349 OFFCURVE",
"350 311 OFFCURVE",
"294 311 CURVE SMOOTH",
"253 311 OFFCURVE",
"215 331 OFFCURVE",
"215 378 CURVE SMOOTH"
);
},
{
closed = 1;
nodes = (
"431 28 LINE",
"451 18 OFFCURVE",
"463 0 OFFCURVE",
"463 -27 CURVE SMOOTH",
"463 -74 OFFCURVE",
"419 -107 OFFCURVE",
"323 -107 CURVE SMOOTH",
"223 -107 OFFCURVE",
"154 -67 OFFCURVE",
"104 13 CURVE SMOOTH",
"77 56 OFFCURVE",
"72 79 OFFCURVE",
"53 79 CURVE SMOOTH",
"35 79 OFFCURVE",
"30 47 OFFCURVE",
"30 18 CURVE SMOOTH",
"30 -48 OFFCURVE",
"126 -189 OFFCURVE",
"326 -189 CURVE SMOOTH",
"477 -189 OFFCURVE",
"541 -125 OFFCURVE",
"541 -41 CURVE SMOOTH",
"541 11 OFFCURVE",
"517 48 OFFCURVE",
"475 76 CURVE"
);
}
);
width = 610;
}
);
note = DDDU;
category = Letter;
},
{
glyphname = NYU;
lastChange = "2018-11-05 20:04:34 +0000";
layers = (
{
layerId = "0717401B-DDB5-4983-85F2-A81AFE530D5E";
paths = (
{
closed = 1;
nodes = (
"513 384 OFFCURVE",
"545 353 OFFCURVE",
"586 353 CURVE SMOOTH",
"627 353 OFFCURVE",
"660 384 OFFCURVE",
"660 422 CURVE SMOOTH",
"660 460 OFFCURVE",
"627 492 OFFCURVE",
"586 492 CURVE SMOOTH",
"545 492 OFFCURVE",
"513 460 OFFCURVE",
"513 422 CURVE SMOOTH"
);
},
{
closed = 1;
nodes = (
"206 -112 OFFCURVE",
"130 -32 OFFCURVE",
"98 1 CURVE SMOOTH",
"86 13 OFFCURVE",
"78 21 OFFCURVE",
"71 21 CURVE SMOOTH",
"53 21 OFFCURVE",
"50 -3 OFFCURVE",
"50 -31 CURVE SMOOTH",
"50 -86 OFFCURVE",
"184 -194 OFFCURVE",
"373 -194 CURVE SMOOTH",
"569 -194 OFFCURVE",
"688 -105 OFFCURVE",
"688 49 CURVE SMOOTH",
"688 132 OFFCURVE",
"653 196 OFFCURVE",
"586 196 CURVE SMOOTH",
"545 196 OFFCURVE",
"513 164 OFFCURVE",
"513 126 CURVE SMOOTH",
"513 88 OFFCURVE",
"545 57 OFFCURVE",
"586 57 CURVE SMOOTH",
"627 57 OFFCURVE",
"640 88 OFFCURVE",
"640 106 CURVE",
"602 106 LINE",
"612 94 OFFCURVE",
"619 74 OFFCURVE",
"619 51 CURVE SMOOTH",
"619 -49 OFFCURVE",
"509 -112 OFFCURVE",
"372 -112 CURVE SMOOTH"
);
},
{
closed = 1;
nodes = (
"350 216 OFFCURVE",
"400 301 OFFCURVE",
"400 378 CURVE SMOOTH",
"400 495 OFFCURVE",
"325 558 OFFCURVE",
"193 558 CURVE SMOOTH",
"117 558 OFFCURVE",
"20 526 OFFCURVE",
"20 486 CURVE SMOOTH",
"20 468 OFFCURVE",
"39 439 OFFCURVE",
"61 439 CURVE SMOOTH",
"72 439 OFFCURVE",
"85 444 OFFCURVE",
"101 451 CURVE SMOOTH",
"128 463 OFFCURVE",
"165 479 OFFCURVE",
"224 479 CURVE SMOOTH",
"290 479 OFFCURVE",
"324 444 OFFCURVE",
"324 391 CURVE SMOOTH",
"324 326 OFFCURVE",
"270 271 OFFCURVE",
"187 269 CURVE",
"155 280 OFFCURVE",
"141 281 OFFCURVE",
"120 281 CURVE SMOOTH",
"93 281 OFFCURVE",
"79 265 OFFCURVE",
"79 235 CURVE SMOOTH",
"79 194 OFFCURVE",
"120 180 OFFCURVE",
"168 180 CURVE SMOOTH",
"194 180 OFFCURVE",
"202 184 OFFCURVE",
"218 189 CURVE",
"173 204 LINE",
"209 180 OFFCURVE",
"215 157 OFFCURVE",
"226 106 CURVE SMOOTH",
"244 24 OFFCURVE",
"287 -17 OFFCURVE",
"371 -17 CURVE SMOOTH",
"404 -17 OFFCURVE",
"438 -10 OFFCURVE",
"459 1 CURVE SMOOTH",
"465 4 OFFCURVE",
"467 12 OFFCURVE",
"467 21 CURVE SMOOTH",
"467 44 OFFCURVE",
"457 73 OFFCURVE",
"437 73 CURVE SMOOTH",
"428 73 OFFCURVE",
"404 64 OFFCURVE",
"374 64 CURVE SMOOTH",
"324 64 OFFCURVE",
"307 83 OFFCURVE",
"296 130 CURVE SMOOTH",
"290 157 OFFCURVE",
"283 187 OFFCURVE",
"257 223 CURVE",
"232 192 LINE"
);
}
);
width = 739;
}
);
leftMetricsKey = kj_NYA;
note = NYU;
rightMetricsKey = kj_NYA;
category = Letter;
},
{
glyphname = GNA.alt;
lastChange = "2018-11-05 20:04:34 +0000";
layers = (
{
layerId = "0717401B-DDB5-4983-85F2-A81AFE530D5E";
paths = (
{
closed = 1;
nodes = (
"339 -47 OFFCURVE",
"384 5 OFFCURVE",
"384 89 CURVE SMOOTH",
"384 147 OFFCURVE",
"355 194 OFFCURVE",
"314 223 CURVE",
"249 210 LINE",
"266 197 OFFCURVE",
"304 162 OFFCURVE",
"304 111 CURVE SMOOTH",
"304 62 OFFCURVE",
"275 30 OFFCURVE",
"218 30 CURVE SMOOTH",
"173 30 OFFCURVE",
"139 49 OFFCURVE",
"139 98 CURVE SMOOTH",
"139 154 OFFCURVE",
"189 175 OFFCURVE",
"284 189 CURVE SMOOTH",
"394 205 OFFCURVE",
"501 235 OFFCURVE",
"537 293 CURVE",
"521 412 LINE",
"494 304 OFFCURVE",
"343 272 OFFCURVE",
"211 255 CURVE SMOOTH",
"114 243 OFFCURVE",
"55 202 OFFCURVE",
"55 116 CURVE SMOOTH",
"55 20 OFFCURVE",
"126 -47 OFFCURVE",
"237 -47 CURVE SMOOTH"
);
},
{
closed = 1;
nodes = (
"333 306 OFFCURVE",
"387 353 OFFCURVE",
"387 429 CURVE SMOOTH",
"387 513 OFFCURVE",
"334 561 OFFCURVE",
"246 561 CURVE SMOOTH",
"175 561 OFFCURVE",
"156 561 OFFCURVE",
"140 586 CURVE SMOOTH",
"127 606 OFFCURVE",
"132 627 OFFCURVE",
"109 627 CURVE SMOOTH",
"89 627 OFFCURVE",
"63 612 OFFCURVE",
"63 583 CURVE SMOOTH",
"63 503 OFFCURVE",
"129 478 OFFCURVE",
"232 478 CURVE SMOOTH",
"290 478 OFFCURVE",
"311 465 OFFCURVE",
"311 438 CURVE SMOOTH",
"311 409 OFFCURVE",
"285 388 OFFCURVE",
"230 388 CURVE SMOOTH",
"185 388 OFFCURVE",
"145 400 OFFCURVE",
"116 429 CURVE SMOOTH",
"103 442 OFFCURVE",
"100 458 OFFCURVE",
"91 458 CURVE SMOOTH",
"75 458 OFFCURVE",
"63 413 OFFCURVE",
"63 396 CURVE SMOOTH",
"63 360 OFFCURVE",
"130 306 OFFCURVE",
"228 306 CURVE SMOOTH"
);
}
);
width = 437;
}
);
note = JNYA.alt;
category = Letter;
},
{
glyphname = RA.alt;
lastChange = "2018-11-05 20:04:45 +0000";
layers = (
{
layerId = "0717401B-DDB5-4983-85F2-A81AFE530D5E";
paths = (
{
closed = 1;
nodes = (
"-75 -111 LINE SMOOTH",
"-68 -105 OFFCURVE",
"-65 -98 OFFCURVE",
"-65 -88 CURVE SMOOTH",
"-65 -66 OFFCURVE",
"-83 -38 OFFCURVE",
"-105 -38 CURVE SMOOTH",
"-110 -38 OFFCURVE",
"-114 -40 OFFCURVE",
"-118 -43 CURVE SMOOTH",
"-340 -214 LINE SMOOTH",
"-353 -224 OFFCURVE",
"-354 -232 OFFCURVE",
"-354 -244 CURVE SMOOTH",
"-354 -262 OFFCURVE",
"-333 -286 OFFCURVE",
"-312 -286 CURVE SMOOTH",
"-303 -286 OFFCURVE",
"-295 -282 OFFCURVE",
"-291 -279 CURVE SMOOTH"
);
}
);
width = 0;
}
);
note = RA.alt;
category = Mark;
},
{
glyphname = YA.alt;
lastChange = "2018-11-05 20:04:39 +0000";
layers = (
{
layerId = "0717401B-DDB5-4983-85F2-A81AFE530D5E";
paths = (
{
closed = 1;
nodes = (
"407 42 OFFCURVE",
"453 235 OFFCURVE",
"453 391 CURVE SMOOTH",
"453 485 OFFCURVE",
"397 560 OFFCURVE",
"289 560 CURVE SMOOTH",
"243 560 OFFCURVE",
"181 545 OFFCURVE",
"181 508 CURVE SMOOTH",
"181 486 OFFCURVE",
"194 463 OFFCURVE",
"218 463 CURVE SMOOTH",
"231 463 OFFCURVE",
"245 480 OFFCURVE",
"285 480 CURVE SMOOTH",
"338 480 OFFCURVE",
"370 449 OFFCURVE",
"370 382 CURVE SMOOTH",
"370 257 OFFCURVE",
"348 149 OFFCURVE",
"332 84 CURVE SMOOTH",
"329 72 OFFCURVE",
"316 16 OFFCURVE",
"316 14 CURVE SMOOTH",
"316 -5 OFFCURVE",
"335 -12 OFFCURVE",
"360 -12 CURVE SMOOTH",
"379 -12 OFFCURVE",
"392 -4 OFFCURVE",
"396 8 CURVE SMOOTH"
);
},
{
closed = 1;
nodes = (
"0 169 OFFCURVE",
"57 112 OFFCURVE",
"135 112 CURVE SMOOTH",
"223 112 OFFCURVE",
"293 169 OFFCURVE",
"293 262 CURVE SMOOTH",
"293 336 OFFCURVE",
"241 394 OFFCURVE",
"156 394 CURVE SMOOTH",
"65 394 OFFCURVE",
"0 321 OFFCURVE",
"0 242 CURVE SMOOTH"
);
},
{
closed = 1;
nodes = (
"76 292 OFFCURVE",
"113 324 OFFCURVE",
"152 324 CURVE SMOOTH",
"192 324 OFFCURVE",
"218 292 OFFCURVE",
"218 253 CURVE SMOOTH",
"218 211 OFFCURVE",
"180 182 OFFCURVE",
"141 182 CURVE SMOOTH",
"99 182 OFFCURVE",
"76 214 OFFCURVE",
"76 253 CURVE SMOOTH"
);
}
);
width = 523;
}
);
note = YA.alt;
category = Letter;
},
{
glyphname = YA.alt2;
lastChange = "2018-11-05 20:04:39 +0000";
layers = (
{
layerId = "0717401B-DDB5-4983-85F2-A81AFE530D5E";
paths = (
{
closed = 1;
nodes = (
"384 42 OFFCURVE",
"430 235 OFFCURVE",
"430 391 CURVE SMOOTH",
"430 485 OFFCURVE",
"374 560 OFFCURVE",
"266 560 CURVE SMOOTH",
"220 560 OFFCURVE",
"158 545 OFFCURVE",
"158 508 CURVE SMOOTH",
"158 486 OFFCURVE",
"171 463 OFFCURVE",
"195 463 CURVE SMOOTH",
"208 463 OFFCURVE",
"222 480 OFFCURVE",
"262 480 CURVE SMOOTH",
"315 480 OFFCURVE",
"347 449 OFFCURVE",
"347 382 CURVE SMOOTH",
"347 237 OFFCURVE",
"326 151 OFFCURVE",
"309 84 CURVE SMOOTH",
"306 72 OFFCURVE",
"293 16 OFFCURVE",
"293 14 CURVE SMOOTH",
"293 -5 OFFCURVE",
"312 -12 OFFCURVE",
"337 -12 CURVE SMOOTH",
"356 -12 OFFCURVE",
"369 -4 OFFCURVE",
"373 8 CURVE SMOOTH"
);
},
{
closed = 1;
nodes = (
"53 293 OFFCURVE",
"87 324 OFFCURVE",
"129 324 CURVE SMOOTH",
"169 324 OFFCURVE",
"195 292 OFFCURVE",
"195 253 CURVE SMOOTH",
"195 211 OFFCURVE",
"157 182 OFFCURVE",
"118 182 CURVE SMOOTH",
"76 182 OFFCURVE",
"53 214 OFFCURVE",
"53 253 CURVE SMOOTH"
);
},
{
closed = 1;
nodes = (
"-136 130 LINE",
"-105 178 OFFCURVE",
"-66 224 OFFCURVE",
"-22 258 CURVE",
"-23 253 OFFCURVE",
"-23 247 OFFCURVE",
"-23 242 CURVE SMOOTH",
"-23 169 OFFCURVE",
"34 112 OFFCURVE",
"112 112 CURVE SMOOTH",
"200 112 OFFCURVE",
"270 169 OFFCURVE",
"270 262 CURVE SMOOTH",
"270 336 OFFCURVE",
"218 394 OFFCURVE",
"133 394 CURVE SMOOTH",
"5 394 OFFCURVE",
"-105 300 OFFCURVE",
"-188 188 CURVE"
);
}
);
width = 500;
}
);
note = YA.alt2;
category = Letter;
},
{
glyphname = YA.alt3;
lastChange = "2018-11-05 20:04:39 +0000";
layers = (
{
layerId = "0717401B-DDB5-4983-85F2-A81AFE530D5E";
paths = (
{
closed = 1;
nodes = (
"451 483 OFFCURVE",
"385 560 OFFCURVE",
"274 560 CURVE SMOOTH",
"83 560 OFFCURVE",
"-84 299 OFFCURVE",
"-160 153 CURVE",
"-133 40 LINE",
"-102 112 OFFCURVE",
"-20 251 OFFCURVE",
"70 354 CURVE",
"70 346 LINE SMOOTH",
"70 234 OFFCURVE",
"139 164 OFFCURVE",
"250 164 CURVE SMOOTH",
"374 164 OFFCURVE",
"451 259 OFFCURVE",
"451 377 CURVE SMOOTH"
);
},
{
closed = 1;
nodes = (
"189 244 OFFCURVE",
"153 284 OFFCURVE",
"153 349 CURVE SMOOTH",
"153 418 OFFCURVE",
"192 480 OFFCURVE",
"268 480 CURVE SMOOTH",
"330 480 OFFCURVE",
"368 437 OFFCURVE",
"368 373 CURVE SMOOTH",
"368 303 OFFCURVE",
"324 244 OFFCURVE",
"252 244 CURVE SMOOTH"
);
}
);
width = 511;
}
);
note = YA.alt3;
category = Letter;
},
{
glyphname = Nukta.alt;
lastChange = "2018-11-05 20:04:51 +0000";
layers = (
{
layerId = "0717401B-DDB5-4983-85F2-A81AFE530D5E";
paths = (
{
closed = 1;
nodes = (
"-145 787 OFFCURVE",
"-113 759 OFFCURVE",
"-73 759 CURVE SMOOTH",
"-33 759 OFFCURVE",
"0 787 OFFCURVE",
"0 822 CURVE SMOOTH",
"0 856 OFFCURVE",
"-33 884 OFFCURVE",
"-73 884 CURVE SMOOTH",
"-113 884 OFFCURVE",
"-145 856 OFFCURVE",
"-145 822 CURVE SMOOTH"
);
},
{
closed = 1;
nodes = (
"-345 787 OFFCURVE",
"-313 759 OFFCURVE",
"-273 759 CURVE SMOOTH",
"-233 759 OFFCURVE",
"-200 787 OFFCURVE",
"-200 822 CURVE SMOOTH",
"-200 856 OFFCURVE",
"-233 884 OFFCURVE",
"-273 884 CURVE SMOOTH",
"-313 884 OFFCURVE",
"-345 856 OFFCURVE",
"-345 822 CURVE SMOOTH"
);
},
{
closed = 1;
nodes = (
"-245 648 OFFCURVE",
"-213 620 OFFCURVE",
"-173 620 CURVE SMOOTH",
"-133 620 OFFCURVE",
"-100 648 OFFCURVE",
"-100 683 CURVE SMOOTH",
"-100 717 OFFCURVE",
"-133 745 OFFCURVE",
"-173 745 CURVE SMOOTH",
"-213 745 OFFCURVE",
"-245 717 OFFCURVE",
"-245 683 CURVE SMOOTH"
);
}
);
width = 0;
}
);
note = Nukta.alt;
category = Mark;
},
{
glyphname = Anusvara.alt;
lastChange = "2018-11-05 20:04:51 +0000";
layers = (
{
layerId = "0717401B-DDB5-4983-85F2-A81AFE530D5E";
paths = (
{
closed = 1;
nodes = (
"-319 657 OFFCURVE",
"-269 605 OFFCURVE",
"-206 605 CURVE SMOOTH",
"-144 605 OFFCURVE",
"-94 650 OFFCURVE",
"-94 713 CURVE SMOOTH",
"-94 777 OFFCURVE",
"-143 829 OFFCURVE",
"-209 829 CURVE SMOOTH",
"-272 829 OFFCURVE",
"-319 782 OFFCURVE",
"-319 719 CURVE SMOOTH"
);
},
{
closed = 1;
nodes = (
"-257 743 OFFCURVE",
"-229 767 OFFCURVE",
"-200 767 CURVE SMOOTH",
"-174 767 OFFCURVE",
"-156 750 OFFCURVE",
"-156 723 CURVE SMOOTH",
"-156 691 OFFCURVE",
"-179 666 OFFCURVE",
"-213 666 CURVE SMOOTH",
"-237 666 OFFCURVE",
"-257 681 OFFCURVE",
"-257 710 CURVE SMOOTH"
);
}
);
width = 0;
}
);
note = Anusvara.alt;
category = Mark;
},
{
glyphname = kj_A;
lastChange = "2018-11-05 20:04:36 +0000";
layers = (
{
layerId = "0717401B-DDB5-4983-85F2-A81AFE530D5E";
paths = (
{
closed = 1;
nodes = (
"713 79 OFFCURVE",
"740 64 OFFCURVE",
"764 64 CURVE SMOOTH",
"780 64 OFFCURVE",
"798 67 OFFCURVE",
"806 87 CURVE SMOOTH",
"823 132 OFFCURVE",
"849 226 OFFCURVE",
"849 312 CURVE SMOOTH",
"849 406 OFFCURVE",
"818 496 OFFCURVE",
"708 496 CURVE SMOOTH",
"638 496 OFFCURVE",
"573 446 OFFCURVE",
"538 398 CURVE",
"557 390 LINE",
"550 446 OFFCURVE",
"500 478 OFFCURVE",
"437 478 CURVE SMOOTH",
"402 478 OFFCURVE",
"369 472 OFFCURVE",
"333 465 CURVE SMOOTH",
"293 457 OFFCURVE",
"249 449 OFFCURVE",
"196 449 CURVE SMOOTH",
"115 449 OFFCURVE",
"83 458 OFFCURVE",
"75 496 CURVE SMOOTH",
"71 516 OFFCURVE",
"69 537 OFFCURVE",
"46 537 CURVE SMOOTH",
"26 537 OFFCURVE",
"0 522 OFFCURVE",
"0 493 CURVE SMOOTH",
"0 408 OFFCURVE",
"67 366 OFFCURVE",
"180 366 CURVE SMOOTH",
"251 366 OFFCURVE",
"295 374 OFFCURVE",
"338 383 CURVE SMOOTH",
"371 390 OFFCURVE",
"397 395 OFFCURVE",
"431 395 CURVE SMOOTH",
"473 395 OFFCURVE",
"487 381 OFFCURVE",
"487 362 CURVE SMOOTH",
"487 344 OFFCURVE",
"474 322 OFFCURVE",
"448 295 CURVE SMOOTH",
"446 293 OFFCURVE",
"445 290 OFFCURVE",
"445 287 CURVE SMOOTH",
"445 272 OFFCURVE",
"480 250 OFFCURVE",
"507 250 CURVE SMOOTH",
"517 250 OFFCURVE",
"527 253 OFFCURVE",
"532 260 CURVE SMOOTH",
"589 339 OFFCURVE",
"652 409 OFFCURVE",
"713 409 CURVE SMOOTH",
"748 409 OFFCURVE",
"762 384 OFFCURVE",
"762 328 CURVE SMOOTH",
"762 213 OFFCURVE",
"713 124 OFFCURVE",
"713 103 CURVE SMOOTH"
);
}
);
width = 918;
}
);
note = kj_A;
unicode = 11200;
category = Letter;
},
{
glyphname = kj_AA;
lastChange = "2018-11-05 20:04:36 +0000";
layers = (
{
layerId = "0717401B-DDB5-4983-85F2-A81AFE530D5E";
paths = (
{
closed = 1;
nodes = (
"713 79 OFFCURVE",
"740 64 OFFCURVE",
"764 64 CURVE SMOOTH",
"780 64 OFFCURVE",
"798 67 OFFCURVE",
"806 87 CURVE SMOOTH",
"823 132 OFFCURVE",
"849 226 OFFCURVE",
"849 312 CURVE SMOOTH",
"849 406 OFFCURVE",
"818 496 OFFCURVE",
"708 496 CURVE SMOOTH",
"638 496 OFFCURVE",
"573 446 OFFCURVE",
"538 398 CURVE",
"557 390 LINE",
"550 446 OFFCURVE",
"500 478 OFFCURVE",
"437 478 CURVE SMOOTH",
"402 478 OFFCURVE",
"369 472 OFFCURVE",
"333 465 CURVE SMOOTH",
"293 457 OFFCURVE",
"249 449 OFFCURVE",
"196 449 CURVE SMOOTH",
"115 449 OFFCURVE",
"83 458 OFFCURVE",
"75 496 CURVE SMOOTH",
"71 516 OFFCURVE",
"69 537 OFFCURVE",
"46 537 CURVE SMOOTH",
"26 537 OFFCURVE",
"0 522 OFFCURVE",
"0 493 CURVE SMOOTH",
"0 408 OFFCURVE",
"67 366 OFFCURVE",
"180 366 CURVE SMOOTH",
"251 366 OFFCURVE",
"295 374 OFFCURVE",
"338 383 CURVE SMOOTH",
"371 390 OFFCURVE",
"397 395 OFFCURVE",
"431 395 CURVE SMOOTH",
"473 395 OFFCURVE",
"487 381 OFFCURVE",
"487 362 CURVE SMOOTH",
"487 344 OFFCURVE",
"474 322 OFFCURVE",
"448 295 CURVE SMOOTH",
"446 293 OFFCURVE",
"445 290 OFFCURVE",
"445 287 CURVE SMOOTH",
"445 272 OFFCURVE",
"480 250 OFFCURVE",
"507 250 CURVE SMOOTH",
"517 250 OFFCURVE",
"527 253 OFFCURVE",
"532 260 CURVE SMOOTH",
"589 339 OFFCURVE",
"652 409 OFFCURVE",
"713 409 CURVE SMOOTH",
"748 409 OFFCURVE",
"762 384 OFFCURVE",
"762 328 CURVE SMOOTH",
"762 213 OFFCURVE",
"713 124 OFFCURVE",
"713 103 CURVE SMOOTH"
);
},
{
closed = 1;
nodes = (
"918 9 OFFCURVE",
"945 -6 OFFCURVE",
"969 -6 CURVE SMOOTH",
"985 -6 OFFCURVE",
"1003 -3 OFFCURVE",
"1011 17 CURVE SMOOTH",
"1042 100 OFFCURVE",
"1058 205 OFFCURVE",
"1058 326 CURVE SMOOTH",
"1058 405 OFFCURVE",
"1045 473 OFFCURVE",
"1030 514 CURVE SMOOTH",
"1020 542 OFFCURVE",
"1010 556 OFFCURVE",
"984 556 CURVE SMOOTH",
"962 556 OFFCURVE",
"935 539 OFFCURVE",
"935 510 CURVE SMOOTH",
"935 483 OFFCURVE",
"971 425 OFFCURVE",
"971 321 CURVE SMOOTH",
"971 133 OFFCURVE",
"918 59 OFFCURVE",
"918 33 CURVE SMOOTH"
);
}
);
width = 1128;
}
);
leftMetricsKey = kj_A;
note = kj_AA;
rightMetricsKey = kj_vs_AA;
unicode = 11201;
category = Letter;
},
{
glyphname = kj_I;
lastChange = "2018-11-05 20:04:34 +0000";
layers = (
{
layerId = "0717401B-DDB5-4983-85F2-A81AFE530D5E";
paths = (
{
closed = 1;
nodes = (
"687 609 OFFCURVE",
"644 720 OFFCURVE",
"520 720 CURVE SMOOTH",
"457 720 OFFCURVE",
"403 681 OFFCURVE",
"403 649 CURVE SMOOTH",
"403 630 OFFCURVE",
"434 611 OFFCURVE",
"460 611 CURVE SMOOTH",
"468 611 OFFCURVE",
"476 613 OFFCURVE",
"481 617 CURVE SMOOTH",
"498 631 OFFCURVE",
"510 640 OFFCURVE",
"531 640 CURVE SMOOTH",
"574 640 OFFCURVE",
"608 608 OFFCURVE",
"608 511 CURVE SMOOTH",
"608 438 OFFCURVE",
"594 372 OFFCURVE",
"578 303 CURVE SMOOTH",
"560 223 OFFCURVE",
"545 149 OFFCURVE",
"545 51 CURVE SMOOTH",
"545 -82 OFFCURVE",
"609 -152 OFFCURVE",
"696 -152 CURVE SMOOTH",
"719 -152 OFFCURVE",
"741 -150 OFFCURVE",
"762 -139 CURVE SMOOTH",
"768 -136 OFFCURVE",
"770 -128 OFFCURVE",
"770 -119 CURVE SMOOTH",
"770 -96 OFFCURVE",
"760 -67 OFFCURVE",
"740 -67 CURVE SMOOTH",
"731 -67 OFFCURVE",
"711 -72 OFFCURVE",
"699 -72 CURVE SMOOTH",
"652 -72 OFFCURVE",
"622 -44 OFFCURVE",
"622 52 CURVE SMOOTH",
"622 124 OFFCURVE",
"637 196 OFFCURVE",
"654 272 CURVE SMOOTH",
"671 347 OFFCURVE",
"687 423 OFFCURVE",
"687 499 CURVE SMOOTH"
);
},
{
closed = 1;
nodes = (
"35 444 OFFCURVE",
"67 413 OFFCURVE",
"108 413 CURVE SMOOTH",
"149 413 OFFCURVE",
"182 444 OFFCURVE",
"182 482 CURVE SMOOTH",
"182 520 OFFCURVE",
"149 552 OFFCURVE",
"108 552 CURVE SMOOTH",
"67 552 OFFCURVE",
"35 520 OFFCURVE",
"35 482 CURVE SMOOTH"
);
},
{
closed = 1;
nodes = (
"295 444 OFFCURVE",
"327 413 OFFCURVE",
"368 413 CURVE SMOOTH",
"409 413 OFFCURVE",
"442 444 OFFCURVE",
"442 482 CURVE SMOOTH",
"442 520 OFFCURVE",
"409 552 OFFCURVE",
"368 552 CURVE SMOOTH",
"327 552 OFFCURVE",
"295 520 OFFCURVE",
"295 482 CURVE SMOOTH"
);
},
{
closed = 1;
nodes = (
"274 289 OFFCURVE",
"267 275 OFFCURVE",
"267 255 CURVE SMOOTH",
"267 239 OFFCURVE",
"273 220 OFFCURVE",
"283 215 CURVE",
"366 200 OFFCURVE",
"398 176 OFFCURVE",
"398 146 CURVE SMOOTH",
"398 97 OFFCURVE",
"324 84 OFFCURVE",
"255 84 CURVE SMOOTH",
"165 84 OFFCURVE",
"118 107 OFFCURVE",
"110 222 CURVE SMOOTH",
"108 250 OFFCURVE",
"101 268 OFFCURVE",
"84 268 CURVE SMOOTH",
"62 268 OFFCURVE",
"35 219 OFFCURVE",
"35 182 CURVE SMOOTH",
"35 135 OFFCURVE",
"56 75 OFFCURVE",
"102 41 CURVE SMOOTH",
"146 8 OFFCURVE",
"197 -1 OFFCURVE",
"270 -1 CURVE SMOOTH",
"392 -1 OFFCURVE",
"476 36 OFFCURVE",
"476 123 CURVE SMOOTH",
"476 223 OFFCURVE",
"383 299 OFFCURVE",
"289 299 CURVE"
);
}
);
width = 755;
}
);
note = kj_I;
unicode = 11202;
category = Letter;
},
{
glyphname = kj_U;
lastChange = "2018-11-05 20:04:34 +0000";
layers = (
{
layerId = "0717401B-DDB5-4983-85F2-A81AFE530D5E";
paths = (
{
closed = 1;
nodes = (
"136 41 OFFCURVE",
"127 29 OFFCURVE",
"127 16 CURVE SMOOTH",
"127 -29 OFFCURVE",
"200 -50 OFFCURVE",
"273 -50 CURVE SMOOTH",
"487 -50 OFFCURVE",
"609 59 OFFCURVE",
"609 265 CURVE SMOOTH",
"609 343 OFFCURVE",
"597 430 OFFCURVE",
"553 430 CURVE SMOOTH",
"525 430 OFFCURVE",
"503 415 OFFCURVE",
"503 398 CURVE SMOOTH",
"503 382 OFFCURVE",
"525 334 OFFCURVE",
"525 269 CURVE SMOOTH",
"525 124 OFFCURVE",
"424 26 OFFCURVE",
"258 26 CURVE SMOOTH",
"193 26 OFFCURVE",
"171 41 OFFCURVE",
"150 41 CURVE SMOOTH"
);
},
{
closed = 1;
nodes = (
"27 206 OFFCURVE",
"118 126 OFFCURVE",
"220 126 CURVE SMOOTH",
"322 126 OFFCURVE",
"379 192 OFFCURVE",
"379 277 CURVE SMOOTH",
"379 368 OFFCURVE",
"329 439 OFFCURVE",
"232 439 CURVE SMOOTH",
"173 439 OFFCURVE",
"114 405 OFFCURVE",
"79 365 CURVE",
"93 287 LINE",
"115 327 OFFCURVE",
"171 361 OFFCURVE",
"228 361 CURVE SMOOTH",
"269 361 OFFCURVE",
"297 336 OFFCURVE",
"297 288 CURVE SMOOTH",
"297 244 OFFCURVE",
"264 210 OFFCURVE",
"212 210 CURVE SMOOTH",
"157 210 OFFCURVE",
"109 250 OFFCURVE",
"109 347 CURVE SMOOTH",
"109 488 OFFCURVE",
"256 549 OFFCURVE",
"374 549 CURVE SMOOTH",
"408 549 OFFCURVE",
"426 544 OFFCURVE",
"438 544 CURVE SMOOTH",
"454 544 OFFCURVE",
"465 554 OFFCURVE",
"465 572 CURVE SMOOTH",
"465 596 OFFCURVE",
"433 621 OFFCURVE",
"358 621 CURVE SMOOTH",
"186 621 OFFCURVE",
"27 526 OFFCURVE",
"27 342 CURVE SMOOTH"
);
}
);
width = 658;
}
);
note = kj_U;
unicode = 11203;
category = Letter;
},
{
glyphname = kj_E;
lastChange = "2018-11-05 20:04:36 +0000";
layers = (
{
layerId = "0717401B-DDB5-4983-85F2-A81AFE530D5E";
paths = (
{
closed = 1;
nodes = (
"194 433 OFFCURVE",
"174 471 OFFCURVE",
"145 505 CURVE SMOOTH",
"117 538 OFFCURVE",
"85 559 OFFCURVE",
"58 559 CURVE SMOOTH",
"37 559 OFFCURVE",
"10 540 OFFCURVE",
"10 513 CURVE SMOOTH",
"10 493 OFFCURVE",
"28 487 OFFCURVE",
"54 467 CURVE SMOOTH",
"88 441 OFFCURVE",
"112 409 OFFCURVE",
"112 344 CURVE SMOOTH",
"112 300 OFFCURVE",
"112 261 OFFCURVE",
"113 249 CURVE SMOOTH",
"119 174 OFFCURVE",
"187 123 OFFCURVE",
"263 123 CURVE SMOOTH",
"339 123 OFFCURVE",
"386 153 OFFCURVE",
"417 195 CURVE",
"404 215 LINE",
"401 188 OFFCURVE",
"398 169 OFFCURVE",
"398 121 CURVE SMOOTH",
"398 18 OFFCURVE",
"438 -46 OFFCURVE",
"518 -46 CURVE SMOOTH",
"541 -46 OFFCURVE",
"570 -44 OFFCURVE",
"591 -33 CURVE SMOOTH",
"597 -30 OFFCURVE",
"599 -22 OFFCURVE",
"599 -13 CURVE SMOOTH",
"599 10 OFFCURVE",
"589 39 OFFCURVE",
"569 39 CURVE SMOOTH",
"560 39 OFFCURVE",
"540 34 OFFCURVE",
"528 34 CURVE SMOOTH",
"481 34 OFFCURVE",
"473 70 OFFCURVE",
"473 153 CURVE SMOOTH",
"473 317 OFFCURVE",
"473 490 OFFCURVE",
"487 554 CURVE SMOOTH",
"499 607 OFFCURVE",
"532 640 OFFCURVE",
"581 640 CURVE SMOOTH",
"611 640 OFFCURVE",
"633 626 OFFCURVE",
"652 613 CURVE SMOOTH",
"664 605 OFFCURVE",
"675 598 OFFCURVE",
"684 598 CURVE SMOOTH",
"697 598 OFFCURVE",
"706 613 OFFCURVE",
"706 627 CURVE SMOOTH",
"706 650 OFFCURVE",
"694 667 OFFCURVE",
"681 680 CURVE SMOOTH",
"656 705 OFFCURVE",
"615 720 OFFCURVE",
"574 720 CURVE SMOOTH",
"496 720 OFFCURVE",
"444 676 OFFCURVE",
"420 608 CURVE SMOOTH",
"400 550 OFFCURVE",
"397 402 OFFCURVE",
"396 312 CURVE SMOOTH",
"395 259 OFFCURVE",
"338 203 OFFCURVE",
"258 203 CURVE SMOOTH",
"214 203 OFFCURVE",
"195 228 OFFCURVE",
"195 264 CURVE SMOOTH",
"195 275 OFFCURVE",
"194 313 OFFCURVE",
"194 357 CURVE SMOOTH"
);
}
);
width = 712;
}
);
note = kj_E;
rightMetricsKey = kj_vs_I;
unicode = 11204;
category = Letter;
},
{
glyphname = kj_O;
lastChange = "2018-11-05 20:04:36 +0000";
layers = (
{
layerId = "0717401B-DDB5-4983-85F2-A81AFE530D5E";
paths = (
{
closed = 1;
nodes = (
"378 72 OFFCURVE",
"437 147 OFFCURVE",
"437 245 CURVE SMOOTH",
"437 337 OFFCURVE",
"384 423 OFFCURVE",
"269 423 CURVE SMOOTH",
"207 423 OFFCURVE",
"148 390 OFFCURVE",
"111 347 CURVE",
"137 260 LINE",
"161 305 OFFCURVE",
"215 339 OFFCURVE",
"267 339 CURVE SMOOTH",
"316 339 OFFCURVE",
"352 309 OFFCURVE",
"352 252 CURVE SMOOTH",
"352 199 OFFCURVE",
"318 157 OFFCURVE",
"260 157 CURVE SMOOTH",
"196 157 OFFCURVE",
"139 205 OFFCURVE",
"139 322 CURVE SMOOTH",
"139 558 OFFCURVE",
"316 645 OFFCURVE",
"464 645 CURVE SMOOTH",
"498 645 OFFCURVE",
"516 643 OFFCURVE",
"528 643 CURVE SMOOTH",
"544 643 OFFCURVE",
"555 653 OFFCURVE",
"555 672 CURVE SMOOTH",
"555 696 OFFCURVE",
"526 720 OFFCURVE",
"451 720 CURVE SMOOTH",
"249 720 OFFCURVE",
"56 594 OFFCURVE",
"56 340 CURVE SMOOTH",
"56 159 OFFCURVE",
"155 72 OFFCURVE",
"266 72 CURVE SMOOTH"
);
}
);
width = 532;
}
);
note = kj_O;
unicode = 11206;
category = Letter;
},
{
glyphname = kj_KA;
lastChange = "2018-11-05 20:04:36 +0000";
layers = (
{
layerId = "0717401B-DDB5-4983-85F2-A81AFE530D5E";
paths = (
{
closed = 1;
nodes = (
"341 435 LINE",
"314 521 OFFCURVE",
"273 556 OFFCURVE",
"219 556 CURVE SMOOTH",
"178 556 OFFCURVE",
"157 556 OFFCURVE",
"139 560 CURVE SMOOTH",
"110 566 OFFCURVE",
"105 584 OFFCURVE",
"101 601 CURVE SMOOTH",
"98 615 OFFCURVE",
"93 627 OFFCURVE",
"74 627 CURVE SMOOTH",
"54 627 OFFCURVE",
"30 609 OFFCURVE",
"30 580 CURVE SMOOTH",
"30 538 OFFCURVE",
"53 476 OFFCURVE",
"166 476 CURVE SMOOTH",
"247 476 OFFCURVE",
"260 462 OFFCURVE",
"297 402 CURVE"
);
},
{
closed = 1;
nodes = (
"508 206 OFFCURVE",
"631 332 OFFCURVE",
"631 422 CURVE SMOOTH",
"631 484 OFFCURVE",
"583 558 OFFCURVE",
"485 558 CURVE SMOOTH",
"425 558 OFFCURVE",
"357 524 OFFCURVE",
"281 461 CURVE SMOOTH",
"197 392 OFFCURVE",
"120 315 OFFCURVE",
"68 243 CURVE SMOOTH",
"66 240 OFFCURVE",
"64 235 OFFCURVE",
"64 227 CURVE SMOOTH",
"64 210 OFFCURVE",
"93 184 OFFCURVE",
"120 184 CURVE SMOOTH",
"133 184 OFFCURVE",
"144 189 OFFCURVE",
"158 206 CURVE SMOOTH",
"221 284 OFFCURVE",
"281 346 OFFCURVE",
"331 390 CURVE SMOOTH",
"407 456 OFFCURVE",
"467 481 OFFCURVE",
"506 481 CURVE SMOOTH",
"538 481 OFFCURVE",
"553 460 OFFCURVE",
"553 438 CURVE SMOOTH",
"553 370 OFFCURVE",
"429 246 OFFCURVE",
"305 141 CURVE SMOOTH",
"300 137 OFFCURVE",
"296 132 OFFCURVE",
"296 122 CURVE SMOOTH",
"296 104 OFFCURVE",
"321 79 OFFCURVE",
"353 79 CURVE SMOOTH",
"381 79 OFFCURVE",
"399 97 OFFCURVE",
"435 133 CURVE SMOOTH"
);
},
{
closed = 1;
nodes = (
"482 211 OFFCURVE",
"511 213 OFFCURVE",
"524 213 CURVE SMOOTH",
"562 213 OFFCURVE",
"580 175 OFFCURVE",
"584 133 CURVE SMOOTH",
"591 56 OFFCURVE",
"612 -4 OFFCURVE",
"683 -4 CURVE SMOOTH",
"718 -4 OFFCURVE",
"728 17 OFFCURVE",
"728 37 CURVE SMOOTH",
"728 52 OFFCURVE",
"722 67 OFFCURVE",
"704 67 CURVE SMOOTH",
"653 67 OFFCURVE",
"661 132 OFFCURVE",
"653 175 CURVE SMOOTH",
"643 229 OFFCURVE",
"621 283 OFFCURVE",
"543 283 CURVE SMOOTH",
"528 283 OFFCURVE",
"515 278 OFFCURVE",
"492 269 CURVE",
"471 206 LINE"
);
}
);
width = 773;
}
);
note = kj_KA;
unicode = 11208;
category = Letter;
},
{
glyphname = kj_KHA;
lastChange = "2018-11-05 20:04:39 +0000";
layers = (
{
layerId = "0717401B-DDB5-4983-85F2-A81AFE530D5E";
paths = (
{
closed = 1;
nodes = (
"450 373 OFFCURVE",
"376 560 OFFCURVE",
"323 560 CURVE SMOOTH",
"301 560 OFFCURVE",
"280 539 OFFCURVE",
"280 518 CURVE SMOOTH",
"280 510 OFFCURVE",
"282 504 OFFCURVE",
"286 499 CURVE SMOOTH",
"342 429 OFFCURVE",
"381 337 OFFCURVE",
"390 259 CURVE",
"463 277 LINE"
);
},
{
closed = 1;
nodes = (
"509 336 OFFCURVE",
"492 235 OFFCURVE",
"428 103 CURVE",
"428 79 OFFCURVE",
"455 64 OFFCURVE",
"479 64 CURVE SMOOTH",
"495 64 OFFCURVE",
"511 67 OFFCURVE",
"520 87 CURVE SMOOTH",
"568 193 OFFCURVE",
"607 405 OFFCURVE",
"607 477 CURVE SMOOTH",
"607 504 OFFCURVE",
"579 528 OFFCURVE",
"553 528 CURVE SMOOTH",
"533 528 OFFCURVE",
"525 514 OFFCURVE",
"523 492 CURVE SMOOTH"
);
},
{
closed = 1;
nodes = (
"87 441 OFFCURVE",
"100 398 OFFCURVE",
"113 353 CURVE SMOOTH",
"148 231 OFFCURVE",
"200 190 OFFCURVE",
"308 190 CURVE SMOOTH",
"374 190 OFFCURVE",
"448 211 OFFCURVE",
"500 256 CURVE",
"521 373 LINE",
"442 289 OFFCURVE",
"366 274 OFFCURVE",
"309 274 CURVE SMOOTH",
"221 274 OFFCURVE",
"204 321 OFFCURVE",
"189 383 CURVE SMOOTH",
"180 422 OFFCURVE",
"168 464 OFFCURVE",
"139 506 CURVE SMOOTH",
"114 542 OFFCURVE",
"85 559 OFFCURVE",
"58 559 CURVE SMOOTH",
"37 559 OFFCURVE",
"10 540 OFFCURVE",
"10 513 CURVE SMOOTH",
"10 493 OFFCURVE",
"27 487 OFFCURVE",
"53 467 CURVE SMOOTH"
);
}
);
width = 677;
}
);
leftMetricsKey = kj_SA;
note = kj_KHA;
unicode = 11209;
category = Letter;
},
{
glyphname = kj_GA;
lastChange = "2018-11-05 20:04:36 +0000";
layers = (
{
layerId = "0717401B-DDB5-4983-85F2-A81AFE530D5E";
paths = (
{
closed = 1;
nodes = (
"553 444 OFFCURVE",
"572 417 OFFCURVE",
"572 331 CURVE SMOOTH",
"572 216 OFFCURVE",
"523 124 OFFCURVE",
"523 103 CURVE SMOOTH",
"523 79 OFFCURVE",
"550 64 OFFCURVE",
"574 64 CURVE SMOOTH",
"590 64 OFFCURVE",
"608 67 OFFCURVE",
"616 87 CURVE SMOOTH",
"634 132 OFFCURVE",
"659 229 OFFCURVE",
"659 335 CURVE SMOOTH",
"659 500 OFFCURVE",
"550 559 OFFCURVE",
"501 559 CURVE SMOOTH",
"470 559 OFFCURVE",
"446 537 OFFCURVE",
"446 510 CURVE SMOOTH",
"446 490 OFFCURVE",
"460 483 OFFCURVE",
"477 476 CURVE SMOOTH"
);
},
{
closed = 1;
nodes = (
"473 398 OFFCURVE",
"390 449 OFFCURVE",
"296 449 CURVE SMOOTH",
"225 449 OFFCURVE",
"193 458 OFFCURVE",
"185 496 CURVE SMOOTH",
"181 516 OFFCURVE",
"179 537 OFFCURVE",
"156 537 CURVE SMOOTH",
"136 537 OFFCURVE",
"110 522 OFFCURVE",
"110 493 CURVE SMOOTH",
"110 408 OFFCURVE",
"177 366 OFFCURVE",
"280 366 CURVE SMOOTH",
"361 366 OFFCURVE",
"395 340 OFFCURVE",
"395 285 CURVE SMOOTH",
"395 213 OFFCURVE",
"342 183 OFFCURVE",
"288 183 CURVE SMOOTH",
"190 183 OFFCURVE",
"157 241 OFFCURVE",
"133 282 CURVE SMOOTH",
"121 302 OFFCURVE",
"113 320 OFFCURVE",
"101 320 CURVE SMOOTH",
"80 320 OFFCURVE",
"67 275 OFFCURVE",
"67 253 CURVE SMOOTH",
"67 197 OFFCURVE",
"157 97 OFFCURVE",
"292 97 CURVE SMOOTH",
"412 97 OFFCURVE",
"473 168 OFFCURVE",
"473 268 CURVE SMOOTH"
);
}
);
width = 729;
}
);
note = kj_GA;
unicode = 1120A;
category = Letter;
},
{
glyphname = kj_GGA;
lastChange = "2018-11-05 20:04:39 +0000";
layers = (
{
layerId = "0717401B-DDB5-4983-85F2-A81AFE530D5E";
paths = (
{
closed = 1;
nodes = (
"604 290 LINE",
"501 190 OFFCURVE",
"298 112 OFFCURVE",
"143 85 CURVE SMOOTH",
"115 80 OFFCURVE",
"98 73 OFFCURVE",
"98 48 CURVE SMOOTH",
"98 24 OFFCURVE",
"116 -4 OFFCURVE",
"148 -4 CURVE SMOOTH",
"167 -4 OFFCURVE",
"181 -3 OFFCURVE",
"208 4 CURVE SMOOTH",
"317 32 OFFCURVE",
"508 103 OFFCURVE",
"606 179 CURVE"
);
},
{
closed = 1;
nodes = (
"406 213 OFFCURVE",
"473 282 OFFCURVE",
"473 375 CURVE SMOOTH",
"473 489 OFFCURVE",
"393 538 OFFCURVE",
"299 538 CURVE SMOOTH",
"228 538 OFFCURVE",
"196 548 OFFCURVE",
"188 586 CURVE SMOOTH",
"184 606 OFFCURVE",
"182 627 OFFCURVE",
"159 627 CURVE SMOOTH",
"139 627 OFFCURVE",
"113 612 OFFCURVE",
"113 583 CURVE SMOOTH",
"113 498 OFFCURVE",
"180 455 OFFCURVE",
"283 455 CURVE SMOOTH",
"364 455 OFFCURVE",
"395 431 OFFCURVE",
"395 382 CURVE SMOOTH",
"395 332 OFFCURVE",
"344 299 OFFCURVE",
"285 299 CURVE SMOOTH",
"202 299 OFFCURVE",
"160 341 OFFCURVE",
"135 382 CURVE SMOOTH",
"123 402 OFFCURVE",
"115 420 OFFCURVE",
"103 420 CURVE SMOOTH",
"82 420 OFFCURVE",
"67 375 OFFCURVE",
"67 353 CURVE SMOOTH",
"67 303 OFFCURVE",
"151 213 OFFCURVE",
"283 213 CURVE SMOOTH"
);
},
{
closed = 1;
nodes = (
"674 403 OFFCURVE",
"656 481 OFFCURVE",
"626 536 CURVE SMOOTH",
"592 599 OFFCURVE",
"536 631 OFFCURVE",
"503 631 CURVE SMOOTH",
"472 631 OFFCURVE",
"448 609 OFFCURVE",
"448 582 CURVE SMOOTH",
"448 562 OFFCURVE",
"462 555 OFFCURVE",
"479 548 CURVE SMOOTH",
"529 526 OFFCURVE",
"551 500 OFFCURVE",
"565 465 CURVE SMOOTH",
"580 427 OFFCURVE",
"589 364 OFFCURVE",
"589 286 CURVE SMOOTH",
"589 110 OFFCURVE",
"539 19 OFFCURVE",
"539 -7 CURVE SMOOTH",
"539 -31 OFFCURVE",
"566 -46 OFFCURVE",
"590 -46 CURVE SMOOTH",
"606 -46 OFFCURVE",
"624 -43 OFFCURVE",
"632 -23 CURVE SMOOTH",
"661 50 OFFCURVE",
"674 195 OFFCURVE",
"674 291 CURVE SMOOTH"
);
}
);
width = 744;
}
);
leftMetricsKey = kj_GA;
note = kj_GGA;
rightMetricsKey = kj_AA;
unicode = 1120B;
category = Letter;
},
{
glyphname = kj_GHA;
lastChange = "2018-11-05 20:04:36 +0000";
layers = (
{
layerId = "0717401B-DDB5-4983-85F2-A81AFE530D5E";
paths = (
{
closed = 1;
nodes = (
"520 555 OFFCURVE",
"478 481 OFFCURVE",
"438 330 CURVE SMOOTH",
"388 141 OFFCURVE",
"345 80 OFFCURVE",
"257 80 CURVE SMOOTH",
"207 80 OFFCURVE",
"176 120 OFFCURVE",
"176 177 CURVE SMOOTH",
"176 269 OFFCURVE",
"251 290 OFFCURVE",
"317 296 CURVE SMOOTH",
"330 297 OFFCURVE",
"337 311 OFFCURVE",
"337 328 CURVE SMOOTH",
"337 353 OFFCURVE",
"325 376 OFFCURVE",
"304 376 CURVE SMOOTH",
"287 376 OFFCURVE",
"272 373 OFFCURVE",
"258 370 CURVE SMOOTH",
"244 367 OFFCURVE",
"231 365 OFFCURVE",
"215 365 CURVE SMOOTH",
"172 365 OFFCURVE",
"138 400 OFFCURVE",
"138 446 CURVE SMOOTH",
"138 502 OFFCURVE",
"172 526 OFFCURVE",
"218 546 CURVE",
"375 546 LINE SMOOTH",
"391 546 OFFCURVE",
"398 557 OFFCURVE",
"398 566 CURVE SMOOTH",
"398 591 OFFCURVE",
"377 621 OFFCURVE",
"350 621 CURVE SMOOTH",
"33 621 LINE SMOOTH",
"16 621 OFFCURVE",
"5 599 OFFCURVE",
"5 579 CURVE SMOOTH",
"5 562 OFFCURVE",
"13 546 OFFCURVE",
"31 546 CURVE SMOOTH",
"130 546 LINE",
"109 570 LINE",
"80 543 OFFCURVE",
"55 515 OFFCURVE",
"55 454 CURVE SMOOTH",
"55 387 OFFCURVE",
"100 328 OFFCURVE",
"171 307 CURVE",
"172 330 LINE",
"117 298 OFFCURVE",
"86 247 OFFCURVE",
"86 177 CURVE SMOOTH",
"86 77 OFFCURVE",
"164 -5 OFFCURVE",
"273 -5 CURVE SMOOTH",
"414 -5 OFFCURVE",
"465 101 OFFCURVE",
"513 276 CURVE SMOOTH",
"553 421 OFFCURVE",
"576 469 OFFCURVE",
"619 469 CURVE SMOOTH",
"654 469 OFFCURVE",
"672 439 OFFCURVE",
"672 345 CURVE SMOOTH",
"672 185 OFFCURVE",
"607 54 OFFCURVE",
"607 33 CURVE SMOOTH",
"607 8 OFFCURVE",
"635 -6 OFFCURVE",
"659 -6 CURVE SMOOTH",
"675 -6 OFFCURVE",
"692 -2 OFFCURVE",
"700 17 CURVE SMOOTH",
"721 67 OFFCURVE",
"756 209 OFFCURVE",
"756 333 CURVE SMOOTH",
"756 447 OFFCURVE",
"731 555 OFFCURVE",
"609 555 CURVE SMOOTH"
);
}
);
width = 826;
}
);
note = kj_GHA;
rightMetricsKey = kj_vs_AA;
unicode = 1120C;
category = Letter;
},
{
glyphname = kj_NGA;
lastChange = "2018-11-05 20:04:36 +0000";
layers = (
{
components = (
{
name = uni0AE9;
}
);
layerId = "0717401B-DDB5-4983-85F2-A81AFE530D5E";
paths = (
{
closed = 1;
nodes = (
"539 384 OFFCURVE",
"571 353 OFFCURVE",
"612 353 CURVE SMOOTH",
"653 353 OFFCURVE",
"686 384 OFFCURVE",
"686 422 CURVE SMOOTH",
"686 460 OFFCURVE",
"653 492 OFFCURVE",
"612 492 CURVE SMOOTH",
"571 492 OFFCURVE",
"539 460 OFFCURVE",
"539 422 CURVE SMOOTH"
);
},
{
closed = 1;
nodes = (
"539 88 OFFCURVE",
"571 57 OFFCURVE",
"612 57 CURVE SMOOTH",
"653 57 OFFCURVE",
"686 88 OFFCURVE",
"686 126 CURVE SMOOTH",
"686 164 OFFCURVE",
"653 196 OFFCURVE",
"612 196 CURVE SMOOTH",
"571 196 OFFCURVE",
"539 164 OFFCURVE",
"539 126 CURVE SMOOTH"
);
}
);
width = 737;
}
);
leftMetricsKey = uni0AE9;
note = kj_NGA;
rightMetricsKey = u1123A;
unicode = 1120D;
category = Letter;
},
{
glyphname = kj_CA;
lastChange = "2018-11-05 20:04:36 +0000";
layers = (
{
layerId = "0717401B-DDB5-4983-85F2-A81AFE530D5E";
paths = (
{
closed = 1;
nodes = (
"264 357 LINE",
"528 357 LINE",
"528 432 LINE",
"170 432 LINE",
"162 430 OFFCURVE",
"147 412 OFFCURVE",
"147 393 CURVE SMOOTH",
"147 378 OFFCURVE",
"156 370 OFFCURVE",
"185 361 CURVE SMOOTH",
"240 344 OFFCURVE",
"306 303 OFFCURVE",
"306 233 CURVE SMOOTH",
"306 177 OFFCURVE",
"272 148 OFFCURVE",
"218 148 CURVE SMOOTH",
"148 148 OFFCURVE",
"104 199 OFFCURVE",
"81 239 CURVE SMOOTH",
"70 258 OFFCURVE",
"61 276 OFFCURVE",
"49 276 CURVE SMOOTH",
"28 276 OFFCURVE",
"20 231 OFFCURVE",
"20 209 CURVE SMOOTH",
"20 153 OFFCURVE",
"112 64 OFFCURVE",
"222 64 CURVE SMOOTH",
"331 64 OFFCURVE",
"390 118 OFFCURVE",
"390 212 CURVE SMOOTH",
"390 301 OFFCURVE",
"335 355 OFFCURVE",
"276 384 CURVE"
);
},
{
closed = 1;
nodes = (
"525 -6 OFFCURVE",
"543 -3 OFFCURVE",
"551 17 CURVE SMOOTH",
"584 99 OFFCURVE",
"598 205 OFFCURVE",
"598 316 CURVE SMOOTH",
"598 405 OFFCURVE",
"585 473 OFFCURVE",
"570 514 CURVE SMOOTH",
"560 542 OFFCURVE",
"550 556 OFFCURVE",
"524 556 CURVE SMOOTH",
"502 556 OFFCURVE",
"475 539 OFFCURVE",
"475 510 CURVE SMOOTH",
"475 483 OFFCURVE",
"511 425 OFFCURVE",
"511 321 CURVE SMOOTH",
"511 133 OFFCURVE",
"458 59 OFFCURVE",
"458 33 CURVE SMOOTH",
"458 9 OFFCURVE",
"485 -6 OFFCURVE",
"509 -6 CURVE SMOOTH"
);
}
);
width = 668;
}
);
note = kj_CA;
rightMetricsKey = kj_AA;
unicode = 1120E;
category = Letter;
},
{
glyphname = kj_CHA;
lastChange = "2018-11-05 20:04:36 +0000";
layers = (
{
layerId = "0717401B-DDB5-4983-85F2-A81AFE530D5E";
paths = (
{
closed = 1;
nodes = (
"670 -47 OFFCURVE",
"700 -44 OFFCURVE",
"721 -33 CURVE SMOOTH",
"727 -30 OFFCURVE",
"729 -22 OFFCURVE",
"729 -13 CURVE SMOOTH",
"729 10 OFFCURVE",
"719 39 OFFCURVE",
"699 39 CURVE SMOOTH",
"690 39 OFFCURVE",
"670 34 OFFCURVE",
"647 34 CURVE SMOOTH",
"518 34 OFFCURVE",
"500 91 OFFCURVE",
"500 257 CURVE SMOOTH",
"500 362 OFFCURVE",
"541 407 OFFCURVE",
"579 407 CURVE SMOOTH",
"616 407 OFFCURVE",
"631 378 OFFCURVE",
"631 344 CURVE SMOOTH",
"631 298 OFFCURVE",
"586 215 OFFCURVE",
"459 215 CURVE SMOOTH",
"170 215 LINE",
"199 198 LINE",
"282 249 OFFCURVE",
"330 320 OFFCURVE",
"330 398 CURVE SMOOTH",
"330 511 OFFCURVE",
"259 558 OFFCURVE",
"163 558 CURVE SMOOTH",
"101 558 OFFCURVE",
"20 533 OFFCURVE",
"20 488 CURVE SMOOTH",
"20 465 OFFCURVE",
"36 437 OFFCURVE",
"58 437 CURVE SMOOTH",
"89 437 OFFCURVE",
"119 476 OFFCURVE",
"176 476 CURVE SMOOTH",
"219 476 OFFCURVE",
"250 457 OFFCURVE",
"250 406 CURVE SMOOTH",
"250 319 OFFCURVE",
"152 252 OFFCURVE",
"84 219 CURVE SMOOTH",
"75 215 OFFCURVE",
"72 208 OFFCURVE",
"72 198 CURVE SMOOTH",
"72 175 OFFCURVE",
"111 140 OFFCURVE",
"145 140 CURVE SMOOTH",
"468 140 LINE SMOOTH",
"651 140 OFFCURVE",
"705 249 OFFCURVE",
"705 335 CURVE SMOOTH",
"705 416 OFFCURVE",
"653 487 OFFCURVE",
"565 487 CURVE SMOOTH",
"486 487 OFFCURVE",
"416 432 OFFCURVE",
"416 256 CURVE SMOOTH",
"416 68 OFFCURVE",
"474 -47 OFFCURVE",
"643 -47 CURVE SMOOTH"
);
}
);
width = 788;
}
);
leftMetricsKey = kj_JJA;
note = kj_CHA;
unicode = 1120F;
category = Letter;
},
{
glyphname = kj_JA;
lastChange = "2018-11-05 20:04:36 +0000";
layers = (
{
layerId = "0717401B-DDB5-4983-85F2-A81AFE530D5E";
paths = (
{
closed = 1;
nodes = (
"401 420 LINE",
"379 522 OFFCURVE",
"326 555 OFFCURVE",
"268 555 CURVE SMOOTH",
"221 555 OFFCURVE",
"193 555 OFFCURVE",
"173 559 CURVE SMOOTH",
"144 565 OFFCURVE",
"139 583 OFFCURVE",
"135 600 CURVE SMOOTH",
"132 614 OFFCURVE",
"127 626 OFFCURVE",
"108 626 CURVE SMOOTH",
"88 626 OFFCURVE",
"64 608 OFFCURVE",
"64 579 CURVE SMOOTH",
"64 537 OFFCURVE",
"87 475 OFFCURVE",
"200 475 CURVE SMOOTH",
"302 475 OFFCURVE",
"323 471 OFFCURVE",
"372 388 CURVE"
);
},
{
closed = 1;
nodes = (
"485 555 OFFCURVE",
"407 516 OFFCURVE",
"359 468 CURVE SMOOTH",
"303 412 OFFCURVE",
"245 347 OFFCURVE",
"228 311 CURVE SMOOTH",
"225 304 OFFCURVE",
"224 298 OFFCURVE",
"224 290 CURVE SMOOTH",
"224 278 OFFCURVE",
"229 261 OFFCURVE",
"242 253 CURVE",
"315 235 OFFCURVE",
"373 209 OFFCURVE",
"373 154 CURVE SMOOTH",
"373 103 OFFCURVE",
"330 80 OFFCURVE",
"276 80 CURVE SMOOTH",
"187 80 OFFCURVE",
"143 138 OFFCURVE",
"118 179 CURVE SMOOTH",
"106 199 OFFCURVE",
"98 217 OFFCURVE",
"86 217 CURVE SMOOTH",
"65 217 OFFCURVE",
"50 175 OFFCURVE",
"50 153 CURVE SMOOTH",
"50 97 OFFCURVE",
"149 -3 OFFCURVE",
"280 -3 CURVE SMOOTH",
"400 -3 OFFCURVE",
"451 56 OFFCURVE",
"451 137 CURVE SMOOTH",
"451 221 OFFCURVE",
"382 274 OFFCURVE",
"311 306 CURVE",
"308 263 LINE",
"339 319 OFFCURVE",
"383 369 OFFCURVE",
"419 403 CURVE SMOOTH",
"473 454 OFFCURVE",
"519 469 OFFCURVE",
"554 469 CURVE SMOOTH",
"589 469 OFFCURVE",
"607 439 OFFCURVE",
"607 345 CURVE SMOOTH",
"607 185 OFFCURVE",
"542 54 OFFCURVE",
"542 33 CURVE SMOOTH",
"542 8 OFFCURVE",
"570 -6 OFFCURVE",
"594 -6 CURVE SMOOTH",
"610 -6 OFFCURVE",
"627 -2 OFFCURVE",
"635 17 CURVE SMOOTH",
"656 67 OFFCURVE",
"691 209 OFFCURVE",
"691 333 CURVE SMOOTH",
"691 447 OFFCURVE",
"666 555 OFFCURVE",
"544 555 CURVE SMOOTH"
);
}
);
width = 761;
}
);
note = kj_JA;
unicode = 11210;
category = Letter;
},
{
glyphname = kj_JJA;
lastChange = "2018-11-05 20:04:39 +0000";
layers = (
{
layerId = "0717401B-DDB5-4983-85F2-A81AFE530D5E";
paths = (
{
closed = 1;
nodes = (
"270 336 OFFCURVE",
"212 281 OFFCURVE",
"164 254 CURVE SMOOTH",
"155 249 OFFCURVE",
"152 241 OFFCURVE",
"152 231 CURVE SMOOTH",
"152 208 OFFCURVE",
"192 175 OFFCURVE",
"226 175 CURVE SMOOTH",
"313 175 OFFCURVE",
"439 247 OFFCURVE",
"530 301 CURVE SMOOTH",
"589 336 OFFCURVE",
"638 364 OFFCURVE",
"659 364 CURVE SMOOTH",
"678 364 OFFCURVE",
"686 345 OFFCURVE",
"686 321 CURVE SMOOTH",
"686 238 OFFCURVE",
"603 121 OFFCURVE",
"547 47 CURVE SMOOTH",
"546 46 OFFCURVE",
"545 44 OFFCURVE",
"545 42 CURVE SMOOTH",
"545 26 OFFCURVE",
"566 4 OFFCURVE",
"587 -3 CURVE SMOOTH",
"593 -5 OFFCURVE",
"599 -6 OFFCURVE",
"605 -6 CURVE SMOOTH",
"613 -6 OFFCURVE",
"621 -4 OFFCURVE",
"625 0 CURVE SMOOTH",
"687 70 OFFCURVE",
"768 210 OFFCURVE",
"768 315 CURVE SMOOTH",
"768 399 OFFCURVE",
"719 455 OFFCURVE",
"656 455 CURVE SMOOTH",
"611 455 OFFCURVE",
"557 422 OFFCURVE",
"491 381 CURVE SMOOTH",
"426 340 OFFCURVE",
"351 294 OFFCURVE",
"267 269 CURVE",
"301 267 LINE",
"341 326 OFFCURVE",
"351 371 OFFCURVE",
"351 413 CURVE SMOOTH",
"351 522 OFFCURVE",
"270 558 OFFCURVE",
"174 558 CURVE SMOOTH",
"101 558 OFFCURVE",
"20 533 OFFCURVE",
"20 488 CURVE SMOOTH",
"20 465 OFFCURVE",
"36 437 OFFCURVE",
"58 437 CURVE SMOOTH",
"89 437 OFFCURVE",
"121 476 OFFCURVE",
"189 476 CURVE SMOOTH",
"240 476 OFFCURVE",
"270 457 OFFCURVE",
"270 413 CURVE SMOOTH"
);
},
{
closed = 1;
nodes = (
"609 412 LINE",
"587 465 OFFCURVE",
"517 569 OFFCURVE",
"473 569 CURVE SMOOTH",
"450 569 OFFCURVE",
"431 540 OFFCURVE",
"431 516 CURVE SMOOTH",
"431 504 OFFCURVE",
"436 497 OFFCURVE",
"443 491 CURVE SMOOTH",
"474 464 OFFCURVE",
"512 429 OFFCURVE",
"535 390 CURVE"
);
}
);
width = 837;
}
);
leftMetricsKey = kj_DHA;
note = kj_JJA;
rightMetricsKey = kj_DHA;
unicode = 11211;
category = Letter;
},
{
glyphname = kj_NYA;
lastChange = "2018-11-05 20:04:36 +0000";
layers = (
{
components = (
{
name = uni0AE8;
}
);
layerId = "0717401B-DDB5-4983-85F2-A81AFE530D5E";
paths = (
{
closed = 1;
nodes = (
"513 384 OFFCURVE",
"545 353 OFFCURVE",
"586 353 CURVE SMOOTH",
"627 353 OFFCURVE",
"660 384 OFFCURVE",
"660 422 CURVE SMOOTH",
"660 460 OFFCURVE",
"627 492 OFFCURVE",
"586 492 CURVE SMOOTH",
"545 492 OFFCURVE",
"513 460 OFFCURVE",
"513 422 CURVE SMOOTH"
);
},
{
closed = 1;
nodes = (
"513 88 OFFCURVE",
"545 57 OFFCURVE",
"586 57 CURVE SMOOTH",
"627 57 OFFCURVE",
"660 88 OFFCURVE",
"660 126 CURVE SMOOTH",
"660 164 OFFCURVE",
"627 196 OFFCURVE",
"586 196 CURVE SMOOTH",
"545 196 OFFCURVE",
"513 164 OFFCURVE",
"513 126 CURVE SMOOTH"
);
}
);
width = 711;
}
);
leftMetricsKey = kj_JJA;
note = kj_NYA;
rightMetricsKey = u1123A;
unicode = 11213;
category = Letter;
},
{
glyphname = kj_TTA;
lastChange = "2018-11-05 20:04:39 +0000";
layers = (
{
layerId = "0717401B-DDB5-4983-85F2-A81AFE530D5E";
paths = (
{
closed = 1;
nodes = (
"329 161 OFFCURVE",
"276 161 CURVE SMOOTH",
"222 161 OFFCURVE",
"184 196 OFFCURVE",
"184 247 CURVE SMOOTH",
"184 267 OFFCURVE",
"191 285 OFFCURVE",
"205 301 CURVE SMOOTH",
"227 327 OFFCURVE",
"264 349 OFFCURVE",
"290 361 CURVE SMOOTH",
"335 382 OFFCURVE",
"384 406 OFFCURVE",
"405 436 CURVE SMOOTH",
"416 451 OFFCURVE",
"423 469 OFFCURVE",
"423 491 CURVE SMOOTH",
"423 562 OFFCURVE",
"362 621 OFFCURVE",
"265 621 CURVE SMOOTH",
"73 621 LINE SMOOTH",
"56 621 OFFCURVE",
"45 599 OFFCURVE",
"45 579 CURVE SMOOTH",
"45 562 OFFCURVE",
"53 546 OFFCURVE",
"71 546 CURVE SMOOTH",
"275 546 LINE SMOOTH",
"310 546 OFFCURVE",
"336 538 OFFCURVE",
"336 513 CURVE SMOOTH",
"336 501 OFFCURVE",
"329 490 OFFCURVE",
"317 480 CURVE SMOOTH",
"297 464 OFFCURVE",
"265 448 OFFCURVE",
"232 432 CURVE SMOOTH",
"190 412 OFFCURVE",
"148 387 OFFCURVE",
"122 353 CURVE SMOOTH",
"104 329 OFFCURVE",
"92 300 OFFCURVE",
"92 265 CURVE SMOOTH",
"92 174 OFFCURVE",
"154 78 OFFCURVE",
"290 78 CURVE SMOOTH",
"356 78 OFFCURVE",
"427 100 OFFCURVE",
"478 134 CURVE SMOOTH",
"491 142 OFFCURVE",
"495 155 OFFCURVE",
"495 168 CURVE SMOOTH",
"495 187 OFFCURVE",
"481 218 OFFCURVE",
"460 218 CURVE SMOOTH",
"449 218 OFFCURVE",
"434 211 OFFCURVE",
"416 201 CURVE SMOOTH",
"372 177 OFFCURVE"
);
}
);
width = 519;
}
);
note = kj_TTA;
unicode = 11214;
category = Letter;
},
{
glyphname = kj_TTHA;
lastChange = "2018-11-05 20:04:39 +0000";
layers = (
{
layerId = "0717401B-DDB5-4983-85F2-A81AFE530D5E";
paths = (
{
closed = 1;
nodes = (
"365 70 OFFCURVE",
"438 133 OFFCURVE",
"438 230 CURVE SMOOTH",
"438 362 OFFCURVE",
"299 403 OFFCURVE",
"226 413 CURVE",
"167 353 LINE",
"251 346 OFFCURVE",
"351 316 OFFCURVE",
"351 245 CURVE SMOOTH",
"351 192 OFFCURVE",
"310 153 OFFCURVE",
"239 153 CURVE SMOOTH",
"178 153 OFFCURVE",
"129 185 OFFCURVE",
"129 251 CURVE SMOOTH",
"129 297 OFFCURVE",
"158 343 OFFCURVE",
"206 384 CURVE SMOOTH",
"302 466 OFFCURVE",
"357 496 OFFCURVE",
"433 542 CURVE",
"438 548 OFFCURVE",
"440 555 OFFCURVE",
"440 566 CURVE SMOOTH",
"440 591 OFFCURVE",
"419 621 OFFCURVE",
"392 621 CURVE SMOOTH",
"58 621 LINE SMOOTH",
"41 621 OFFCURVE",
"30 599 OFFCURVE",
"30 579 CURVE SMOOTH",
"30 562 OFFCURVE",
"38 546 OFFCURVE",
"56 546 CURVE SMOOTH",
"317 546 LINE",
"317 560 LINE",
"252 526 OFFCURVE",
"187 478 OFFCURVE",
"135 429 CURVE SMOOTH",
"77 375 OFFCURVE",
"43 323 OFFCURVE",
"43 254 CURVE SMOOTH",
"43 140 OFFCURVE",
"129 70 OFFCURVE",
"251 70 CURVE SMOOTH"
);
}
);
width = 500;
}
);
note = kj_TTHA;
unicode = 11215;
category = Letter;
},
{
glyphname = kj_DDA;
lastChange = "2018-11-05 20:04:36 +0000";
layers = (
{
layerId = "0717401B-DDB5-4983-85F2-A81AFE530D5E";
paths = (
{
closed = 1;
nodes = (
"647 337 OFFCURVE",
"555 224 OFFCURVE",
"555 189 CURVE SMOOTH",
"555 165 OFFCURVE",
"587 147 OFFCURVE",
"616 147 CURVE SMOOTH",
"625 147 OFFCURVE",
"633 149 OFFCURVE",
"636 154 CURVE SMOOTH",
"717 278 OFFCURVE",
"785 367 OFFCURVE",
"856 367 CURVE SMOOTH",
"894 367 OFFCURVE",
"906 341 OFFCURVE",
"906 312 CURVE SMOOTH",
"906 233 OFFCURVE",
"821 113 OFFCURVE",
"767 42 CURVE SMOOTH",
"766 41 OFFCURVE",
"765 39 OFFCURVE",
"765 37 CURVE SMOOTH",
"765 21 OFFCURVE",
"786 -1 OFFCURVE",
"807 -8 CURVE SMOOTH",
"813 -10 OFFCURVE",
"820 -11 OFFCURVE",
"826 -11 CURVE SMOOTH",
"834 -11 OFFCURVE",
"841 -10 OFFCURVE",
"845 -5 CURVE SMOOTH",
"911 72 OFFCURVE",
"988 204 OFFCURVE",
"988 309 CURVE SMOOTH",
"988 394 OFFCURVE",
"932 449 OFFCURVE",
"854 449 CURVE SMOOTH",
"793 449 OFFCURVE",
"751 427 OFFCURVE",
"689 373 CURVE SMOOTH"
);
},
{
closed = 1;
nodes = (
"738 473 OFFCURVE",
"676 516 OFFCURVE",
"608 516 CURVE SMOOTH",
"556 516 OFFCURVE",
"510 497 OFFCURVE",
"469 459 CURVE",
"491 455 LINE",
"469 521 OFFCURVE",
"420 562 OFFCURVE",
"344 562 CURVE SMOOTH",
"269 562 OFFCURVE",
"198 510 OFFCURVE",
"155 417 CURVE",
"187 287 LINE",
"202 390 OFFCURVE",
"285 478 OFFCURVE",
"359 478 CURVE SMOOTH",
"406 478 OFFCURVE",
"426 446 OFFCURVE",
"433 419 CURVE",
"451 459 LINE",
"397 400 OFFCURVE",
"328 301 OFFCURVE",
"328 259 CURVE SMOOTH",
"328 233 OFFCURVE",
"357 223 OFFCURVE",
"384 223 CURVE SMOOTH",
"399 223 OFFCURVE",
"412 226 OFFCURVE",
"415 233 CURVE",
"479 391 OFFCURVE",
"556 435 OFFCURVE",
"609 435 CURVE SMOOTH",
"661 435 OFFCURVE",
"684 394 OFFCURVE",
"685 341 CURVE",
"744 373 LINE"
);
},
{
closed = 1;
nodes = (
"177 677 OFFCURVE",
"118 719 OFFCURVE",
"45 719 CURVE SMOOTH",
"22 719 OFFCURVE",
"10 691 OFFCURVE",
"10 668 CURVE SMOOTH",
"10 652 OFFCURVE",
"16 639 OFFCURVE",
"28 638 CURVE SMOOTH",
"89 633 OFFCURVE",
"93 602 OFFCURVE",
"93 573 CURVE SMOOTH",
"93 444 OFFCURVE",
"108 293 OFFCURVE",
"154 185 CURVE SMOOTH",
"213 46 OFFCURVE",
"338 -46 OFFCURVE",
"446 -46 CURVE SMOOTH",
"485 -46 OFFCURVE",
"489 -13 OFFCURVE",
"489 4 CURVE SMOOTH",
"489 23 OFFCURVE",
"476 33 OFFCURVE",
"459 34 CURVE SMOOTH",
"360 40 OFFCURVE",
"292 97 OFFCURVE",
"239 193 CURVE SMOOTH",
"194 275 OFFCURVE",
"176 406 OFFCURVE",
"176 543 CURVE SMOOTH",
"176 561 OFFCURVE",
"177 583 OFFCURVE",
"177 601 CURVE SMOOTH"
);
}
);
width = 1057;
}
);
leftMetricsKey = kj_RA;
note = kj_DDA;
rightMetricsKey = kj_DHA;
unicode = 11216;
category = Letter;
},
{
glyphname = kj_DDHA;
lastChange = "2018-11-05 20:04:36 +0000";
layers = (
{
layerId = "0717401B-DDB5-4983-85F2-A81AFE530D5E";
paths = (
{
closed = 1;
nodes = (
"330 501 OFFCURVE",
"259 558 OFFCURVE",
"163 558 CURVE SMOOTH",
"101 558 OFFCURVE",
"20 533 OFFCURVE",
"20 488 CURVE SMOOTH",
"20 465 OFFCURVE",
"36 437 OFFCURVE",
"58 437 CURVE SMOOTH",
"89 437 OFFCURVE",
"119 476 OFFCURVE",
"176 476 CURVE SMOOTH",
"219 476 OFFCURVE",
"250 453 OFFCURVE",
"250 389 CURVE SMOOTH",
"250 292 OFFCURVE",
"161 215 OFFCURVE",
"84 183 CURVE SMOOTH",
"75 179 OFFCURVE",
"72 170 OFFCURVE",
"72 161 CURVE SMOOTH",
"72 137 OFFCURVE",
"111 102 OFFCURVE",
"145 102 CURVE SMOOTH",
"350 102 LINE SMOOTH",
"644 102 OFFCURVE",
"700 271 OFFCURVE",
"700 387 CURVE SMOOTH",
"700 485 OFFCURVE",
"644 556 OFFCURVE",
"548 556 CURVE SMOOTH",
"470 556 OFFCURVE",
"408 498 OFFCURVE",
"408 412 CURVE SMOOTH",
"408 318 OFFCURVE",
"465 253 OFFCURVE",
"557 219 CURVE",
"594 273 LINE",
"542 293 OFFCURVE",
"491 327 OFFCURVE",
"491 392 CURVE SMOOTH",
"491 446 OFFCURVE",
"525 473 OFFCURVE",
"559 473 CURVE SMOOTH",
"600 473 OFFCURVE",
"624 442 OFFCURVE",
"624 389 CURVE SMOOTH",
"624 300 OFFCURVE",
"565 177 OFFCURVE",
"340 177 CURVE SMOOTH",
"170 177 LINE",
"199 160 LINE",
"282 203 OFFCURVE",
"330 291 OFFCURVE",
"330 379 CURVE SMOOTH"
);
}
);
width = 768;
}
);
leftMetricsKey = kj_CHA;
note = kj_DDHA;
unicode = 11217;
category = Letter;
},
{
glyphname = kj_NNA;
lastChange = "2018-11-05 20:04:36 +0000";
layers = (
{
layerId = "0717401B-DDB5-4983-85F2-A81AFE530D5E";
paths = (
{
closed = 1;
nodes = (
"521 491 OFFCURVE",
"394 302 OFFCURVE",
"394 249 CURVE SMOOTH",
"394 226 OFFCURVE",
"426 207 OFFCURVE",
"455 207 CURVE SMOOTH",
"464 207 OFFCURVE",
"473 209 OFFCURVE",
"476 214 CURVE SMOOTH",
"536 339 OFFCURVE",
"608 407 OFFCURVE",
"684 407 CURVE SMOOTH",
"723 407 OFFCURVE",
"746 383 OFFCURVE",
"746 334 CURVE SMOOTH",
"746 245 OFFCURVE",
"661 113 OFFCURVE",
"607 42 CURVE SMOOTH",
"606 41 OFFCURVE",
"605 39 OFFCURVE",
"605 37 CURVE SMOOTH",
"605 21 OFFCURVE",
"626 -1 OFFCURVE",
"647 -8 CURVE SMOOTH",
"653 -10 OFFCURVE",
"659 -11 OFFCURVE",
"664 -11 CURVE SMOOTH",
"673 -11 OFFCURVE",
"680 -10 OFFCURVE",
"685 -5 CURVE SMOOTH",
"745 62 OFFCURVE",
"828 214 OFFCURVE",
"828 329 CURVE SMOOTH",
"828 424 OFFCURVE",
"771 491 OFFCURVE",
"673 491 CURVE SMOOTH"
);
},
{
closed = 1;
nodes = (
"541 413 LINE",
"512 519 OFFCURVE",
"442 562 OFFCURVE",
"358 562 CURVE SMOOTH",
"286 562 OFFCURVE",
"202 517 OFFCURVE",
"154 418 CURVE",
"191 309 LINE",
"225 417 OFFCURVE",
"303 476 OFFCURVE",
"370 476 CURVE SMOOTH",
"431 476 OFFCURVE",
"468 442 OFFCURVE",
"483 377 CURVE"
);
},
{
closed = 1;
nodes = (
"177 678 OFFCURVE",
"118 720 OFFCURVE",
"45 720 CURVE SMOOTH",
"22 720 OFFCURVE",
"10 692 OFFCURVE",
"10 669 CURVE SMOOTH",
"10 653 OFFCURVE",
"16 640 OFFCURVE",
"28 639 CURVE SMOOTH",
"89 634 OFFCURVE",
"93 603 OFFCURVE",
"93 574 CURVE SMOOTH",
"93 454 OFFCURVE",
"113 295 OFFCURVE",
"155 182 CURVE SMOOTH",
"209 36 OFFCURVE",
"313 -46 OFFCURVE",
"421 -46 CURVE SMOOTH",
"460 -46 OFFCURVE",
"464 -13 OFFCURVE",
"464 4 CURVE SMOOTH",
"464 23 OFFCURVE",
"451 33 OFFCURVE",
"434 34 CURVE SMOOTH",
"342 40 OFFCURVE",
"283 93 OFFCURVE",
"238 189 CURVE SMOOTH",
"196 279 OFFCURVE",
"176 410 OFFCURVE",
"176 549 CURVE SMOOTH",
"176 565 OFFCURVE",
"177 586 OFFCURVE",
"177 602 CURVE SMOOTH"
);
}
);
width = 897;
}
);
leftMetricsKey = kj_RA;
note = kj_NNA;
rightMetricsKey = kj_DHA;
unicode = 11218;
category = Letter;
},
{
glyphname = kj_TA;
lastChange = "2018-11-05 20:04:36 +0000";
layers = (
{
layerId = "0717401B-DDB5-4983-85F2-A81AFE530D5E";
paths = (
{
closed = 1;
nodes = (
"230 336 LINE",
"238 413 OFFCURVE",
"227 473 OFFCURVE",
"200 507 CURVE SMOOTH",
"173 541 OFFCURVE",
"142 559 OFFCURVE",
"113 559 CURVE SMOOTH",
"92 559 OFFCURVE",
"68 539 OFFCURVE",
"68 510 CURVE SMOOTH",
"68 490 OFFCURVE",
"82 483 OFFCURVE",
"99 476 CURVE SMOOTH",
"148 456 OFFCURVE",
"170 405 OFFCURVE",
"170 339 CURVE SMOOTH",
"170 285 OFFCURVE",
"156 211 OFFCURVE",
"130 108 CURVE",
"131 88 OFFCURVE",
"158 70 OFFCURVE",
"187 70 CURVE SMOOTH",
"205 70 OFFCURVE",
"228 77 OFFCURVE",
"232 94 CURVE SMOOTH",
"234 102 OFFCURVE",
"236 112 OFFCURVE",
"238 124 CURVE SMOOTH",
"281 381 OFFCURVE",
"388 471 OFFCURVE",
"457 471 CURVE SMOOTH",
"510 471 OFFCURVE",
"527 439 OFFCURVE",
"527 345 CURVE SMOOTH",
"527 185 OFFCURVE",
"464 54 OFFCURVE",
"464 28 CURVE SMOOTH",
"464 10 OFFCURVE",
"492 -6 OFFCURVE",
"516 -6 CURVE SMOOTH",
"532 -6 OFFCURVE",
"552 1 OFFCURVE",
"557 13 CURVE SMOOTH",
"578 67 OFFCURVE",
"612 209 OFFCURVE",
"612 333 CURVE SMOOTH",
"612 447 OFFCURVE",
"570 555 OFFCURVE",
"449 555 CURVE SMOOTH",
"343 555 OFFCURVE",
"259 450 OFFCURVE",
"216 342 CURVE"
);
}
);
width = 682;
}
);
note = kj_TA;
rightMetricsKey = kj_vs_AA;
unicode = 11219;
category = Letter;
},
{
glyphname = kj_THA;
lastChange = "2018-11-05 20:04:36 +0000";
layers = (
{
layerId = "0717401B-DDB5-4983-85F2-A81AFE530D5E";
paths = (
{
closed = 1;
nodes = (
"397 221 OFFCURVE",
"436 367 OFFCURVE",
"436 526 CURVE SMOOTH",
"436 553 OFFCURVE",
"405 580 OFFCURVE",
"374 580 CURVE SMOOTH",
"356 580 OFFCURVE",
"348 567 OFFCURVE",
"347 544 CURVE SMOOTH",
"343 454 OFFCURVE",
"344 402 OFFCURVE",
"321 349 CURVE SMOOTH",
"308 320 OFFCURVE",
"283 302 OFFCURVE",
"247 302 CURVE SMOOTH",
"213 302 OFFCURVE",
"194 317 OFFCURVE",
"184 344 CURVE SMOOTH",
"174 372 OFFCURVE",
"174 416 OFFCURVE",
"174 468 CURVE SMOOTH",
"174 478 OFFCURVE",
"174 487 OFFCURVE",
"174 497 CURVE SMOOTH",
"174 577 OFFCURVE",
"118 620 OFFCURVE",
"45 620 CURVE SMOOTH",
"22 620 OFFCURVE",
"10 592 OFFCURVE",
"10 569 CURVE SMOOTH",
"10 553 OFFCURVE",
"16 540 OFFCURVE",
"28 539 CURVE SMOOTH",
"89 534 OFFCURVE",
"94 491 OFFCURVE",
"94 423 CURVE SMOOTH",
"94 294 OFFCURVE",
"143 221 OFFCURVE",
"253 221 CURVE SMOOTH"
);
},
{
closed = 1;
nodes = (
"616 521 OFFCURVE",
"610 477 OFFCURVE",
"603 425 CURVE SMOOTH",
"596 376 OFFCURVE",
"536 361 OFFCURVE",
"505 361 CURVE",
"456 361 OFFCURVE",
"429 375 OFFCURVE",
"415 457 CURVE",
"378 377 LINE",
"400 310 OFFCURVE",
"443 282 OFFCURVE",
"507 282 CURVE SMOOTH",
"541 282 OFFCURVE",
"579 291 OFFCURVE",
"606 320 CURVE",
"592 329 LINE",
"584 285 OFFCURVE",
"580 246 OFFCURVE",
"580 157 CURVE SMOOTH",
"580 63 OFFCURVE",
"607 -2 OFFCURVE",
"687 -2 CURVE SMOOTH",
"710 -2 OFFCURVE",
"739 0 OFFCURVE",
"760 11 CURVE SMOOTH",
"766 14 OFFCURVE",
"768 22 OFFCURVE",
"768 31 CURVE SMOOTH",
"768 54 OFFCURVE",
"758 83 OFFCURVE",
"738 83 CURVE SMOOTH",
"729 83 OFFCURVE",
"709 78 OFFCURVE",
"699 78 CURVE SMOOTH",
"666 78 OFFCURVE",
"657 101 OFFCURVE",
"657 168 CURVE SMOOTH",
"657 346 OFFCURVE",
"711 491 OFFCURVE",
"711 527 CURVE SMOOTH",
"711 555 OFFCURVE",
"676 581 OFFCURVE",
"647 581 CURVE SMOOTH",
"631 581 OFFCURVE",
"626 568 OFFCURVE",
"621 545 CURVE SMOOTH"
);
}
);
width = 838;
}
);
leftMetricsKey = kj_PA;
note = kj_THA;
rightMetricsKey = kj_PA;
unicode = 1121A;
category = Letter;
},
{
glyphname = kj_DA;
lastChange = "2018-11-05 20:04:36 +0000";
layers = (
{
layerId = "0717401B-DDB5-4983-85F2-A81AFE530D5E";
paths = (
{
closed = 1;
nodes = (
"592 34 OFFCURVE",
"578 41 OFFCURVE",
"578 67 CURVE SMOOTH",
"578 111 OFFCURVE",
"593 132 OFFCURVE",
"593 179 CURVE SMOOTH",
"593 234 OFFCURVE",
"546 263 OFFCURVE",
"531 272 CURVE",
"522 247 LINE",
"572 276 OFFCURVE",
"602 340 OFFCURVE",
"602 396 CURVE SMOOTH",
"602 502 OFFCURVE",
"513 560 OFFCURVE",
"379 560 CURVE SMOOTH",
"191 560 OFFCURVE",
"50 465 OFFCURVE",
"50 349 CURVE SMOOTH",
"50 281 OFFCURVE",
"103 229 OFFCURVE",
"179 229 CURVE SMOOTH",
"245 229 OFFCURVE",
"288 259 OFFCURVE",
"288 299 CURVE SMOOTH",
"288 324 OFFCURVE",
"266 342 OFFCURVE",
"247 342 CURVE SMOOTH",
"219 342 OFFCURVE",
"206 309 OFFCURVE",
"170 309 CURVE SMOOTH",
"151 309 OFFCURVE",
"137 323 OFFCURVE",
"137 343 CURVE SMOOTH",
"137 418 OFFCURVE",
"282 478 OFFCURVE",
"402 478 CURVE SMOOTH",
"494 478 OFFCURVE",
"519 447 OFFCURVE",
"519 412 CURVE SMOOTH",
"519 340 OFFCURVE",
"443 288 OFFCURVE",
"372 272 CURVE SMOOTH",
"359 269 OFFCURVE",
"356 256 OFFCURVE",
"356 242 CURVE SMOOTH",
"356 223 OFFCURVE",
"372 195 OFFCURVE",
"394 195 CURVE SMOOTH",
"434 195 OFFCURVE",
"461 214 OFFCURVE",
"502 237 CURVE",
"469 231 LINE",
"493 227 OFFCURVE",
"511 207 OFFCURVE",
"511 172 CURVE SMOOTH",
"511 135 OFFCURVE",
"495 103 OFFCURVE",
"495 53 CURVE SMOOTH",
"495 -10 OFFCURVE",
"545 -45 OFFCURVE",
"595 -45 CURVE SMOOTH",
"621 -45 OFFCURVE",
"650 -43 OFFCURVE",
"671 -32 CURVE SMOOTH",
"677 -29 OFFCURVE",
"679 -21 OFFCURVE",
"679 -12 CURVE SMOOTH",
"679 11 OFFCURVE",
"669 38 OFFCURVE",
"649 38 CURVE SMOOTH",
"640 38 OFFCURVE",
"629 34 OFFCURVE",
"608 34 CURVE SMOOTH"
);
}
);
width = 734;
}
);
note = kj_DA;
unicode = 1121B;
category = Letter;
},
{
glyphname = kj_DDDA;
lastChange = "2018-11-05 20:04:36 +0000";
layers = (
{
layerId = "0717401B-DDB5-4983-85F2-A81AFE530D5E";
paths = (
{
closed = 1;
nodes = (
"170 417 OFFCURVE",
"225 471 OFFCURVE",
"325 523 CURVE SMOOTH",
"369 546 OFFCURVE",
"383 550 OFFCURVE",
"383 566 CURVE SMOOTH",
"383 591 OFFCURVE",
"362 621 OFFCURVE",
"335 621 CURVE SMOOTH",
"33 621 LINE SMOOTH",
"16 621 OFFCURVE",
"5 599 OFFCURVE",
"5 579 CURVE SMOOTH",
"5 562 OFFCURVE",
"13 546 OFFCURVE",
"31 546 CURVE SMOOTH",
"230 546 LINE",
"223 561 LINE",
"126 508 OFFCURVE",
"75 440 OFFCURVE",
"75 376 CURVE SMOOTH",
"75 287 OFFCURVE",
"150 250 OFFCURVE",
"215 235 CURVE",
"219 256 LINE",
"160 218 OFFCURVE",
"143 168 OFFCURVE",
"143 121 CURVE SMOOTH",
"143 14 OFFCURVE",
"231 -46 OFFCURVE",
"343 -46 CURVE SMOOTH",
"431 -46 OFFCURVE",
"497 -6 OFFCURVE",
"527 23 CURVE SMOOTH",
"537 32 OFFCURVE",
"540 40 OFFCURVE",
"540 51 CURVE SMOOTH",
"540 75 OFFCURVE",
"516 100 OFFCURVE",
"500 100 CURVE SMOOTH",
"477 100 OFFCURVE",
"430 39 OFFCURVE",
"337 39 CURVE SMOOTH",
"271 39 OFFCURVE",
"232 66 OFFCURVE",
"232 116 CURVE SMOOTH",
"232 176 OFFCURVE",
"298 220 OFFCURVE",
"411 261 CURVE SMOOTH",
"418 263 OFFCURVE",
"423 274 OFFCURVE",
"423 284 CURVE SMOOTH",
"423 309 OFFCURVE",
"401 339 OFFCURVE",
"381 339 CURVE SMOOTH",
"350 339 OFFCURVE",
"305 301 OFFCURVE",
"249 301 CURVE SMOOTH",
"208 301 OFFCURVE",
"170 321 OFFCURVE",
"170 368 CURVE SMOOTH"
);
}
);
width = 533;
}
);
note = kj_DDDA;
unicode = 1121C;
category = Letter;
},
{
glyphname = kj_DHA;
lastChange = "2018-11-05 20:04:39 +0000";
layers = (
{
layerId = "0717401B-DDB5-4983-85F2-A81AFE530D5E";
paths = (
{
closed = 1;
nodes = (
"285 335 OFFCURVE",
"222 281 OFFCURVE",
"174 254 CURVE SMOOTH",
"165 249 OFFCURVE",
"162 241 OFFCURVE",
"162 231 CURVE SMOOTH",
"162 208 OFFCURVE",
"204 173 OFFCURVE",
"238 173 CURVE SMOOTH",
"257 173 OFFCURVE",
"285 191 OFFCURVE",
"332 223 CURVE SMOOTH",
"480 323 OFFCURVE",
"602 363 OFFCURVE",
"651 363 CURVE SMOOTH",
"676 363 OFFCURVE",
"686 350 OFFCURVE",
"686 321 CURVE SMOOTH",
"686 238 OFFCURVE",
"601 113 OFFCURVE",
"547 42 CURVE SMOOTH",
"546 41 OFFCURVE",
"545 39 OFFCURVE",
"545 37 CURVE SMOOTH",
"545 21 OFFCURVE",
"566 -1 OFFCURVE",
"587 -8 CURVE SMOOTH",
"593 -10 OFFCURVE",
"599 -11 OFFCURVE",
"605 -11 CURVE SMOOTH",
"613 -11 OFFCURVE",
"620 -10 OFFCURVE",
"625 -5 CURVE SMOOTH",
"686 63 OFFCURVE",
"768 210 OFFCURVE",
"768 315 CURVE SMOOTH",
"768 399 OFFCURVE",
"722 454 OFFCURVE",
"644 454 CURVE SMOOTH",
"561 454 OFFCURVE",
"450 396 OFFCURVE",
"291 299 CURVE",
"339 316 LINE",
"358 349 OFFCURVE",
"366 383 OFFCURVE",
"366 420 CURVE SMOOTH",
"366 521 OFFCURVE",
"274 558 OFFCURVE",
"181 558 CURVE SMOOTH",
"101 558 OFFCURVE",
"20 533 OFFCURVE",
"20 488 CURVE SMOOTH",
"20 465 OFFCURVE",
"36 437 OFFCURVE",
"58 437 CURVE SMOOTH",
"89 437 OFFCURVE",
"126 476 OFFCURVE",
"204 476 CURVE SMOOTH",
"254 476 OFFCURVE",
"285 455 OFFCURVE",
"285 409 CURVE SMOOTH"
);
}
);
width = 837;
}
);
note = kj_DHA;
unicode = 1121D;
category = Letter;
},
{
glyphname = kj_NA;
lastChange = "2018-11-05 20:04:36 +0000";
layers = (
{
layerId = "0717401B-DDB5-4983-85F2-A81AFE530D5E";
paths = (
{
closed = 1;
nodes = (
"329 143 OFFCURVE",
"376 211 OFFCURVE",
"376 307 CURVE SMOOTH",
"376 419 OFFCURVE",
"307 504 OFFCURVE",
"198 504 CURVE SMOOTH",
"105 504 OFFCURVE",
"45 438 OFFCURVE",
"45 340 CURVE SMOOTH",
"45 230 OFFCURVE",
"116 143 OFFCURVE",
"224 143 CURVE SMOOTH"
);
},
{
closed = 1;
nodes = (
"161 223 OFFCURVE",
"128 259 OFFCURVE",
"128 318 CURVE SMOOTH",
"128 378 OFFCURVE",
"162 422 OFFCURVE",
"217 422 CURVE SMOOTH",
"266 422 OFFCURVE",
"296 379 OFFCURVE",
"296 328 CURVE SMOOTH",
"296 271 OFFCURVE",
"266 223 OFFCURVE",
"209 223 CURVE SMOOTH"
);
},
{
closed = 1;
nodes = (
"604 526 OFFCURVE",
"573 556 OFFCURVE",
"548 556 CURVE SMOOTH",
"528 556 OFFCURVE",
"522 545 OFFCURVE",
"517 506 CURVE SMOOTH",
"506 420 OFFCURVE",
"423 383 OFFCURVE",
"349 383 CURVE",
"336 313 LINE",
"346 310 OFFCURVE",
"361 308 OFFCURVE",
"370 308 CURVE SMOOTH",
"453 308 OFFCURVE",
"524 343 OFFCURVE",
"560 401 CURVE",
"510 388 LINE",
"492 272 OFFCURVE",
"472 195 OFFCURVE",
"429 103 CURVE",
"429 79 OFFCURVE",
"456 64 OFFCURVE",
"480 64 CURVE SMOOTH",
"496 64 OFFCURVE",
"514 68 OFFCURVE",
"522 87 CURVE SMOOTH",
"578 221 OFFCURVE",
"604 385 OFFCURVE",
"604 493 CURVE SMOOTH"
);
}
);
width = 674;
}
);
note = kj_NA;
unicode = 1121E;
category = Letter;
},
{
glyphname = kj_PA;
lastChange = "2018-11-05 20:04:36 +0000";
layers = (
{
layerId = "0717401B-DDB5-4983-85F2-A81AFE530D5E";
paths = (
{
closed = 1;
nodes = (
"340 269 LINE",
"332 245 OFFCURVE",
"328 216 OFFCURVE",
"328 157 CURVE SMOOTH",
"328 63 OFFCURVE",
"355 -2 OFFCURVE",
"435 -2 CURVE SMOOTH",
"458 -2 OFFCURVE",
"487 0 OFFCURVE",
"508 11 CURVE SMOOTH",
"514 14 OFFCURVE",
"516 22 OFFCURVE",
"516 31 CURVE SMOOTH",
"516 54 OFFCURVE",
"506 83 OFFCURVE",
"486 83 CURVE SMOOTH",
"477 83 OFFCURVE",
"457 78 OFFCURVE",
"447 78 CURVE SMOOTH",
"414 78 OFFCURVE",
"405 101 OFFCURVE",
"405 168 CURVE SMOOTH",
"405 346 OFFCURVE",
"464 491 OFFCURVE",
"464 527 CURVE SMOOTH",
"464 555 OFFCURVE",
"429 581 OFFCURVE",
"400 581 CURVE SMOOTH",
"384 581 OFFCURVE",
"378 567 OFFCURVE",
"374 544 CURVE SMOOTH",
"368 511 OFFCURVE",
"360 456 OFFCURVE",
"348 375 CURVE SMOOTH",
"341 326 OFFCURVE",
"292 302 OFFCURVE",
"241 302 CURVE SMOOTH",
"197 302 OFFCURVE",
"179 323 OFFCURVE",
"177 359 CURVE SMOOTH",
"176 385 OFFCURVE",
"174 459 OFFCURVE",
"174 497 CURVE SMOOTH",
"174 577 OFFCURVE",
"118 620 OFFCURVE",
"45 620 CURVE SMOOTH",
"22 620 OFFCURVE",
"10 592 OFFCURVE",
"10 569 CURVE SMOOTH",
"10 553 OFFCURVE",
"16 540 OFFCURVE",
"28 539 CURVE SMOOTH",
"89 534 OFFCURVE",
"93 505 OFFCURVE",
"93 477 CURVE SMOOTH",
"93 453 OFFCURVE",
"92 397 OFFCURVE",
"92 363 CURVE SMOOTH",
"92 279 OFFCURVE",
"159 222 OFFCURVE",
"246 222 CURVE SMOOTH",
"289 222 OFFCURVE",
"324 231 OFFCURVE",
"354 250 CURVE"
);
}
);
width = 586;
}
);
note = kj_PA;
unicode = 1121F;
category = Letter;
},
{
glyphname = kj_PHA;
lastChange = "2018-11-05 20:04:36 +0000";
layers = (
{
layerId = "0717401B-DDB5-4983-85F2-A81AFE530D5E";
paths = (
{
closed = 1;
nodes = (
"455 199 OFFCURVE",
"495 217 OFFCURVE",
"516 217 CURVE SMOOTH",
"554 217 OFFCURVE",
"568 178 OFFCURVE",
"575 120 CURVE SMOOTH",
"583 53 OFFCURVE",
"604 -4 OFFCURVE",
"675 -4 CURVE SMOOTH",
"710 -4 OFFCURVE",
"720 17 OFFCURVE",
"720 37 CURVE SMOOTH",
"720 52 OFFCURVE",
"714 67 OFFCURVE",
"696 67 CURVE SMOOTH",
"645 67 OFFCURVE",
"650 129 OFFCURVE",
"645 172 CURVE SMOOTH",
"638 232 OFFCURVE",
"613 286 OFFCURVE",
"549 286 CURVE SMOOTH",
"519 286 OFFCURVE",
"479 271 OFFCURVE",
"463 254 CURVE",
"444 184 LINE"
);
},
{
closed = 1;
nodes = (
"115 383 OFFCURVE",
"119 349 CURVE SMOOTH",
"128 271 OFFCURVE",
"183 221 OFFCURVE",
"277 221 CURVE SMOOTH",
"376 221 OFFCURVE",
"419 271 OFFCURVE",
"444 327 CURVE",
"433 341 LINE",
"391 191 OFFCURVE",
"324 93 OFFCURVE",
"208 81 CURVE SMOOTH",
"178 78 OFFCURVE",
"161 70 OFFCURVE",
"161 46 CURVE SMOOTH",
"161 23 OFFCURVE",
"181 -4 OFFCURVE",
"211 -4 CURVE SMOOTH",
"316 -4 OFFCURVE",
"415 78 OFFCURVE",
"466 208 CURVE SMOOTH",
"511 322 OFFCURVE",
"550 430 OFFCURVE",
"550 457 CURVE SMOOTH",
"550 490 OFFCURVE",
"525 520 OFFCURVE",
"492 520 CURVE SMOOTH",
"476 520 OFFCURVE",
"470 505 OFFCURVE",
"457 459 CURVE SMOOTH",
"438 393 OFFCURVE",
"387 306 OFFCURVE",
"278 306 CURVE SMOOTH",
"221 306 OFFCURVE",
"201 324 OFFCURVE",
"194 383 CURVE SMOOTH",
"188 434 OFFCURVE",
"174 473 OFFCURVE",
"145 506 CURVE SMOOTH",
"117 538 OFFCURVE",
"85 559 OFFCURVE",
"58 559 CURVE SMOOTH",
"37 559 OFFCURVE",
"10 540 OFFCURVE",
"10 513 CURVE SMOOTH",
"10 493 OFFCURVE",
"28 484 OFFCURVE",
"54 467 CURVE SMOOTH",
"109 431 OFFCURVE"
);
}
);
width = 765;
}
);
note = kj_PHA;
rightMetricsKey = kj_KA;
unicode = 11220;
category = Letter;
},
{
glyphname = kj_BA;
lastChange = "2018-11-05 20:04:36 +0000";
layers = (
{
layerId = "0717401B-DDB5-4983-85F2-A81AFE530D5E";
paths = (
{
closed = 1;
nodes = (
"812 64 OFFCURVE",
"830 67 OFFCURVE",
"838 87 CURVE SMOOTH",
"856 132 OFFCURVE",
"881 239 OFFCURVE",
"881 335 CURVE SMOOTH",
"881 445 OFFCURVE",
"852 553 OFFCURVE",
"734 553 CURVE SMOOTH",
"608 553 OFFCURVE",
"501 371 OFFCURVE",
"501 270 CURVE SMOOTH",
"501 248 OFFCURVE",
"529 224 OFFCURVE",
"558 224 CURVE SMOOTH",
"573 224 OFFCURVE",
"582 227 OFFCURVE",
"588 234 CURVE",
"606 339 OFFCURVE",
"673 466 OFFCURVE",
"737 466 CURVE SMOOTH",
"781 466 OFFCURVE",
"794 433 OFFCURVE",
"794 351 CURVE SMOOTH",
"794 226 OFFCURVE",
"745 124 OFFCURVE",
"745 103 CURVE SMOOTH",
"745 79 OFFCURVE",
"772 64 OFFCURVE",
"796 64 CURVE SMOOTH"
);
},
{
closed = 1;
nodes = (
"525 468 OFFCURVE",
"556 454 OFFCURVE",
"556 410 CURVE SMOOTH",
"556 397 OFFCURVE",
"554 387 OFFCURVE",
"551 379 CURVE",
"615 423 LINE",
"612 503 OFFCURVE",
"565 555 OFFCURVE",
"480 555 CURVE SMOOTH",
"335 555 OFFCURVE",
"233 386 OFFCURVE",
"233 290 CURVE SMOOTH",
"233 267 OFFCURVE",
"257 244 OFFCURVE",
"290 244 CURVE SMOOTH",
"339 244 OFFCURVE",
"345 333 OFFCURVE",
"349 416 CURVE",
"324 365 LINE",
"322 312 LINE",
"349 406 OFFCURVE",
"417 468 OFFCURVE",
"483 468 CURVE SMOOTH"
);
},
{
closed = 1;
nodes = (
"317 528 OFFCURVE",
"275 556 OFFCURVE",
"219 556 CURVE SMOOTH",
"178 556 OFFCURVE",
"159 556 OFFCURVE",
"139 560 CURVE SMOOTH",
"110 566 OFFCURVE",
"105 584 OFFCURVE",
"101 601 CURVE SMOOTH",
"98 615 OFFCURVE",
"93 627 OFFCURVE",
"74 627 CURVE SMOOTH",
"54 627 OFFCURVE",
"30 609 OFFCURVE",
"30 580 CURVE SMOOTH",
"30 538 OFFCURVE",
"53 476 OFFCURVE",
"166 476 CURVE SMOOTH",
"230 476 OFFCURVE",
"274 474 OFFCURVE",
"285 419 CURVE",
"337 470 LINE"
);
}
);
width = 950;
}
);
leftMetricsKey = kj_KA;
note = kj_BA;
rightMetricsKey = kj_A;
unicode = 11221;
category = Letter;
},
{
glyphname = kj_BBA;
lastChange = "2018-11-05 20:04:36 +0000";
layers = (
{
layerId = "0717401B-DDB5-4983-85F2-A81AFE530D5E";
paths = (
{
closed = 1;
nodes = (
"454 9 OFFCURVE",
"481 -6 OFFCURVE",
"505 -6 CURVE SMOOTH",
"521 -6 OFFCURVE",
"539 -3 OFFCURVE",
"547 17 CURVE SMOOTH",
"580 99 OFFCURVE",
"594 205 OFFCURVE",
"594 326 CURVE SMOOTH",
"594 405 OFFCURVE",
"581 473 OFFCURVE",
"566 514 CURVE SMOOTH",
"556 542 OFFCURVE",
"546 556 OFFCURVE",
"520 556 CURVE SMOOTH",
"498 556 OFFCURVE",
"471 539 OFFCURVE",
"471 510 CURVE SMOOTH",
"471 483 OFFCURVE",
"507 425 OFFCURVE",
"507 321 CURVE SMOOTH",
"507 133 OFFCURVE",
"454 59 OFFCURVE",
"454 33 CURVE SMOOTH"
);
},
{
closed = 1;
nodes = (
"238 219 OFFCURVE",
"174 124 OFFCURVE",
"174 103 CURVE SMOOTH",
"174 79 OFFCURVE",
"201 64 OFFCURVE",
"225 64 CURVE SMOOTH",
"241 64 OFFCURVE",
"259 67 OFFCURVE",
"267 87 CURVE SMOOTH",
"285 132 OFFCURVE",
"321 226 OFFCURVE",
"321 334 CURVE SMOOTH",
"321 489 OFFCURVE",
"245 553 OFFCURVE",
"155 553 CURVE SMOOTH",
"63 553 OFFCURVE",
"24 491 OFFCURVE",
"24 420 CURVE SMOOTH",
"24 324 OFFCURVE",
"106 245 OFFCURVE",
"248 245 CURVE SMOOTH",
"531 245 LINE",
"531 320 LINE",
"286 320 LINE SMOOTH",
"174 320 OFFCURVE",
"107 339 OFFCURVE",
"107 410 CURVE SMOOTH",
"107 444 OFFCURVE",
"125 472 OFFCURVE",
"173 472 CURVE SMOOTH",
"208 472 OFFCURVE",
"238 440 OFFCURVE",
"238 354 CURVE SMOOTH"
);
}
);
width = 665;
}
);
note = kj_BBA;
unicode = 11222;
category = Letter;
},
{
glyphname = kj_BHA;
lastChange = "2018-11-05 20:04:36 +0000";
layers = (
{
layerId = "0717401B-DDB5-4983-85F2-A81AFE530D5E";
paths = (
{
closed = 1;
nodes = (
"602 -6 OFFCURVE",
"620 -3 OFFCURVE",
"628 17 CURVE SMOOTH",
"661 99 OFFCURVE",
"675 205 OFFCURVE",
"675 316 CURVE SMOOTH",
"675 405 OFFCURVE",
"662 473 OFFCURVE",
"647 514 CURVE SMOOTH",
"637 542 OFFCURVE",
"627 556 OFFCURVE",
"601 556 CURVE SMOOTH",
"579 556 OFFCURVE",
"552 539 OFFCURVE",
"552 510 CURVE SMOOTH",
"552 483 OFFCURVE",
"588 425 OFFCURVE",
"588 321 CURVE SMOOTH",
"588 133 OFFCURVE",
"535 59 OFFCURVE",
"535 33 CURVE SMOOTH",
"535 9 OFFCURVE",
"562 -6 OFFCURVE",
"586 -6 CURVE SMOOTH"
);
},
{
closed = 1;
nodes = (
"605 243 LINE",
"605 318 LINE",
"400 318 LINE",
"447 243 LINE"
);
},
{
closed = 1;
nodes = (
"467 397 OFFCURVE",
"360 449 OFFCURVE",
"286 449 CURVE SMOOTH",
"215 449 OFFCURVE",
"183 458 OFFCURVE",
"175 496 CURVE SMOOTH",
"171 516 OFFCURVE",
"169 537 OFFCURVE",
"146 537 CURVE SMOOTH",
"126 537 OFFCURVE",
"100 522 OFFCURVE",
"100 493 CURVE SMOOTH",
"100 407 OFFCURVE",
"167 365 OFFCURVE",
"270 365 CURVE SMOOTH",
"336 365 OFFCURVE",
"389 335 OFFCURVE",
"389 254 CURVE SMOOTH",
"389 180 OFFCURVE",
"339 148 OFFCURVE",
"278 148 CURVE SMOOTH",
"200 148 OFFCURVE",
"151 199 OFFCURVE",
"128 239 CURVE SMOOTH",
"117 258 OFFCURVE",
"108 276 OFFCURVE",
"96 276 CURVE SMOOTH",
"75 276 OFFCURVE",
"67 231 OFFCURVE",
"67 209 CURVE SMOOTH",
"67 153 OFFCURVE",
"159 64 OFFCURVE",
"279 64 CURVE SMOOTH",
"385 64 OFFCURVE",
"467 123 OFFCURVE",
"467 244 CURVE SMOOTH"
);
}
);
width = 745;
}
);
leftMetricsKey = kj_GA;
note = kj_BHA;
rightMetricsKey = kj_AA;
unicode = 11223;
category = Letter;
},
